STARTFONT 2.1
COMMENT
COMMENT Converted from OpenType font "FreeSansBold.ttf" by "otf2bdf 3.0".
COMMENT
FONT -FreeType-FreeSans-Bold-R-Normal--50-120-300-300-P-275-ISO10646-1
SIZE 12 300 300
FONTBOUNDINGBOX 126 72 -48 -18
STARTPROPERTIES 19
FOUNDRY "FreeType"
FAMILY_NAME "FreeSans"
WEIGHT_NAME "Bold"
SLANT "R"
SETWIDTH_NAME "Normal"
ADD_STYLE_NAME ""
PIXEL_SIZE 50
POINT_SIZE 120
RESOLUTION_X 300
RESOLUTION_Y 300
SPACING "P"
AVERAGE_WIDTH 275
CHARSET_REGISTRY "ISO10646"
CHARSET_ENCODING "1"
FONT_ASCENT 45
FONT_DESCENT 10
COPYRIGHT "Copyright 2002, 2003, 2005, 2008, 2009, 2010, 2012 GNU Freefont contributors."
_OTF_FONTFILE "FreeSansBold.ttf"
_OTF_PSNAME "FreeSansBold"
ENDPROPERTIES
CHARS 2653
STARTCHAR 0020
ENCODING 32
SWIDTH 280 0
DWIDTH 14 0
BBX 0 0 0 0
BITMAP
ENDCHAR
STARTCHAR 0021
ENCODING 33
SWIDTH 340 0
DWIDTH 17 0
BBX 8 37 6 0
BITMAP
FF
FF
FF
FF
FF
FF
FF
FF
FF
FF
FF
FE
FE
FE
FE
7E
7E
7E
7E
7C
7C
7C
3C
3C
3C
3C
38
00
00
00
FF
FF
FF
FF
FF
FF
FF
ENDCHAR
STARTCHAR 0022
ENCODING 34
SWIDTH 480 0
DWIDTH 24 0
BBX 18 13 3 23
BITMAP
FE1FC0
FE1FC0
FE1FC0
FE1FC0
FE1FC0
FE1FC0
FE1FC0
FE1FC0
7C0F80
7C0F80
7C0F80
380700
380700
ENDCHAR
STARTCHAR 0023
ENCODING 35
SWIDTH 560 0
DWIDTH 28 0
BBX 28 35 0 -1
BITMAP
007C1F80
007C1F80
007C1F00
00FC1F00
00F81F00
00F83F00
00F83E00
00F83E00
7FFFFFF0
7FFFFFF0
7FFFFFF0
7FFFFFF0
7FFFFFF0
03F07C00
03E07C00
03E0FC00
03E0F800
03E0F800
07E0F800
07C0F800
FFFFFFC0
FFFFFFC0
FFFFFFC0
FFFFFFC0
FFFFFFC0
0F83F000
0F83E000
0F83E000
1F83E000
1F03E000
1F07E000
1F07C000
1F07C000
3F07C000
3E07C000
ENDCHAR
STARTCHAR 0024
ENCODING 36
SWIDTH 560 0
DWIDTH 28 0
BBX 26 44 1 -6
BITMAP
001C0000
001C0000
00FFC000
03FFF000
0FFFFC00
1FFFFE00
1FFFFF00
3FDDFF80
3F1C7F80
7F1C3FC0
7E1C3FC0
7E1C1FC0
7E1C1FC0
7E1C0000
7F1C0000
7F9C0000
3FFC0000
3FFE0000
1FFFC000
0FFFF000
07FFFC00
01FFFE00
007FFF00
001FFF80
001CFF80
001C3FC0
001C3FC0
001C1FC0
FE1C1FC0
FE1C1FC0
FE1C1FC0
FF1C3FC0
7F9C7F80
7FDDFF80
3FFFFF00
1FFFFE00
0FFFFC00
07FFF000
00FF8000
001C0000
001C0000
001C0000
001C0000
001C0000
ENDCHAR
STARTCHAR 0025
ENCODING 37
SWIDTH 880 0
DWIDTH 44 0
BBX 42 37 1 -1
BITMAP
03F800078000
0FFE00070000
1FFF000F0000
3FFF800E0000
7FFFC01E0000
7F1FC01C0000
FC07C03C0000
F807E0780000
F803E0780000
F803E0F00000
F803E0F00000
F807E1E00000
FC07E1E00000
7F1FC3C00000
7FFFC3C00000
3FFF87800000
1FFF07800000
0FFE0F000000
03F80E03F000
00001E0FFC00
00001C1FFE00
00003C3FFF00
0000787FFF80
0000787F3F80
0000F0FC0FC0
0000F0F807C0
0001E0F807C0
0001E0F807C0
0003C0F807C0
0003C0FC0FC0
0007807E1F80
0007807FFF80
000F003FFF00
000F003FFF00
001E001FFE00
003E0007F800
003C00000000
ENDCHAR
STARTCHAR 0026
ENCODING 38
SWIDTH 720 0
DWIDTH 36 0
BBX 31 37 3 0
BITMAP
007FC000
01FFE000
03FFF000
07FFF800
07FFFC00
0FF1FC00
0FE0FC00
0FE0FC00
0FE0FC00
0FF0FC00
07F1F800
07FBF800
03FFF000
01FFE000
01FFC000
00FF8000
01FF0000
07FF81F8
0FFFC1F8
1FFFE1F8
3FEFF1F0
7F87F3F0
7F03FBF0
FE03FFF0
FE01FFE0
FE00FFE0
FE00FFC0
FE007FC0
FF003FC0
FF807FC0
7FC1FFE0
7FFFFFF0
3FFFFFF8
1FFFFBF8
0FFFF3FC
07FFC1FE
00FF0000
ENDCHAR
STARTCHAR 0027
ENCODING 39
SWIDTH 240 0
DWIDTH 12 0
BBX 7 13 3 23
BITMAP
FE
FE
FE
FE
FE
FE
FE
FE
7C
7C
7C
38
38
ENDCHAR
STARTCHAR 0028
ENCODING 40
SWIDTH 340 0
DWIDTH 17 0
BBX 13 46 2 -10
BITMAP
00F8
01F0
01F0
03E0
07E0
07C0
0FC0
0FC0
1F80
1F80
3F00
3F00
3F00
7E00
7E00
7E00
7E00
FE00
FC00
FC00
FC00
FC00
FC00
FC00
FC00
FC00
FC00
FC00
FE00
7E00
7E00
7E00
7E00
3F00
3F00
3F00
1F80
1F80
0F80
0FC0
07C0
07E0
03E0
03F0
01F0
00F8
ENDCHAR
STARTCHAR 0029
ENCODING 41
SWIDTH 340 0
DWIDTH 17 0
BBX 13 46 1 -10
BITMAP
F800
7C00
7E00
3E00
3F00
1F00
1F80
0F80
0FC0
0FC0
07E0
07E0
07E0
03F0
03F0
03F0
03F0
01F8
01F8
01F8
01F8
01F8
01F8
01F8
01F8
01F8
01F8
01F8
01F8
03F8
03F0
03F0
03F0
03F0
07E0
07E0
07C0
0FC0
0FC0
1F80
1F80
3F00
3E00
7E00
7C00
FC00
ENDCHAR
STARTCHAR 002A
ENCODING 42
SWIDTH 380 0
DWIDTH 19 0
BBX 16 16 2 20
BITMAP
03C0
03C0
03C0
03C0
C3C2
FBFF
FFFF
FFFF
1FF8
07E0
0FF0
1FF0
1E78
3C7C
3C38
0810
ENDCHAR
STARTCHAR 002B
ENCODING 43
SWIDTH 580 0
DWIDTH 29 0
BBX 24 24 3 0
BITMAP
007E00
007E00
007E00
007E00
007E00
007E00
007E00
007E00
007E00
FFFFFF
FFFFFF
FFFFFF
FFFFFF
FFFFFF
FFFFFF
007E00
007E00
007E00
007E00
007E00
007E00
007E00
007E00
007E00
ENDCHAR
STARTCHAR 002C
ENCODING 44
SWIDTH 240 0
DWIDTH 12 0
BBX 8 16 3 -9
BITMAP
FF
FF
FF
FF
FF
FF
FF
0F
0E
0E
1E
1E
7C
F8
F0
80
ENDCHAR
STARTCHAR 002D
ENCODING 45
SWIDTH 340 0
DWIDTH 17 0
BBX 14 6 1 10
BITMAP
FFFC
FFFC
FFFC
FFFC
FFFC
FFFC
ENDCHAR
STARTCHAR 002E
ENCODING 46
SWIDTH 240 0
DWIDTH 12 0
BBX 8 7 3 0
BITMAP
FF
FF
FF
FF
FF
FF
FF
ENDCHAR
STARTCHAR 002F
ENCODING 47
SWIDTH 280 0
DWIDTH 14 0
BBX 14 36 0 0
BITMAP
003C
0038
0038
0078
0070
0070
00F0
00F0
00E0
00E0
01E0
01C0
01C0
03C0
03C0
0380
0380
0780
0700
0700
0700
0F00
0E00
0E00
1E00
1C00
1C00
1C00
3C00
3800
3800
7800
7000
7000
7000
F000
ENDCHAR
STARTCHAR 0030
ENCODING 48
SWIDTH 560 0
DWIDTH 28 0
BBX 25 37 1 0
BITMAP
01FFC000
07FFF000
0FFFF800
1FFFFC00
1FFFFC00
3FE3FE00
3F81FE00
7F80FF00
7F007F00
7F007F00
7F007F00
FE003F80
FE003F80
FE003F80
FE003F80
FE003F80
FE003F80
FE003F80
FE003F80
FE003F80
FE003F80
FE003F80
FE003F80
FE003F80
FE003F80
7F007F80
7F007F00
7F007F00
7F007F00
3F80FE00
3FC1FE00
3FFFFE00
1FFFFC00
0FFFF800
07FFF000
03FFE000
007F0000
ENDCHAR
STARTCHAR 0031
ENCODING 49
SWIDTH 560 0
DWIDTH 28 0
BBX 15 36 4 0
BITMAP
003E
007E
007E
00FE
01FE
07FE
FFFE
FFFE
FFFE
FFFE
FFFE
00FE
00FE
00FE
00FE
00FE
00FE
00FE
00FE
00FE
00FE
00FE
00FE
00FE
00FE
00FE
00FE
00FE
00FE
00FE
00FE
00FE
00FE
00FE
00FE
00FE
ENDCHAR
STARTCHAR 0032
ENCODING 50
SWIDTH 560 0
DWIDTH 28 0
BBX 24 36 2 1
BITMAP
03FFC0
07FFE0
1FFFF8
3FFFFC
3FFFFC
7FC3FE
7F81FE
FF00FF
FE007F
FE007F
FE007F
FE007F
00007F
00007F
0000FF
0000FE
0001FE
0003FC
0007F8
000FF8
003FE0
007FC0
01FF80
03FE00
07FC00
0FF800
1FE000
3FC000
3FC000
7F8000
7FFFFF
7FFFFF
FFFFFF
FFFFFF
FFFFFF
FFFFFF
ENDCHAR
STARTCHAR 0033
ENCODING 51
SWIDTH 560 0
DWIDTH 28 0
BBX 24 37 2 0
BITMAP
03FF80
0FFFE0
1FFFF0
3FFFF8
7FFFFC
7FC7FC
7F01FE
FF00FE
FE00FE
FE00FE
FE00FE
0000FE
0000FC
0001FC
0003F8
003FF0
003FE0
003FE0
003FF8
003FFC
0003FE
0001FE
0000FF
00007F
00007F
00007F
FE007F
FE007F
FE00FF
FF00FF
7F83FE
7FFFFE
3FFFFC
1FFFF8
0FFFF0
07FFE0
00FF00
ENDCHAR
STARTCHAR 0034
ENCODING 52
SWIDTH 560 0
DWIDTH 28 0
BBX 24 36 1 0
BITMAP
0007F8
000FF8
001FF8
001FF8
003FF8
003FF8
007FF8
00FFF8
00FBF8
01F3F8
01F3F8
03E3F8
03E3F8
07C3F8
0F83F8
0F83F8
1F03F8
1E03F8
3E03F8
7C03F8
7C03F8
F803F8
FFFFFF
FFFFFF
FFFFFF
FFFFFF
FFFFFF
FFFFFF
0003F8
0003F8
0003F8
0003F8
0003F8
0003F8
0003F8
0003F8
ENDCHAR
STARTCHAR 0035
ENCODING 53
SWIDTH 560 0
DWIDTH 28 0
BBX 24 37 2 -1
BITMAP
1FFFFE
1FFFFE
1FFFFE
1FFFFE
1FFFFE
1FFFFE
3F0000
3F0000
3E0000
3E0000
3E0000
3E1E00
7EFFC0
7DFFE0
7FFFF8
7FFFF8
7FFFFC
7F03FE
FE01FE
0000FE
0000FF
00007F
00007F
00007F
00007F
00007F
00007F
FC00FF
FE00FE
FE01FE
FF03FE
7FFFFC
7FFFF8
3FFFF0
1FFFE0
07FFC0
01FE00
ENDCHAR
STARTCHAR 0036
ENCODING 54
SWIDTH 560 0
DWIDTH 28 0
BBX 24 37 2 0
BITMAP
00FFC0
03FFF0
07FFF8
0FFFFC
1FFFFC
3FE3FE
3F80FE
3F80FE
7F0000
7F0000
7F0000
7E0000
FE0000
FE3FC0
FEFFF0
FFFFF8
FFFFFC
FFFFFC
FFC3FE
FF81FE
FF00FF
FF007F
FE007F
FE007F
FE007F
FE007F
7E007F
7E00FF
7F00FE
7F81FE
3FC3FE
3FFFFC
1FFFFC
0FFFF8
07FFF0
03FFC0
00FF00
ENDCHAR
STARTCHAR 0037
ENCODING 55
SWIDTH 560 0
DWIDTH 28 0
BBX 24 36 2 0
BITMAP
FFFFFF
FFFFFF
FFFFFF
FFFFFF
FFFFFF
FFFFFF
00007E
0000FE
0001FC
0001F8
0003F0
0007F0
0007E0
000FE0
001FC0
001FC0
003F80
003F80
007F00
007F00
007E00
00FE00
00FE00
00FC00
01FC00
01FC00
01F800
03F800
03F800
03F800
03F800
03F000
07F000
07F000
07F000
07F000
ENDCHAR
STARTCHAR 0038
ENCODING 56
SWIDTH 560 0
DWIDTH 28 0
BBX 25 37 1 0
BITMAP
01FFC000
07FFF000
0FFFF800
1FFFFC00
3FFFFE00
3FC3FE00
7F80FE00
7F007F00
7E003F00
7E003F00
7E003F00
7F007F00
3F007E00
3F80FE00
1FFFFC00
07FFF000
07FFF000
0FFFF800
1FFFFC00
3FC1FE00
7F80FF00
7F007F00
FE003F80
FE003F80
FE003F80
FE003F80
FE003F80
FE003F80
FF007F80
7F00FF00
7FC1FF00
7FFFFE00
3FFFFE00
1FFFFC00
0FFFF800
03FFE000
00FF0000
ENDCHAR
STARTCHAR 0039
ENCODING 57
SWIDTH 560 0
DWIDTH 28 0
BBX 25 37 1 0
BITMAP
01FF8000
07FFE000
0FFFF000
1FFFF800
3FFFFC00
3FE3FE00
7F80FE00
7F007E00
FF007F00
FE003F00
FE003F00
FE003F80
FE003F80
FE003F80
FE003F80
FF007F80
7F007F80
7F80FF80
7FC1FF80
3FFFFF80
3FFFFF80
1FFFFF80
0FFFBF80
03FF3F80
00783F00
00003F00
00003F00
00007F00
7F007E00
7F00FE00
7F81FE00
7FFFFC00
3FFFF800
1FFFF800
0FFFF000
07FFC000
00FF0000
ENDCHAR
STARTCHAR 003A
ENCODING 58
SWIDTH 240 0
DWIDTH 12 0
BBX 8 26 3 0
BITMAP
FF
FF
FF
FF
FF
FF
FF
00
00
00
00
00
00
00
00
00
00
00
00
FF
FF
FF
FF
FF
FF
FF
ENDCHAR
STARTCHAR 003B
ENCODING 59
SWIDTH 240 0
DWIDTH 12 0
BBX 8 35 3 -9
BITMAP
FF
FF
FF
FF
FF
FF
FF
00
00
00
00
00
00
00
00
00
00
00
00
FF
FF
FF
FF
FF
FF
FF
0F
0E
0E
1E
1E
7C
F8
F0
80
ENDCHAR
STARTCHAR 003C
ENCODING 60
SWIDTH 580 0
DWIDTH 29 0
BBX 24 23 2 1
BITMAP
000007
00003F
0000FF
0007FF
003FFF
00FFFC
07FFE0
3FFF80
FFFC00
FFE000
FF0000
FC0000
FF8000
FFE000
FFFC00
1FFF80
03FFF0
00FFFE
001FFF
0003FF
0000FF
00001F
000003
ENDCHAR
STARTCHAR 003D
ENCODING 61
SWIDTH 580 0
DWIDTH 29 0
BBX 24 18 3 3
BITMAP
FFFFFF
FFFFFF
FFFFFF
FFFFFF
FFFFFF
FFFFFF
000000
000000
000000
000000
000000
000000
FFFFFF
FFFFFF
FFFFFF
FFFFFF
FFFFFF
FFFFFF
ENDCHAR
STARTCHAR 003E
ENCODING 62
SWIDTH 580 0
DWIDTH 29 0
BBX 24 24 2 0
BITMAP
800000
E00000
FC0000
FF8000
FFE000
FFFC00
3FFF80
07FFE0
00FFFC
001FFF
0003FF
0000FF
00001F
0000FF
0007FF
003FFF
01FFFC
0FFFE0
3FFF00
FFFC00
FFE000
FF0000
F80000
E00000
ENDCHAR
STARTCHAR 003F
ENCODING 63
SWIDTH 620 0
DWIDTH 31 0
BBX 25 37 3 0
BITMAP
007F8000
03FFE000
0FFFF800
1FFFFC00
3FFFFE00
3FFFFF00
7FE1FF00
7F807F00
7F007F80
FF003F80
FE003F80
FE003F80
FE003F80
00003F80
00007F80
00007F00
0000FF00
0003FE00
0007FC00
000FF800
000FF000
001FC000
001F8000
003F8000
003F0000
003F0000
003F0000
00000000
00000000
00000000
007F8000
007F8000
007F8000
007F8000
007F8000
007F8000
007F8000
ENDCHAR
STARTCHAR 0040
ENCODING 64
SWIDTH 980 0
DWIDTH 49 0
BBX 47 44 1 -7
BITMAP
00000FFC0000
00007FFFC000
0003FFFFF000
000FFFFFFC00
001FFE1FFF00
007FC001FF80
00FF00007FC0
01FE00001FE0
03F8000007F0
07F0000003F0
07E0000001F8
0FC001E001F8
1F800FF9F0FC
1F003FFDF07C
3F007FFDE07C
3E00FE1FE03C
7E01F80FE03E
7C01F007E03E
7C03E007C03E
FC03E007C03E
F807C007C03E
F807C007803E
F8078007807C
F80F800F807C
F80F800F807C
F80F801F00FC
F80F801F01F8
FC0FC03F01F8
FC0FC07F03F0
7C07E0FF8FE0
7E07FFFFFFC0
7E03FFEFFF80
3F01FFC7FF00
3F807F01FC00
1FC000000000
0FE000000000
07F000000000
03FC00000000
01FF0000C000
00FFF00FE000
007FFFFFE000
001FFFFFE000
0003FFFF8000
00003FF80000
ENDCHAR
STARTCHAR 0041
ENCODING 65
SWIDTH 700 0
DWIDTH 35 0
BBX 33 36 1 0
BITMAP
000FF80000
000FF80000
000FFC0000
001FFC0000
001FFC0000
003FFE0000
003FFE0000
003FFE0000
007FFF0000
007F7F0000
007F7F0000
00FF7F8000
00FE3F8000
00FE3F8000
01FE3FC000
01FC1FC000
01FC1FE000
03FC1FE000
03F80FE000
07F80FF000
07F80FF000
07F007F000
0FF007F800
0FFFFFF800
0FFFFFF800
1FFFFFFC00
1FFFFFFC00
1FFFFFFC00
3FFFFFFE00
3FC001FE00
7F8000FE00
7F8000FF00
7F0000FF00
FF00007F00
FF00007F80
FE00007F80
ENDCHAR
STARTCHAR 0042
ENCODING 66
SWIDTH 700 0
DWIDTH 35 0
BBX 29 36 4 0
BITMAP
FFFFF000
FFFFFE00
FFFFFF80
FFFFFFC0
FFFFFFC0
FFFFFFE0
FF003FF0
FF000FF0
FF0007F0
FF0007F0
FF0007F0
FF0007F0
FF000FE0
FF003FE0
FFFFFFC0
FFFFFF00
FFFFFE00
FFFFFF80
FFFFFFC0
FFFFFFE0
FF001FF0
FF0007F0
FF0003F8
FF0003F8
FF0003F8
FF0003F8
FF0003F8
FF0007F8
FF0007F8
FF003FF0
FFFFFFF0
FFFFFFE0
FFFFFFC0
FFFFFF80
FFFFFF00
FFFFF800
ENDCHAR
STARTCHAR 0043
ENCODING 67
SWIDTH 720 0
DWIDTH 36 0
BBX 32 37 2 0
BITMAP
001FFE00
00FFFFC0
01FFFFE0
03FFFFF0
07FFFFF8
0FFFFFFC
1FFC07FE
3FF003FE
3FE001FF
7FC000FF
7F80007F
7F80007F
7F000000
FF000000
FF000000
FF000000
FF000000
FF000000
FF000000
FF000000
FF000000
FF000000
FF000000
FF000000
7F00007F
7F80007F
7F8000FF
3FC000FF
3FE001FF
1FF003FE
1FFE1FFC
0FFFFFFC
07FFFFF8
03FFFFF0
01FFFFC0
007FFF80
000FF800
ENDCHAR
STARTCHAR 0044
ENCODING 68
SWIDTH 720 0
DWIDTH 36 0
BBX 31 36 4 0
BITMAP
FFFFF000
FFFFFE00
FFFFFF00
FFFFFF80
FFFFFFC0
FFFFFFE0
FF007FF0
FF001FF0
FF000FF8
FF0007F8
FF0003F8
FF0003FC
FF0003FC
FF0001FC
FF0001FC
FF0001FC
FF0001FC
FF0001FE
FF0001FE
FF0001FC
FF0001FC
FF0001FC
FF0001FC
FF0003FC
FF0003FC
FF0003FC
FF0007F8
FF000FF8
FF001FF0
FF007FF0
FFFFFFE0
FFFFFFC0
FFFFFF80
FFFFFF00
FFFFFC00
FFFFE000
ENDCHAR
STARTCHAR 0045
ENCODING 69
SWIDTH 660 0
DWIDTH 33 0
BBX 27 36 4 0
BITMAP
FFFFFFC0
FFFFFFC0
FFFFFFC0
FFFFFFC0
FFFFFFC0
FFFFFFC0
FF000000
FF000000
FF000000
FF000000
FF000000
FF000000
FF000000
FF000000
FFFFFF80
FFFFFF80
FFFFFF80
FFFFFF80
FFFFFF80
FFFFFF80
FF000000
FF000000
FF000000
FF000000
FF000000
FF000000
FF000000
FF000000
FF000000
FF000000
FFFFFFE0
FFFFFFE0
FFFFFFE0
FFFFFFE0
FFFFFFE0
FFFFFFE0
ENDCHAR
STARTCHAR 0046
ENCODING 70
SWIDTH 640 0
DWIDTH 32 0
BBX 26 36 4 0
BITMAP
FFFFFFC0
FFFFFFC0
FFFFFFC0
FFFFFFC0
FFFFFFC0
FFFFFFC0
FF000000
FF000000
FF000000
FF000000
FF000000
FF000000
FF000000
FF000000
FFFFFE00
FFFFFE00
FFFFFE00
FFFFFE00
FFFFFE00
FFFFFE00
FF000000
FF000000
FF000000
FF000000
FF000000
FF000000
FF000000
FF000000
FF000000
FF000000
FF000000
FF000000
FF000000
FF000000
FF000000
FF000000
ENDCHAR
STARTCHAR 0047
ENCODING 71
SWIDTH 760 0
DWIDTH 38 0
BBX 34 37 2 0
BITMAP
001FFF0000
007FFFE000
00FFFFF000
03FFFFFC00
07FFFFFE00
0FFFFFFE00
0FFC03FF00
1FF000FF80
3FE0007F80
3FC0003F80
7F80003F80
7F80000000
7F00000000
7F00000000
FF00000000
FF00000000
FF00000000
FF001FFFC0
FF001FFFC0
FF001FFFC0
FF001FFFC0
FF001FFFC0
FF001FFFC0
FF00001FC0
7F80001FC0
7F80001FC0
7FC0003FC0
3FE0007FC0
3FF000FFC0
1FF801FFC0
0FFF0FFFC0
07FFFFFFC0
07FFFFEFC0
01FFFFC7C0
00FFFF87C0
003FFF07C0
0007F80000
ENDCHAR
STARTCHAR 0048
ENCODING 72
SWIDTH 740 0
DWIDTH 37 0
BBX 30 36 4 0
BITMAP
FF0003FC
FF0003FC
FF0003FC
FF0003FC
FF0003FC
FF0003FC
FF0003FC
FF0003FC
FF0003FC
FF0003FC
FF0003FC
FF0003FC
FF0003FC
FF0003FC
FFFFFFFC
FFFFFFFC
FFFFFFFC
FFFFFFFC
FFFFFFFC
FFFFFFFC
FF0003FC
FF0003FC
FF0003FC
FF0003FC
FF0003FC
FF0003FC
FF0003FC
FF0003FC
FF0003FC
FF0003FC
FF0003FC
FF0003FC
FF0003FC
FF0003FC
FF0003FC
FF0003FC
ENDCHAR
STARTCHAR 0049
ENCODING 73
SWIDTH 300 0
DWIDTH 15 0
BBX 8 36 4 0
BITMAP
FF
FF
FF
FF
FF
FF
FF
FF
FF
FF
FF
FF
FF
FF
FF
FF
FF
FF
FF
FF
FF
FF
FF
FF
FF
FF
FF
FF
FF
FF
FF
FF
FF
FF
FF
FF
ENDCHAR
STARTCHAR 004A
ENCODING 74
SWIDTH 580 0
DWIDTH 29 0
BBX 23 37 2 -1
BITMAP
0001FE
0001FE
0001FE
0001FE
0001FE
0001FE
0001FE
0001FE
0001FE
0001FE
0001FE
0001FE
0001FE
0001FE
0001FE
0001FE
0001FE
0001FE
0001FE
0001FE
0001FE
0001FE
0001FE
FF01FE
FF01FE
FF01FE
FF01FE
FF01FE
FF01FC
FF03FC
7FCFFC
7FFFFC
3FFFF8
3FFFF0
1FFFE0
07FFC0
01FE00
ENDCHAR
STARTCHAR 004B
ENCODING 75
SWIDTH 720 0
DWIDTH 36 0
BBX 32 36 4 0
BITMAP
FF0007FC
FF000FF8
FF000FF0
FF001FE0
FF003FC0
FF007F80
FF00FF80
FF01FF00
FF03FE00
FF07FC00
FF0FF800
FF1FF000
FF1FE000
FF3FC000
FF7F8000
FFFF0000
FFFF8000
FFFFC000
FFFFC000
FFFFE000
FFEFF000
FFCFF800
FF87FC00
FF03FC00
FF01FE00
FF01FF00
FF00FF80
FF007FC0
FF003FC0
FF003FE0
FF001FF0
FF000FF8
FF0007F8
FF0007FC
FF0003FE
FF0001FF
ENDCHAR
STARTCHAR 004C
ENCODING 76
SWIDTH 620 0
DWIDTH 31 0
BBX 25 36 4 0
BITMAP
FF000000
FF000000
FF000000
FF000000
FF000000
FF000000
FF000000
FF000000
FF000000
FF000000
FF000000
FF000000
FF000000
FF000000
FF000000
FF000000
FF000000
FF000000
FF000000
FF000000
FF000000
FF000000
FF000000
FF000000
FF000000
FF000000
FF000000
FF000000
FF000000
FF000000
FFFFFF80
FFFFFF80
FFFFFF80
FFFFFF80
FFFFFF80
FFFFFF80
ENDCHAR
STARTCHAR 004D
ENCODING 77
SWIDTH 860 0
DWIDTH 43 0
BBX 36 36 4 0
BITMAP
FFF000FFF0
FFF000FFF0
FFF000FFF0
FFF001FFF0
FFF001FFF0
FFF801FFF0
FFF801FFF0
FFF801FFF0
FFF803FFF0
FFFC03FFF0
FFFC03EFF0
FFFC03EFF0
FF7C07EFF0
FF7C07EFF0
FF7E07CFF0
FF7E07CFF0
FF3E07CFF0
FF3E0FCFF0
FF3F0FCFF0
FF3F0F8FF0
FF3F0F8FF0
FF1F1F8FF0
FF1F9F8FF0
FF1F9F0FF0
FF1F9F0FF0
FF0F9F0FF0
FF0FBF0FF0
FF0FFE0FF0
FF0FFE0FF0
FF07FE0FF0
FF07FE0FF0
FF07FE0FF0
FF07FC0FF0
FF07FC0FF0
FF03FC0FF0
FF03FC0FF0
ENDCHAR
STARTCHAR 004E
ENCODING 78
SWIDTH 760 0
DWIDTH 38 0
BBX 30 36 4 0
BITMAP
FF0003FC
FF8003FC
FF8003FC
FFC003FC
FFC003FC
FFE003FC
FFF003FC
FFF003FC
FFF803FC
FFF803FC
FFFC03FC
FFFC03FC
FFFE03FC
FF7F03FC
FF3F03FC
FF3F83FC
FF1F83FC
FF1FC3FC
FF0FE3FC
FF0FE3FC
FF07F3FC
FF03F3FC
FF03FBFC
FF01FBFC
FF01FFFC
FF00FFFC
FF00FFFC
FF007FFC
FF003FFC
FF003FFC
FF001FFC
FF001FFC
FF000FFC
FF0007FC
FF0007FC
FF0003FC
ENDCHAR
STARTCHAR 004F
ENCODING 79
SWIDTH 780 0
DWIDTH 39 0
BBX 36 37 2 0
BITMAP
001FFF0000
007FFFC000
01FFFFF000
03FFFFF800
07FFFFFC00
0FFFFFFE00
1FFC07FF00
1FF001FF80
3FE000FF80
3FC0007FC0
7F80003FC0
7F80001FE0
7F00001FE0
FF00001FE0
FF00000FE0
FF00000FE0
FF00000FE0
FF00000FF0
FF00000FF0
FF00000FF0
FF00000FE0
FF00000FE0
FF00000FE0
7F00001FE0
7F80001FE0
7F80003FC0
7FC0003FC0
3FE0007FC0
3FF000FF80
1FF801FF00
0FFF1FFF00
07FFFFFE00
03FFFFFC00
01FFFFF800
00FFFFE000
003FFF8000
0007FC0000
ENDCHAR
STARTCHAR 0050
ENCODING 80
SWIDTH 680 0
DWIDTH 34 0
BBX 28 36 4 0
BITMAP
FFFFF000
FFFFFE00
FFFFFF00
FFFFFF80
FFFFFFC0
FFFFFFC0
FF00FFE0
FF001FE0
FF001FE0
FF000FE0
FF000FF0
FF000FF0
FF000FF0
FF000FE0
FF001FE0
FF001FE0
FF007FE0
FFFFFFC0
FFFFFFC0
FFFFFF80
FFFFFF00
FFFFFE00
FFFFF800
FF000000
FF000000
FF000000
FF000000
FF000000
FF000000
FF000000
FF000000
FF000000
FF000000
FF000000
FF000000
FF000000
ENDCHAR
STARTCHAR 0051
ENCODING 81
SWIDTH 780 0
DWIDTH 39 0
BBX 36 38 2 -2
BITMAP
001FFF0000
007FFFC000
00FFFFF000
03FFFFF800
07FFFFFC00
0FFFFFFE00
1FFC07FF00
1FF001FF80
3FE0007F80
3FC0007FC0
7F80003FC0
7F80001FE0
7F00001FE0
FF00001FE0
FF00000FE0
FF00000FE0
FF00000FE0
FF00000FF0
FF00000FF0
FF00000FF0
FF00000FE0
FF00000FE0
FF00000FE0
7F00071FE0
7F800F9FE0
7F801FDFC0
3FC01FFFC0
3FE00FFFC0
3FF007FF80
1FF803FF00
0FFF1FFF00
07FFFFFF00
03FFFFFF80
01FFFFFFC0
00FFFFFFF0
003FFF8FE0
0007FC03C0
0000000180
ENDCHAR
STARTCHAR 0052
ENCODING 82
SWIDTH 720 0
DWIDTH 36 0
BBX 31 36 4 0
BITMAP
FFFFFE00
FFFFFF80
FFFFFFE0
FFFFFFF0
FFFFFFF0
FFFFFFF8
FF001FF8
FF0007F8
FF0003F8
FF0003FC
FF0003FC
FF0003F8
FF0003F8
FF0003F8
FF0007F8
FF000FF0
FFFFFFE0
FFFFFFC0
FFFFFF80
FFFFFF00
FFFFFFC0
FFFFFFE0
FF003FF0
FF000FF0
FF0007F0
FF0007F0
FF0007F0
FF0007F0
FF0007F0
FF0007F0
FF0007F8
FF0007F8
FF0007F8
FF0007F8
FF0007FC
FF0003FE
ENDCHAR
STARTCHAR 0053
ENCODING 83
SWIDTH 680 0
DWIDTH 34 0
BBX 30 37 2 0
BITMAP
00FFFC00
03FFFF00
0FFFFFC0
1FFFFFE0
1FFFFFE0
3FFDFFF0
3FC00FF0
7F8007F8
7F0007F8
7F0003F8
7F000000
7F000000
7F800000
7FF00000
3FFF0000
3FFFF800
1FFFFF00
0FFFFFC0
03FFFFF0
007FFFF0
0003FFF8
00003FF8
000007FC
000003FC
000001FC
FF0001FC
FF0001FC
7F0001FC
7F8003FC
7FC007F8
3FF00FF8
3FFFFFF0
1FFFFFF0
0FFFFFE0
07FFFF80
01FFFF00
003FF000
ENDCHAR
STARTCHAR 0054
ENCODING 84
SWIDTH 640 0
DWIDTH 32 0
BBX 29 36 2 0
BITMAP
FFFFFFF8
FFFFFFF8
FFFFFFF8
FFFFFFF8
FFFFFFF8
FFFFFFF8
001FE000
001FE000
001FE000
001FE000
001FE000
001FE000
001FE000
001FE000
001FE000
001FE000
001FE000
001FE000
001FE000
001FE000
001FE000
001FE000
001FE000
001FE000
001FE000
001FE000
001FE000
001FE000
001FE000
001FE000
001FE000
001FE000
001FE000
001FE000
001FE000
001FE000
ENDCHAR
STARTCHAR 0055
ENCODING 85
SWIDTH 740 0
DWIDTH 37 0
BBX 29 37 4 -1
BITMAP
FF0007F8
FF0007F8
FF0007F8
FF0007F8
FF0007F8
FF0007F8
FF0007F8
FF0007F8
FF0007F8
FF0007F8
FF0007F8
FF0007F8
FF0007F8
FF0007F8
FF0007F8
FF0007F8
FF0007F8
FF0007F8
FF0007F8
FF0007F8
FF0007F8
FF0007F8
FF0007F8
FF0007F8
FF0007F8
FF0007F8
FF0007F0
FF000FF0
7F800FF0
7FC01FF0
7FF9FFE0
3FFFFFE0
1FFFFFC0
0FFFFF80
07FFFF00
01FFFC00
003FE000
ENDCHAR
STARTCHAR 0056
ENCODING 86
SWIDTH 660 0
DWIDTH 33 0
BBX 31 36 1 0
BITMAP
FF0001FE
7F0001FE
7F0001FC
7F8001FC
3F8003FC
3F8003F8
3F8003F8
1FC007F8
1FC007F0
1FC007F0
0FE00FF0
0FE00FE0
0FE00FE0
07F00FC0
07F01FC0
07F01FC0
03F01F80
03F83F80
03F83F80
01F83F00
01FC3F00
01FC7F00
00FC7E00
00FE7E00
00FEFE00
007EFC00
007EFC00
007FFC00
003FF800
003FF800
003FF800
001FF000
001FF000
001FF000
000FE000
000FE000
ENDCHAR
STARTCHAR 0057
ENCODING 87
SWIDTH 960 0
DWIDTH 48 0
BBX 46 36 1 0
BITMAP
FF001FE003FC
7F001FE003F8
7F801FE007F8
7F801FE007F8
7F803FF007F8
3F803FF007F0
3F803FF007F0
3FC03FF00FF0
1FC07FF00FF0
1FC07FF80FE0
1FC07CF80FE0
1FC07CF80FE0
0FE07CF81FC0
0FE0FCFC1FC0
0FE0FCFC1FC0
07E0F87C1FC0
07F0F87C1F80
07F0F87C3F80
07F1F87E3F80
03F1F83E3F00
03F1F03E3F00
03F9F03E3F00
01F9F03F7F00
01FBF03F7E00
01FBF01F7E00
01FBE01F7E00
00FFE01F7C00
00FFE01FFC00
00FFE01FFC00
007FE00FFC00
007FC00FF800
007FC00FF800
007FC00FF800
003FC007F000
003F8007F000
003F8007F000
ENDCHAR
STARTCHAR 0058
ENCODING 88
SWIDTH 680 0
DWIDTH 34 0
BBX 31 36 1 0
BITMAP
7FC003FE
7FC003FC
3FE007FC
1FE007F8
1FF00FF0
0FF01FF0
07F81FE0
07F83FC0
03FC3FC0
03FE7F80
01FE7F80
00FFFF00
00FFFE00
007FFE00
007FFC00
003FF800
001FF800
001FF000
001FF800
001FF800
003FFC00
007FFC00
007FFE00
00FFFF00
01FEFF00
01FE7F80
03FC7FC0
07FC3FC0
07F81FE0
0FF01FF0
0FF00FF0
1FE00FF8
3FE007F8
3FC007FC
7FC003FE
FF8003FE
ENDCHAR
STARTCHAR 0059
ENCODING 89
SWIDTH 640 0
DWIDTH 32 0
BBX 31 36 1 0
BITMAP
FF0003FE
7F8003FC
7F8003FC
3FC007F8
3FC007F8
1FE00FF0
1FE00FF0
0FF01FE0
0FF01FE0
07F81FC0
03F83FC0
03FC3F80
01FC7F80
01FE7F00
00FEFF00
00FFFE00
007FFE00
007FFC00
003FFC00
003FF800
001FF800
001FF000
000FF000
000FF000
000FF000
000FF000
000FF000
000FF000
000FF000
000FF000
000FF000
000FF000
000FF000
000FF000
000FF000
000FF000
ENDCHAR
STARTCHAR 005A
ENCODING 90
SWIDTH 600 0
DWIDTH 30 0
BBX 27 36 2 0
BITMAP
FFFFFFE0
FFFFFFE0
FFFFFFE0
FFFFFFE0
FFFFFFE0
FFFFFFE0
00003FE0
00007FC0
0000FF80
0000FF00
0001FF00
0003FE00
0007FC00
000FF800
000FF000
001FF000
003FE000
007FC000
00FF8000
00FF0000
01FF0000
03FE0000
07FC0000
0FF80000
0FF00000
1FF00000
3FE00000
7FC00000
FF800000
FF800000
FFFFFFE0
FFFFFFE0
FFFFFFE0
FFFFFFE0
FFFFFFE0
FFFFFFE0
ENDCHAR
STARTCHAR 005B
ENCODING 91
SWIDTH 340 0
DWIDTH 17 0
BBX 12 46 3 -10
BITMAP
FFF0
FFF0
FFF0
FFF0
FFF0
FE00
FE00
FE00
FE00
FE00
FE00
FE00
FE00
FE00
FE00
FE00
FE00
FE00
FE00
FE00
FE00
FE00
FE00
FE00
FE00
FE00
FE00
FE00
FE00
FE00
FE00
FE00
FE00
FE00
FE00
FE00
FE00
FE00
FE00
FE00
FE00
FFF0
FFF0
FFF0
FFF0
FFF0
ENDCHAR
STARTCHAR 005C
ENCODING 92
SWIDTH 280 0
DWIDTH 14 0
BBX 15 36 -1 0
BITMAP
F000
F000
7000
7000
7800
3800
3800
3C00
1C00
1C00
1E00
0E00
0E00
0F00
0700
0700
0780
0380
0380
03C0
01C0
01C0
01E0
00E0
00E0
00F0
00F0
0070
0070
0078
0038
0038
003C
001C
001C
001E
ENDCHAR
STARTCHAR 005D
ENCODING 93
SWIDTH 340 0
DWIDTH 17 0
BBX 12 46 1 -10
BITMAP
FFF0
FFF0
FFF0
FFF0
FFF0
07F0
07F0
07F0
07F0
07F0
07F0
07F0
07F0
07F0
07F0
07F0
07F0
07F0
07F0
07F0
07F0
07F0
07F0
07F0
07F0
07F0
07F0
07F0
07F0
07F0
07F0
07F0
07F0
07F0
07F0
07F0
07F0
07F0
07F0
07F0
07F0
FFF0
FFF0
FFF0
FFF0
FFF0
ENDCHAR
STARTCHAR 005E
ENCODING 94
SWIDTH 580 0
DWIDTH 29 0
BBX 23 21 3 14
BITMAP
00FE00
00FE00
01FE00
01FF00
01FF00
03FF80
03FF80
07EF80
07EFC0
07C7C0
0FC7E0
0FC7E0
0F83E0
1F83F0
1F01F0
3F01F8
3F01F8
3E00F8
7E00FC
7C007C
FC007E
ENDCHAR
STARTCHAR 005F
ENCODING 95
SWIDTH 560 0
DWIDTH 28 0
BBX 30 4 -1 -10
BITMAP
FFFFFFFC
FFFFFFFC
FFFFFFFC
FFFFFFFC
ENDCHAR
STARTCHAR 0060
ENCODING 96
SWIDTH 240 0
DWIDTH 12 0
BBX 10 8 1 30
BITMAP
FC00
7E00
3E00
1F00
1F00
0F80
0780
03C0
ENDCHAR
STARTCHAR 0061
ENCODING 97
SWIDTH 560 0
DWIDTH 28 0
BBX 25 28 2 0
BITMAP
03FFC000
0FFFF000
1FFFF800
3FFFFC00
7FFFFC00
7FC3FE00
7F00FE00
7F00FE00
0000FE00
0001FE00
0007FE00
00FFFE00
0FFFFE00
1FFFFE00
3FFEFE00
7FE0FE00
7F00FE00
FE00FE00
FE00FE00
FE01FE00
FE01FE00
FF03FE00
FFFFFE00
7FFFFE00
7FFFFE00
3FFEFF00
1FF87F80
07E00000
ENDCHAR
STARTCHAR 0062
ENCODING 98
SWIDTH 620 0
DWIDTH 31 0
BBX 26 37 3 -1
BITMAP
FE000000
FE000000
FE000000
FE000000
FE000000
FE000000
FE000000
FE000000
FE000000
FE3FE000
FE7FF800
FEFFFC00
FFFFFE00
FFFFFE00
FFF3FF00
FFC0FF80
FF807F80
FF003F80
FF003FC0
FE001FC0
FE001FC0
FE001FC0
FE001FC0
FE001FC0
FE001FC0
FE001FC0
FF003FC0
FF003F80
FF003F80
FF807F80
FFE1FF00
FFFFFF00
FFFFFE00
FFFFFC00
FEFFF800
FE7FF000
001FC000
ENDCHAR
STARTCHAR 0063
ENCODING 99
SWIDTH 560 0
DWIDTH 28 0
BBX 24 28 2 0
BITMAP
01FFC0
07FFF0
0FFFF8
1FFFFC
3FFFFE
3FE1FF
7F80FF
7F007F
7F003F
FF0000
FE0000
FE0000
FE0000
FE0000
FE0000
FE0000
FE0000
FE0000
FF003F
7F007F
7F807F
7FC0FF
3FFFFE
1FFFFE
0FFFFC
07FFF8
03FFE0
007F80
ENDCHAR
STARTCHAR 0064
ENCODING 100
SWIDTH 620 0
DWIDTH 31 0
BBX 26 37 2 -1
BITMAP
00001FC0
00001FC0
00001FC0
00001FC0
00001FC0
00001FC0
00001FC0
00001FC0
00001FC0
01FF1FC0
07FF9FC0
0FFFDFC0
1FFFFFC0
1FFFFFC0
3FF3FFC0
7FC0FFC0
7F807FC0
7F003FC0
FF003FC0
FE001FC0
FE001FC0
FE001FC0
FE001FC0
FE001FC0
FE001FC0
FE001FC0
FF003FC0
7F003FC0
7F803FC0
7F807FC0
3FE1FFC0
3FFFFFC0
1FFFFFC0
0FFFFFC0
07FFDFC0
03FF9FC0
00FE0000
ENDCHAR
STARTCHAR 0065
ENCODING 101
SWIDTH 580 0
DWIDTH 29 0
BBX 25 28 2 0
BITMAP
01FFC000
07FFE000
0FFFF800
1FFFFC00
1FFFFC00
3FC1FE00
7F80FE00
7F007F00
7F007F00
7E003F00
FE003F80
FFFFFF80
FFFFFF80
FFFFFF80
FFFFFF80
FFFFFF80
FE000000
FE000000
FE000000
7F000000
7F003F80
7F807F00
3FE1FF00
1FFFFE00
1FFFFC00
0FFFF800
03FFE000
00FF0000
ENDCHAR
STARTCHAR 0066
ENCODING 102
SWIDTH 340 0
DWIDTH 17 0
BBX 14 36 2 0
BITMAP
01FC
07FC
0FFC
1FFC
1FFC
1FE0
1FC0
1FC0
1FC0
FFFC
FFFC
FFFC
FFFC
FFFC
1FC0
1FC0
1FC0
1FC0
1FC0
1FC0
1FC0
1FC0
1FC0
1FC0
1FC0
1FC0
1FC0
1FC0
1FC0
1FC0
1FC0
1FC0
1FC0
1FC0
1FC0
1FC0
ENDCHAR
STARTCHAR 0067
ENCODING 103
SWIDTH 620 0
DWIDTH 31 0
BBX 26 37 2 -9
BITMAP
01FE1FC0
07FF9FC0
0FFFDFC0
1FFFFFC0
1FFFFFC0
3FF3FFC0
7FC0FFC0
7F807FC0
7F003FC0
FF003FC0
FE001FC0
FE001FC0
FE001FC0
FE001FC0
FE001FC0
FE001FC0
FE001FC0
FF001FC0
FF003FC0
7F003FC0
7F807FC0
7FC1FFC0
3FFFFFC0
1FFFFFC0
1FFFFFC0
0FFFDFC0
03FF1FC0
00FC1FC0
00001FC0
00001FC0
7F003FC0
7F807F80
7FC0FF80
3FFFFF00
1FFFFE00
0FFFFC00
03FFE000
ENDCHAR
STARTCHAR 0068
ENCODING 104
SWIDTH 600 0
DWIDTH 30 0
BBX 24 36 3 0
BITMAP
FE0000
FE0000
FE0000
FE0000
FE0000
FE0000
FE0000
FE0000
FE0000
FE1FF0
FE7FF8
FEFFFC
FFFFFE
FFFFFE
FFF7FF
FF80FF
FF00FF
FF007F
FE007F
FE007F
FE007F
FE007F
FE007F
FE007F
FE007F
FE007F
FE007F
FE007F
FE007F
FE007F
FE007F
FE007F
FE007F
FE007F
FE007F
FE007F
ENDCHAR
STARTCHAR 0069
ENCODING 105
SWIDTH 280 0
DWIDTH 14 0
BBX 7 36 4 0
BITMAP
FE
FE
FE
FE
FE
FE
00
00
00
FE
FE
FE
FE
FE
FE
FE
FE
FE
FE
FE
FE
FE
FE
FE
FE
FE
FE
FE
FE
FE
FE
FE
FE
FE
FE
FE
ENDCHAR
STARTCHAR 006A
ENCODING 106
SWIDTH 280 0
DWIDTH 14 0
BBX 10 46 1 -10
BITMAP
1FC0
1FC0
1FC0
1FC0
1FC0
1FC0
0000
0000
0000
1FC0
1FC0
1FC0
1FC0
1FC0
1FC0
1FC0
1FC0
1FC0
1FC0
1FC0
1FC0
1FC0
1FC0
1FC0
1FC0
1FC0
1FC0
1FC0
1FC0
1FC0
1FC0
1FC0
1FC0
1FC0
1FC0
1FC0
1FC0
1FC0
1FC0
1FC0
3FC0
FFC0
FFC0
FFC0
FF80
FF00
ENDCHAR
STARTCHAR 006B
ENCODING 107
SWIDTH 560 0
DWIDTH 28 0
BBX 24 36 3 0
BITMAP
FE0000
FE0000
FE0000
FE0000
FE0000
FE0000
FE0000
FE0000
FE0000
FE01FE
FE01FE
FE03FC
FE07F8
FE0FF0
FE1FE0
FE3FC0
FE3F80
FE7F00
FEFE00
FFFE00
FFFE00
FFFF00
FFFF80
FFFF80
FFBFC0
FF9FC0
FF1FE0
FE0FF0
FE0FF0
FE07F8
FE07F8
FE03FC
FE03FC
FE01FE
FE01FF
FE00FF
ENDCHAR
STARTCHAR 006C
ENCODING 108
SWIDTH 280 0
DWIDTH 14 0
BBX 7 36 3 0
BITMAP
FE
FE
FE
FE
FE
FE
FE
FE
FE
FE
FE
FE
FE
FE
FE
FE
FE
FE
FE
FE
FE
FE
FE
FE
FE
FE
FE
FE
FE
FE
FE
FE
FE
FE
FE
FE
ENDCHAR
STARTCHAR 006D
ENCODING 109
SWIDTH 900 0
DWIDTH 45 0
BBX 38 27 3 1
BITMAP
FE3FE07FC0
FE7FF8FFF0
FEFFF9FFF0
FFFFFFFFF8
FFFFFFFFFC
FFF7FFEFFC
FF81FF83FC
FF00FF01FC
FE00FE01FC
FE00FE01FC
FE00FE01FC
FE00FE01FC
FE00FE01FC
FE00FE01FC
FE00FE01FC
FE00FE01FC
FE00FE01FC
FE00FE01FC
FE00FE01FC
FE00FE01FC
FE00FE01FC
FE00FE01FC
FE00FE01FC
FE00FE01FC
FE00FE01FC
FE00FE01FC
FE00FE01FC
ENDCHAR
STARTCHAR 006E
ENCODING 110
SWIDTH 620 0
DWIDTH 31 0
BBX 24 27 3 1
BITMAP
FE1FF0
FE7FF8
FEFFFC
FFFFFE
FFFFFE
FFF7FF
FF80FF
FF00FF
FE007F
FE007F
FE007F
FE007F
FE007F
FE007F
FE007F
FE007F
FE007F
FE007F
FE007F
FE007F
FE007F
FE007F
FE007F
FE007F
FE007F
FE007F
FE007F
ENDCHAR
STARTCHAR 006F
ENCODING 111
SWIDTH 620 0
DWIDTH 31 0
BBX 27 28 2 0
BITMAP
00FFE000
03FFF800
0FFFFE00
1FFFFF00
1FFFFF00
3FF1FF80
7FC07FC0
7F803FC0
7F001FC0
FF001FE0
FE000FE0
FE000FE0
FE000FE0
FE000FE0
FE000FE0
FE000FE0
FE000FE0
FF001FE0
7F001FE0
7F803FC0
7F803FC0
3FE0FF80
3FFFFF80
1FFFFF00
0FFFFE00
07FFFC00
01FFF000
007FC000
ENDCHAR
STARTCHAR 0070
ENCODING 112
SWIDTH 620 0
DWIDTH 31 0
BBX 26 37 3 -9
BITMAP
FE3FE000
FE7FF800
FEFFFC00
FFFFFE00
FFFFFE00
FFF3FF00
FFC0FF80
FF807F80
FF003F80
FF003FC0
FE001FC0
FE001FC0
FE001FC0
FE001FC0
FE001FC0
FE001FC0
FE001FC0
FF003FC0
FF003F80
FF003F80
FF807F80
FFE1FF00
FFFFFF00
FFFFFE00
FEFFFC00
FEFFF800
FE3FF000
FE0FC000
FE000000
FE000000
FE000000
FE000000
FE000000
FE000000
FE000000
FE000000
FE000000
ENDCHAR
STARTCHAR 0071
ENCODING 113
SWIDTH 620 0
DWIDTH 31 0
BBX 26 37 2 -9
BITMAP
01FF1FC0
07FF9FC0
0FFFDFC0
1FFFFFC0
1FFFFFC0
3FF3FFC0
7FC0FFC0
7F807FC0
7F003FC0
FF003FC0
FE001FC0
FE001FC0
FE001FC0
FE001FC0
FE001FC0
FE001FC0
FE001FC0
FF003FC0
7F003FC0
7F003FC0
7F807FC0
3FE1FFC0
3FFFFFC0
1FFFFFC0
0FFFDFC0
07FFDFC0
03FF1FC0
00FE1FC0
00001FC0
00001FC0
00001FC0
00001FC0
00001FC0
00001FC0
00001FC0
00001FC0
00001FC0
ENDCHAR
STARTCHAR 0072
ENCODING 114
SWIDTH 400 0
DWIDTH 20 0
BBX 15 27 3 1
BITMAP
FE1E
FE7E
FEFE
FEFE
FFFE
FFFE
FFC0
FF80
FF00
FE00
FE00
FE00
FE00
FE00
FE00
FE00
FE00
FE00
FE00
FE00
FE00
FE00
FE00
FE00
FE00
FE00
FE00
ENDCHAR
STARTCHAR 0073
ENCODING 115
SWIDTH 560 0
DWIDTH 28 0
BBX 25 28 1 0
BITMAP
03FFE000
07FFF800
1FFFFC00
3FFFFE00
3FFFFE00
7F80FF00
7F007F00
7F007F00
7F800000
7FE00000
7FFC0000
3FFFC000
3FFFF800
1FFFFE00
07FFFF00
00FFFF00
001FFF80
0001FF80
00007F80
00003F80
FE003F80
FF007F80
7FC1FF00
7FFFFF00
3FFFFE00
1FFFFC00
0FFFF000
00FFC000
ENDCHAR
STARTCHAR 0074
ENCODING 116
SWIDTH 340 0
DWIDTH 17 0
BBX 13 35 2 -1
BITMAP
1FC0
1FC0
1FC0
1FC0
1FC0
1FC0
1FC0
FFF8
FFF8
FFF8
FFF8
FFF8
1FC0
1FC0
1FC0
1FC0
1FC0
1FC0
1FC0
1FC0
1FC0
1FC0
1FC0
1FC0
1FC0
1FC0
1FC0
1FC0
1FC0
1FE0
1FF8
1FF8
0FF8
07F8
01F8
ENDCHAR
STARTCHAR 0075
ENCODING 117
SWIDTH 620 0
DWIDTH 31 0
BBX 24 28 3 -1
BITMAP
FE007F
FE007F
FE007F
FE007F
FE007F
FE007F
FE007F
FE007F
FE007F
FE007F
FE007F
FE007F
FE007F
FE007F
FE007F
FE007F
FE007F
FE007F
FE007F
FE00FF
FF00FF
FF83FF
7FFFFF
7FFFFF
7FFF7F
3FFF7F
1FFC7F
03F000
ENDCHAR
STARTCHAR 0076
ENCODING 118
SWIDTH 540 0
DWIDTH 27 0
BBX 25 27 1 0
BITMAP
FE003F80
FE003F80
FF007F80
7F007F00
7F007F00
7F807F00
3F80FE00
3F80FE00
3F80FE00
1FC0FC00
1FC1FC00
0FC1FC00
0FE1F800
0FE3F800
07E3F800
07E3F000
07F3F000
03F7F000
03F7E000
03FFE000
01FFE000
01FFC000
01FFC000
00FFC000
00FF8000
00FF8000
007F0000
ENDCHAR
STARTCHAR 0077
ENCODING 119
SWIDTH 780 0
DWIDTH 39 0
BBX 37 27 1 0
BITMAP
FE01FC03F8
FE01FC03F8
FE01FE03F8
FF03FE07F8
7F03FE07F0
7F03FE07F0
7F03FE07F0
3F03FF07E0
3F87DF0FE0
3F87DF0FE0
3F87DF0FE0
1F87DF8FC0
1FCFCF8FC0
1FCF8F9FC0
0FCF8F9F80
0FCF8F9F80
0FCF8FDF80
0FFF07FF80
07FF07FF00
07FF07FF00
07FF07FF00
03FF07FE00
03FE03FE00
03FE03FE00
03FE03FE00
01FE03FC00
01FC01FC00
ENDCHAR
STARTCHAR 0078
ENCODING 120
SWIDTH 540 0
DWIDTH 27 0
BBX 25 27 1 0
BITMAP
FF807F80
7F80FF80
3FC0FF00
3FC1FE00
1FE1FE00
0FE3FC00
0FF3F800
07F7F800
03FFF000
03FFE000
01FFE000
00FFC000
00FF8000
007F8000
00FF8000
01FFC000
01FFE000
03FFE000
07FFF000
07F7F800
0FF3F800
1FE3FC00
1FE1FE00
3FC1FE00
7FC0FF00
7F80FF80
FF007F80
ENDCHAR
STARTCHAR 0079
ENCODING 121
SWIDTH 540 0
DWIDTH 27 0
BBX 26 37 1 -10
BITMAP
FE001FC0
FF003F80
FF003F80
7F003F80
7F807F00
3F807F00
3F807F00
3FC07E00
1FC0FE00
1FC0FE00
1FC0FC00
0FE1FC00
0FE1FC00
0FE1F800
07F1F800
07F3F000
03F3F000
03FBF000
03FFE000
01FFE000
01FFE000
01FFC000
00FFC000
00FFC000
00FF8000
007F8000
007F8000
003F0000
007F0000
007F0000
007E0000
00FE0000
1FFE0000
1FFC0000
1FFC0000
1FF80000
1FE00000
ENDCHAR
STARTCHAR 007A
ENCODING 122
SWIDTH 500 0
DWIDTH 25 0
BBX 22 27 2 0
BITMAP
FFFFF8
FFFFF8
FFFFF8
FFFFF8
FFFFF8
FFFFF8
000FF8
001FF0
003FE0
003FC0
007F80
00FF80
01FF00
03FE00
07FC00
0FF800
0FF000
1FE000
3FE000
7FC000
FF8000
FFFFFC
FFFFFC
FFFFFC
FFFFFC
FFFFFC
FFFFFC
ENDCHAR
STARTCHAR 007B
ENCODING 123
SWIDTH 380 0
DWIDTH 19 0
BBX 14 46 2 -10
BITMAP
00FC
03FC
07FC
07FC
0FFC
0FE0
0FC0
0FC0
0FC0
0FC0
0FC0
0FC0
0FC0
0FC0
0FC0
0FC0
0FC0
0FC0
0FC0
1FC0
FF80
FF80
FC00
FF00
FF80
1F80
0FC0
0FC0
0FC0
0FC0
0FC0
0FC0
0FC0
0FC0
0FC0
0FC0
0FC0
0FC0
0FC0
0FC0
0FE0
0FFC
07FC
07FC
03FC
00FC
ENDCHAR
STARTCHAR 007C
ENCODING 124
SWIDTH 280 0
DWIDTH 14 0
BBX 4 46 5 -10
BITMAP
F0
F0
F0
F0
F0
F0
F0
F0
F0
F0
F0
F0
F0
F0
F0
F0
F0
F0
F0
F0
F0
F0
F0
F0
F0
F0
F0
F0
F0
F0
F0
F0
F0
F0
F0
F0
F0
F0
F0
F0
F0
F0
F0
F0
F0
F0
ENDCHAR
STARTCHAR 007D
ENCODING 125
SWIDTH 380 0
DWIDTH 19 0
BBX 14 46 4 -10
BITMAP
FC00
FF00
FF00
FF80
FF80
1FC0
0FC0
0FC0
0FC0
0FC0
0FC0
0FC0
0FC0
0FC0
0FC0
0FC0
0FC0
0FC0
0FC0
0FC0
07FC
07FC
00FC
03FC
07FC
0FE0
0FC0
0FC0
0FC0
0FC0
0FC0
0FC0
0FC0
0FC0
0FC0
0FC0
0FC0
0FC0
0FC0
0FC0
1FC0
FF80
FF80
FF00
FF00
FC00
ENDCHAR
STARTCHAR 007E
ENCODING 126
SWIDTH 500 0
DWIDTH 25 0
BBX 23 9 1 7
BITMAP
0F8000
3FE000
7FF01E
7FF81E
F8FE3E
F07FFC
F01FFC
000FF8
0003E0
ENDCHAR
STARTCHAR 00A0
ENCODING 160
SWIDTH 280 0
DWIDTH 14 0
BBX 0 0 0 0
BITMAP
ENDCHAR
STARTCHAR 00A1
ENCODING 161
SWIDTH 340 0
DWIDTH 17 0
BBX 7 37 3 -10
BITMAP
FE
FE
FE
FE
FE
FE
FE
00
00
00
38
38
3C
3C
7C
7C
7C
7C
7C
7E
7E
FE
FE
FE
FE
FE
FE
FE
FE
FE
FE
FE
FE
FE
FE
FE
FE
ENDCHAR
STARTCHAR 00A2
ENCODING 162
SWIDTH 560 0
DWIDTH 28 0
BBX 24 38 2 -6
BITMAP
001800
001800
001800
001800
001800
01FFC0
07FFE0
0FFFF8
1FFFFC
3FFFFC
3FFBFE
7F98FE
7F18FF
7F187F
FF187F
FE1800
FE1800
FE1800
FE1800
FE1800
FE1800
FE1800
FE1800
FF187F
7F18FF
7F98FE
7F99FE
3FFFFE
1FFFFC
1FFFF8
0FFFF0
03FFE0
00FF80
001800
001800
001800
001800
001800
ENDCHAR
STARTCHAR 00A3
ENCODING 163
SWIDTH 560 0
DWIDTH 28 0
BBX 26 37 1 0
BITMAP
00FFE000
03FFF800
0FFFFC00
1FFFFE00
1FFFFE00
3FE1FF00
3FC07F00
7F807F00
7F003F80
7F003F80
7F003F80
7F000000
7F800000
3F800000
3FC00000
1FC00000
1FE00000
FFFFC000
FFFFC000
FFFFC000
07F80000
03F80000
03F80000
03F80000
03F80000
03F00000
03F00000
07E00000
0FC00000
0F800100
3F7F0F00
7FFFFF00
7FFFFF80
7FFFFF80
3FFFFFC0
1FFFFF00
1001FC00
ENDCHAR
STARTCHAR 00A4
ENCODING 164
SWIDTH 560 0
DWIDTH 28 0
BBX 24 25 2 6
BITMAP
30000C
78001E
FCFF3F
FFFFFF
7FFFFE
3FFFFC
1FFFF8
1FC3F8
1F01F8
3F00F8
3E007C
3E007C
3E007C
3E007C
3E007C
1F00F8
1F81F8
1FE7F0
1FFFF8
3FFFFC
7FFFFE
FFFFFF
FC7E3E
78001C
300008
ENDCHAR
STARTCHAR 00A5
ENCODING 165
SWIDTH 560 0
DWIDTH 28 0
BBX 27 36 1 0
BITMAP
FE000FE0
FE001FC0
7F001FC0
3F003F80
3F803F80
1F807F00
1FC07F00
0FC0FE00
0FE0FC00
07F1FC00
07F1F800
03FBF800
01FBF000
01FFF000
00FFE000
00FFE000
007FC000
007FC000
1FFFFF00
1FFFFF00
1FFFFF00
003F8000
003F8000
003F8000
1FFFFF00
1FFFFF00
1FFFFF00
003F8000
003F8000
003F8000
003F8000
003F8000
003F8000
003F8000
003F8000
003F8000
ENDCHAR
STARTCHAR 00A6
ENCODING 166
SWIDTH 280 0
DWIDTH 14 0
BBX 4 46 5 -10
BITMAP
F0
F0
F0
F0
F0
F0
F0
F0
F0
F0
F0
F0
F0
F0
F0
F0
F0
F0
F0
00
00
00
00
00
00
00
00
F0
F0
F0
F0
F0
F0
F0
F0
F0
F0
F0
F0
F0
F0
F0
F0
F0
F0
F0
ENDCHAR
STARTCHAR 00A7
ENCODING 167
SWIDTH 560 0
DWIDTH 28 0
BBX 24 46 2 -9
BITMAP
01FF80
03FFE0
0FFFF0
0FFFF8
1FFFF8
3FC3F8
3F81FC
3F81FC
3F80FC
3FC000
3FE000
3FF800
1FFC00
0FFF00
0FFFC0
0FFFE0
1FFFF8
3F3FFC
7E1FFE
FC07FE
FC01FF
FC00FF
FE007F
FF003F
FFC03F
7FF03F
3FFC7E
1FFFFE
0FFFFC
03FFF0
01FFF0
007FF8
001FFC
0007FC
0003FE
0001FE
3F80FE
3F80FE
3F80FE
3FC1FE
1FFFFC
1FFFFC
0FFFF8
07FFF0
03FFE0
00FF00
ENDCHAR
STARTCHAR 00A8
ENCODING 168
SWIDTH 340 0
DWIDTH 17 0
BBX 16 7 1 30
BITMAP
FC3F
FC3F
FC3F
FC3F
FC3F
FC3F
FC3F
ENDCHAR
STARTCHAR 00A9
ENCODING 169
SWIDTH 740 0
DWIDTH 37 0
BBX 39 37 -1 0
BITMAP
0007FFC000
001FFFF000
007FFFFC00
01FF01FE00
03F8003F00
07E0000F80
0FC00007C0
0F81FE03E0
1F07FF81F0
3E0FFFE0F8
3C1FFFE078
7C1F83F07C
783F01F03C
783E00F03C
F07C00003C
F07C00001E
F07C00001E
F07C00001E
F07C00001E
F07C00001E
F07C00001E
F07C00001E
F07C00F83C
783E00F03C
783E01F03C
7C1F83F07C
3C1FFFE078
3E0FFFC0F0
1F07FF81F0
0F81FE03E0
07C00007C0
03F0001F80
01FC007F00
00FFFFFE00
007FFFF800
001FFFE000
0001FF0000
ENDCHAR
STARTCHAR 00AA
ENCODING 170
SWIDTH 380 0
DWIDTH 19 0
BBX 15 23 2 13
BITMAP
0FC0
3FF0
3FF8
7FF8
7878
0078
07F8
3FF8
7FF8
F878
F078
F078
F0F8
FDF8
FFF8
7F7C
1E00
0000
0000
7FFE
7FFE
7FFE
7FFE
ENDCHAR
STARTCHAR 00AB
ENCODING 171
SWIDTH 560 0
DWIDTH 28 0
BBX 19 20 4 4
BITMAP
008020
018020
038060
0781E0
0F83E0
1F87E0
7F0FE0
FE1F80
FC1F00
F81E00
F01E00
F81F00
FC1F80
7E0FC0
3F87E0
1F83E0
0F81E0
0780E0
018060
008020
ENDCHAR
STARTCHAR 00AC
ENCODING 172
SWIDTH 580 0
DWIDTH 29 0
BBX 25 14 2 5
BITMAP
FFFFFF80
FFFFFF80
FFFFFF80
FFFFFF80
FFFFFF80
FFFFFF80
00001F80
00001F80
00001F80
00001F80
00001F80
00001F80
00001F80
00001F80
ENDCHAR
STARTCHAR 00AD
ENCODING 173
SWIDTH 340 0
DWIDTH 17 0
BBX 14 6 1 10
BITMAP
FFFC
FFFC
FFFC
FFFC
FFFC
FFFC
ENDCHAR
STARTCHAR 00AE
ENCODING 174
SWIDTH 740 0
DWIDTH 37 0
BBX 39 37 -1 0
BITMAP
0007FFC000
001FFFF000
007FFFFC00
00FF01FE00
01F8003F00
03E0000F80
07C00007C0
0F9FFFC3E0
1F1FFFE1F0
3E1FFFF0F8
3C1FFFF078
7C1F01F87C
781F00F83C
781F00F83C
F01F00F83C
F01F00F01E
F01F01F01E
F01FFFE01E
F01FFFC01E
F01FFFC01E
F01FFFE01E
F01F03F01E
F01F01F03E
781F01F03C
781F01F03C
7C1F01F07C
3C1F01F078
3E1F01F0F8
1F1F00F9F0
0F800003E0
07C00007C0
03F0001F80
01FC007F00
00FFFFFE00
003FFFF800
000FFFE000
0001FF0000
ENDCHAR
STARTCHAR 00AF
ENCODING 175
SWIDTH 340 0
DWIDTH 17 0
BBX 15 4 1 31
BITMAP
FFFE
FFFE
FFFE
FFFE
ENDCHAR
STARTCHAR 00B0
ENCODING 176
SWIDTH 600 0
DWIDTH 30 0
BBX 15 15 8 19
BITMAP
0FE0
1FF0
3FF8
7C3C
701E
F00E
E00E
E00E
E00E
F01E
701E
7C7C
3FF8
1FF0
07C0
ENDCHAR
STARTCHAR 00B1
ENCODING 177
SWIDTH 580 0
DWIDTH 29 0
BBX 24 33 3 0
BITMAP
007E00
007E00
007E00
007E00
007E00
007E00
007E00
007E00
007E00
FFFFFF
FFFFFF
FFFFFF
FFFFFF
FFFFFF
FFFFFF
007E00
007E00
007E00
007E00
007E00
007E00
007E00
007E00
007E00
007E00
000000
000000
FFFFFF
FFFFFF
FFFFFF
FFFFFF
FFFFFF
FFFFFF
ENDCHAR
STARTCHAR 00B2
ENCODING 178
SWIDTH 360 0
DWIDTH 18 0
BBX 16 22 1 20
BITMAP
01C0
1FF8
3FFC
7FFE
FC3E
F81F
F81F
F81F
001F
003E
007E
00FC
01F8
07F0
0FC0
1F80
3F00
7C00
7FFF
FFFF
FFFF
FFFF
ENDCHAR
STARTCHAR 00B3
ENCODING 179
SWIDTH 360 0
DWIDTH 18 0
BBX 16 22 1 19
BITMAP
0380
1FF0
3FF8
7FFC
F87E
F83E
F03E
003C
007C
03F8
03F8
03FC
007E
001F
001F
F01F
F81F
F83E
7FFE
7FFC
3FF8
0FE0
ENDCHAR
STARTCHAR 00B4
ENCODING 180
SWIDTH 340 0
DWIDTH 17 0
BBX 10 8 6 30
BITMAP
1FC0
1F80
1F00
3E00
3C00
7C00
7800
F000
ENDCHAR
STARTCHAR 00B5
ENCODING 181
SWIDTH 620 0
DWIDTH 31 0
BBX 26 38 3 -11
BITMAP
FE00FE00
FE00FE00
FE00FE00
FE00FE00
FE00FE00
FE00FE00
FE00FE00
FE00FE00
FE00FE00
FE00FE00
FE00FE00
FE00FE00
FE00FE00
FE00FE00
FE00FE00
FE00FE00
FE00FE00
FE00FE00
FE00FE00
FE01FE00
FF01FE00
FF87FE00
FFFFFF00
FFFFFFC0
FFFFFFC0
FFFFFFC0
FFFF3FC0
FE7C0F80
FE000000
FE000000
FE000000
FE000000
FE000000
FE000000
FE000000
FE000000
FE000000
FE000000
ENDCHAR
STARTCHAR 00B6
ENCODING 182
SWIDTH 560 0
DWIDTH 28 0
BBX 25 46 1 -10
BITMAP
01FFFF80
07FFFF80
0FFFFF80
1FFFFF80
3FFE3E00
7FFE3E00
7FFE3E00
7FFE3E00
FFFE3E00
FFFE3E00
FFFE3E00
FFFE3E00
FFFE3E00
FFFE3E00
FFFE3E00
7FFE3E00
7FFE3E00
7FFE3E00
3FFE3E00
1FFE3E00
0FFE3E00
07FE3E00
01FE3E00
003E3E00
003E3E00
003E3E00
003E3E00
003E3E00
003E3E00
003E3E00
003E3E00
003E3E00
003E3E00
003E3E00
003E3E00
003E3E00
003E3E00
003E3E00
003E3E00
003E3E00
003E3E00
003E3E00
003E3E00
003E3E00
003E3E00
003E3E00
ENDCHAR
STARTCHAR 00B7
ENCODING 183
SWIDTH 280 0
DWIDTH 14 0
BBX 6 6 3 8
BITMAP
FC
FC
FC
FC
FC
FC
ENDCHAR
STARTCHAR 00B8
ENCODING 184
SWIDTH 340 0
DWIDTH 17 0
BBX 13 11 1 -11
BITMAP
0380
0300
0700
07F0
0FF8
0078
0078
4078
FFF8
FFF0
1FC0
ENDCHAR
STARTCHAR 00B9
ENCODING 185
SWIDTH 300 0
DWIDTH 15 0
BBX 10 21 2 19
BITMAP
01C0
03C0
07C0
FFC0
FFC0
FFC0
FFC0
07C0
07C0
07C0
07C0
07C0
07C0
07C0
07C0
07C0
07C0
07C0
07C0
07C0
07C0
ENDCHAR
STARTCHAR 00BA
ENCODING 186
SWIDTH 360 0
DWIDTH 18 0
BBX 16 23 1 13
BITMAP
07E0
1FF8
3FFC
7F7E
7C1E
F81F
F00F
F00F
F00F
F00F
F00F
F81F
7C1F
7F7E
3FFC
1FF8
07E0
0000
0000
FFFF
FFFF
FFFF
FFFF
ENDCHAR
STARTCHAR 00BB
ENCODING 187
SWIDTH 560 0
DWIDTH 28 0
BBX 19 20 4 4
BITMAP
802000
C01800
E01C00
F01E00
FC1F00
FE1F80
7F0FC0
1F87E0
0F83E0
0781E0
0781E0
0F83E0
1F87E0
3F0FE0
FE1F80
FC1F00
F81E00
F01C00
E01800
801000
ENDCHAR
STARTCHAR 00BC
ENCODING 188
SWIDTH 860 0
DWIDTH 43 0
BBX 40 38 2 -1
BITMAP
01C0001F00
03C0001E00
0FC0003C00
FFC0003C00
FFC0007800
FFC000F800
07C000F000
07C001F000
07C001E000
07C003E000
07C003C000
07C0078000
07C0078000
07C00F0000
07C01F0000
07C01E0000
07C03E00FC
07C03C01FC
07C07801FC
07C07803FC
0000F003FC
0000F0077C
0001E00E7C
0003E00E7C
0003C01C7C
0007C0187C
000780387C
000F00707C
000F007FFF
001E007FFF
001E007FFF
003C007FFF
003C00007C
007800007C
00F000007C
00F000007C
01E000007C
01E0000000
ENDCHAR
STARTCHAR 00BD
ENCODING 189
SWIDTH 860 0
DWIDTH 43 0
BBX 41 38 2 -1
BITMAP
01C0001F0000
03C0001E0000
0FC0003E0000
FFC0003C0000
FFC0007C0000
FFC000780000
07C000F00000
07C001F00000
07C001E00000
07C003E00000
07C003C00000
07C007C00000
07C007800000
07C00F000000
07C01F000000
07C01E00E000
07C03E0FFC00
07C03C1FFE00
07C07C3FFF00
07C0787E1F00
0000F07C0F80
0001F07C0F80
0001E07C0F80
0003E0000F80
0003C0001F00
000780003F00
000780007E00
000F0000FC00
001F0003F800
001E0007E000
003E001FC000
003C003F8000
0078003E0000
0078007FFF80
00F0007FFF80
01F0007FFF80
01E0007FFF80
03E000000000
ENDCHAR
STARTCHAR 00BE
ENCODING 190
SWIDTH 860 0
DWIDTH 43 0
BBX 41 38 1 -1
BITMAP
00000003C000
1FF00007C000
3FF800078000
7FFC000F8000
FC7E000F0000
F83E001E0000
F03E001E0000
003E003C0000
007C007C0000
03F800780000
03F800F80000
03FC00F00000
007E01F00000
001F01E00000
001F03C00000
F01F03C00000
F81F07807E00
FC3E0F80FE00
7FFE0F00FE00
7FFC1F01FE00
1FF81E01FE00
07C03E03BE00
00003C073E00
00007C073E00
0000780E3E00
0000F00E3E00
0001F01C3E00
0001E0383E00
0003E03FFF80
0003C03FFF80
0007C03FFF80
0007803FFF80
000F80003E00
000F00003E00
001E00003E00
003E00003E00
003C00003E00
007C00000000
ENDCHAR
STARTCHAR 00BF
ENCODING 191
SWIDTH 620 0
DWIDTH 31 0
BBX 25 37 2 -10
BITMAP
007F0000
007F0000
007F0000
007F0000
007F0000
007F0000
007F0000
00000000
00000000
00000000
007E0000
007E0000
007E0000
007E0000
00FE0000
01FC0000
03FC0000
0FF80000
1FF00000
3FE00000
3FC00000
7F800000
7F000000
FF000000
FE003F80
FE003F80
FE003F80
FF003F80
7F007F80
7F80FF80
7FC1FF00
3FFFFF00
3FFFFE00
1FFFFC00
0FFFF800
03FFE000
00FF8000
ENDCHAR
STARTCHAR 00C0
ENCODING 192
SWIDTH 700 0
DWIDTH 35 0
BBX 33 45 1 0
BITMAP
003F000000
001F800000
000FC00000
0003E00000
0001F00000
0000F00000
0000000000
0000000000
0000000000
000FF80000
000FF80000
000FFC0000
001FFC0000
001FFC0000
003FFE0000
003FFE0000
003FFE0000
007FFF0000
007F7F0000
007F7F0000
00FF7F8000
00FE3F8000
00FE3F8000
01FE3FC000
01FC1FC000
01FC1FE000
03FC1FE000
03F80FE000
07F80FF000
07F80FF000
07F007F000
0FF007F800
0FFFFFF800
0FFFFFF800
1FFFFFFC00
1FFFFFFC00
1FFFFFFC00
3FFFFFFE00
3FC001FE00
7F8000FE00
7F8000FF00
7F0000FF00
FF00007F00
FF00007F80
FE00007F80
ENDCHAR
STARTCHAR 00C1
ENCODING 193
SWIDTH 700 0
DWIDTH 35 0
BBX 33 45 1 0
BITMAP
00003F0000
00007E0000
0000FC0000
0001F00000
0003E00000
0007C00000
0000000000
0000000000
0000000000
000FF80000
000FF80000
000FFC0000
001FFC0000
001FFC0000
003FFE0000
003FFE0000
003FFE0000
007FFF0000
007F7F0000
007F7F0000
00FF7F8000
00FE3F8000
00FE3F8000
01FE3FC000
01FC1FC000
01FC1FE000
03FC1FE000
03F80FE000
07F80FF000
07F80FF000
07F007F000
0FF007F800
0FFFFFF800
0FFFFFF800
1FFFFFFC00
1FFFFFFC00
1FFFFFFC00
3FFFFFFE00
3FC001FE00
7F8000FE00
7F8000FF00
7F0000FF00
FF00007F00
FF00007F80
FE00007F80
ENDCHAR
STARTCHAR 00C2
ENCODING 194
SWIDTH 700 0
DWIDTH 35 0
BBX 33 45 1 0
BITMAP
0003F00000
0007F80000
000FFC0000
001F7E0000
003E1F0000
007C0F0000
0000000000
0000000000
0000000000
000FF80000
000FF80000
000FFC0000
001FFC0000
001FFC0000
003FFE0000
003FFE0000
003FFE0000
007FFF0000
007F7F0000
007F7F0000
00FF7F8000
00FE3F8000
00FE3F8000
01FE3FC000
01FC1FC000
01FC1FE000
03FC1FE000
03F80FE000
07F80FF000
07F80FF000
07F007F000
0FF007F800
0FFFFFF800
0FFFFFF800
1FFFFFFC00
1FFFFFFC00
1FFFFFFC00
3FFFFFFE00
3FC001FE00
7F8000FE00
7F8000FF00
7F0000FF00
FF00007F00
FF00007F80
FE00007F80
ENDCHAR
STARTCHAR 00C3
ENCODING 195
SWIDTH 700 0
DWIDTH 35 0
BBX 33 44 1 0
BITMAP
001E03C000
003F83C000
007FFF8000
007FFF8000
0071FF0000
00707E0000
0000000000
0000000000
000FF80000
000FF80000
000FFC0000
001FFC0000
001FFC0000
003FFE0000
003FFE0000
003FFE0000
007FFF0000
007F7F0000
007F7F0000
00FF7F8000
00FE3F8000
00FE3F8000
01FE3FC000
01FC1FC000
01FC1FE000
03FC1FE000
03F80FE000
07F80FF000
07F80FF000
07F007F000
0FF007F800
0FFFFFF800
0FFFFFF800
1FFFFFFC00
1FFFFFFC00
1FFFFFFC00
3FFFFFFE00
3FC001FE00
7F8000FE00
7F8000FF00
7F0000FF00
FF00007F00
FF00007F80
FE00007F80
ENDCHAR
STARTCHAR 00C4
ENCODING 196
SWIDTH 700 0
DWIDTH 35 0
BBX 33 44 1 0
BITMAP
007E1F8000
007E1F8000
007E1F8000
007E1F8000
007E1F8000
007E1F8000
0000000000
0000000000
000FF80000
000FF80000
000FFC0000
001FFC0000
001FFC0000
003FFE0000
003FFE0000
003FFE0000
007FFF0000
007F7F0000
007F7F0000
00FF7F8000
00FE3F8000
00FE3F8000
01FE3FC000
01FC1FC000
01FC1FE000
03FC1FE000
03F80FE000
07F80FF000
07F80FF000
07F007F000
0FF007F800
0FFFFFF800
0FFFFFF800
1FFFFFFC00
1FFFFFFC00
1FFFFFFC00
3FFFFFFE00
3FC001FE00
7F8000FE00
7F8000FF00
7F0000FF00
FF00007F00
FF00007F80
FE00007F80
ENDCHAR
STARTCHAR 00C5
ENCODING 197
SWIDTH 700 0
DWIDTH 35 0
BBX 33 48 1 0
BITMAP
0001C00000
0007F00000
0007F00000
000E380000
000E380000
000E380000
0007700000
0007F00000
0001C00000
0000000000
0000000000
0000000000
000FF80000
000FF80000
000FFC0000
001FFC0000
001FFC0000
003FFE0000
003FFE0000
003FFE0000
007FFF0000
007F7F0000
007F7F0000
00FF7F8000
00FE3F8000
00FE3F8000
01FE3FC000
01FC1FC000
01FC1FE000
03FC1FE000
03F80FE000
07F80FF000
07F80FF000
07F007F000
0FF007F800
0FFFFFF800
0FFFFFF800
1FFFFFFC00
1FFFFFFC00
1FFFFFFC00
3FFFFFFE00
3FC001FE00
7F8000FE00
7F8000FF00
7F0000FF00
FF00007F00
FF00007F80
FE00007F80
ENDCHAR
STARTCHAR 00C6
ENCODING 198
SWIDTH 1020 0
DWIDTH 51 0
BBX 48 36 1 0
BITMAP
0007FFFFFFFE
000FFFFFFFFE
000FFFFFFFFE
001FFFFFFFFE
001FFFFFFFFE
001FFFFFFFFE
003FC7F80000
003F87F80000
003F87F80000
007F07F80000
007F07F80000
00FF07F80000
00FE07F80000
00FE07F80000
01FE07FFFFF8
01FC07FFFFF8
01FC07FFFFF8
03FC07FFFFF8
03F807FFFFF8
03F807FFFFF8
07F807F80000
07F007F80000
0FFFFFF80000
0FFFFFF80000
0FFFFFF80000
1FFFFFF80000
1FFFFFF80000
1FFFFFF80000
3FC007F80000
3F8007F80000
3F8007FFFFFF
7F8007FFFFFF
7F0007FFFFFF
FF0007FFFFFF
FF0007FFFFFF
FE0007FFFFFF
ENDCHAR
STARTCHAR 00C7
ENCODING 199
SWIDTH 720 0
DWIDTH 36 0
BBX 32 47 2 -10
BITMAP
003FFE00
00FFFF80
01FFFFE0
07FFFFF0
0FFFFFF8
0FFFFFFC
1FF80FFE
3FF003FE
3FC001FF
7FC000FF
7F80007F
7F80007F
7F000000
FF000000
FF000000
FF000000
FF000000
FF000000
FF000000
FF000000
FF000000
FF000000
FF000000
FF000000
7F00007F
7F80007F
7F8000FF
3FC000FF
3FE001FF
1FF003FE
1FFC3FFC
0FFFFFFC
07FFFFF8
03FFFFF0
01FFFFC0
007FFF00
000FF800
00030000
00030000
0007F000
0007F800
00007800
00007800
00407800
007FF800
00FFF000
001FC000
ENDCHAR
STARTCHAR 00C8
ENCODING 200
SWIDTH 660 0
DWIDTH 33 0
BBX 27 45 4 0
BITMAP
01F80000
00FC0000
007E0000
001F0000
000F8000
00078000
00000000
00000000
00000000
FFFFFFC0
FFFFFFC0
FFFFFFC0
FFFFFFC0
FFFFFFC0
FFFFFFC0
FF000000
FF000000
FF000000
FF000000
FF000000
FF000000
FF000000
FF000000
FFFFFF80
FFFFFF80
FFFFFF80
FFFFFF80
FFFFFF80
FFFFFF80
FF000000
FF000000
FF000000
FF000000
FF000000
FF000000
FF000000
FF000000
FF000000
FF000000
FFFFFFE0
FFFFFFE0
FFFFFFE0
FFFFFFE0
FFFFFFE0
FFFFFFE0
ENDCHAR
STARTCHAR 00C9
ENCODING 201
SWIDTH 660 0
DWIDTH 33 0
BBX 27 45 4 0
BITMAP
0003F000
0007E000
000FC000
001F0000
003E0000
007C0000
00000000
00000000
00000000
FFFFFFC0
FFFFFFC0
FFFFFFC0
FFFFFFC0
FFFFFFC0
FFFFFFC0
FF000000
FF000000
FF000000
FF000000
FF000000
FF000000
FF000000
FF000000
FFFFFF80
FFFFFF80
FFFFFF80
FFFFFF80
FFFFFF80
FFFFFF80
FF000000
FF000000
FF000000
FF000000
FF000000
FF000000
FF000000
FF000000
FF000000
FF000000
FFFFFFE0
FFFFFFE0
FFFFFFE0
FFFFFFE0
FFFFFFE0
FFFFFFE0
ENDCHAR
STARTCHAR 00CA
ENCODING 202
SWIDTH 660 0
DWIDTH 33 0
BBX 27 45 4 0
BITMAP
003F0000
007F8000
00FFC000
01F7E000
03E1F000
07C0F000
00000000
00000000
00000000
FFFFFFC0
FFFFFFC0
FFFFFFC0
FFFFFFC0
FFFFFFC0
FFFFFFC0
FF000000
FF000000
FF000000
FF000000
FF000000
FF000000
FF000000
FF000000
FFFFFF80
FFFFFF80
FFFFFF80
FFFFFF80
FFFFFF80
FFFFFF80
FF000000
FF000000
FF000000
FF000000
FF000000
FF000000
FF000000
FF000000
FF000000
FF000000
FFFFFFE0
FFFFFFE0
FFFFFFE0
FFFFFFE0
FFFFFFE0
FFFFFFE0
ENDCHAR
STARTCHAR 00CB
ENCODING 203
SWIDTH 660 0
DWIDTH 33 0
BBX 27 44 4 0
BITMAP
03E0F800
03E0F800
03E0F800
03E0F800
03E0F800
03E0F800
00000000
00000000
FFFFFFC0
FFFFFFC0
FFFFFFC0
FFFFFFC0
FFFFFFC0
FFFFFFC0
FF000000
FF000000
FF000000
FF000000
FF000000
FF000000
FF000000
FF000000
FFFFFF80
FFFFFF80
FFFFFF80
FFFFFF80
FFFFFF80
FFFFFF80
FF000000
FF000000
FF000000
FF000000
FF000000
FF000000
FF000000
FF000000
FF000000
FF000000
FFFFFFE0
FFFFFFE0
FFFFFFE0
FFFFFFE0
FFFFFFE0
FFFFFFE0
ENDCHAR
STARTCHAR 00CC
ENCODING 204
SWIDTH 320 0
DWIDTH 16 0
BBX 11 45 1 0
BITMAP
FC00
7E00
3F00
0F80
07C0
03C0
0000
0000
0000
1FE0
1FE0
1FE0
1FE0
1FE0
1FE0
1FE0
1FE0
1FE0
1FE0
1FE0
1FE0
1FE0
1FE0
1FE0
1FE0
1FE0
1FE0
1FE0
1FE0
1FE0
1FE0
1FE0
1FE0
1FE0
1FE0
1FE0
1FE0
1FE0
1FE0
1FE0
1FE0
1FE0
1FE0
1FE0
1FE0
ENDCHAR
STARTCHAR 00CD
ENCODING 205
SWIDTH 320 0
DWIDTH 16 0
BBX 11 45 2 0
BITMAP
07E0
0FC0
1F80
3E00
7C00
F800
0000
0000
0000
3FC0
3FC0
3FC0
3FC0
3FC0
3FC0
3FC0
3FC0
3FC0
3FC0
3FC0
3FC0
3FC0
3FC0
3FC0
3FC0
3FC0
3FC0
3FC0
3FC0
3FC0
3FC0
3FC0
3FC0
3FC0
3FC0
3FC0
3FC0
3FC0
3FC0
3FC0
3FC0
3FC0
3FC0
3FC0
3FC0
ENDCHAR
STARTCHAR 00CE
ENCODING 206
SWIDTH 320 0
DWIDTH 16 0
BBX 15 45 -1 0
BITMAP
07E0
0FF0
1FF8
3EFC
7C3E
F81E
0000
0000
0000
03F8
03F8
03F8
03F8
03F8
03F8
03F8
03F8
03F8
03F8
03F8
03F8
03F8
03F8
03F8
03F8
03F8
03F8
03F8
03F8
03F8
03F8
03F8
03F8
03F8
03F8
03F8
03F8
03F8
03F8
03F8
03F8
03F8
03F8
03F8
03F8
ENDCHAR
STARTCHAR 00CF
ENCODING 207
SWIDTH 320 0
DWIDTH 16 0
BBX 16 44 0 0
BITMAP
FC3F
FC3F
FC3F
FC3F
FC3F
FC3F
0000
0000
07F0
07F0
07F0
07F0
07F0
07F0
07F0
07F0
07F0
07F0
07F0
07F0
07F0
07F0
07F0
07F0
07F0
07F0
07F0
07F0
07F0
07F0
07F0
07F0
07F0
07F0
07F0
07F0
07F0
07F0
07F0
07F0
07F0
07F0
07F0
07F0
ENDCHAR
STARTCHAR 00D0
ENCODING 208
SWIDTH 740 0
DWIDTH 37 0
BBX 33 36 2 0
BITMAP
1FFFFC0000
1FFFFF8000
1FFFFFE000
1FFFFFF000
1FFFFFF800
1FFFFFFC00
1FE00FFC00
1FE003FE00
1FE001FE00
1FE000FF00
1FE0007F00
1FE0007F00
1FE0007F00
1FE0003F80
1FE0003F80
FFFFC03F80
FFFFC03F80
FFFFC03F80
FFFFC03F80
1FE0003F80
1FE0003F80
1FE0003F80
1FE0003F80
1FE0007F00
1FE0007F00
1FE0007F00
1FE000FF00
1FE001FE00
1FE003FE00
1FE00FFC00
1FFFFFFC00
1FFFFFF800
1FFFFFF000
1FFFFFE000
1FFFFF8000
1FFFFC0000
ENDCHAR
STARTCHAR 00D1
ENCODING 209
SWIDTH 760 0
DWIDTH 38 0
BBX 30 45 4 0
BITMAP
00200E00
00F80E00
01FF3E00
01FFFE00
03FFFC00
0387F800
00000000
00000000
00000000
FF0003FC
FF8003FC
FF8003FC
FFC003FC
FFC003FC
FFE003FC
FFF003FC
FFF003FC
FFF803FC
FFF803FC
FFFC03FC
FFFC03FC
FFFE03FC
FF7F03FC
FF3F03FC
FF3F83FC
FF1F83FC
FF1FC3FC
FF0FE3FC
FF0FE3FC
FF07F3FC
FF03F3FC
FF03FBFC
FF01FBFC
FF01FFFC
FF00FFFC
FF00FFFC
FF007FFC
FF003FFC
FF003FFC
FF001FFC
FF001FFC
FF000FFC
FF0007FC
FF0007FC
FF0003FC
ENDCHAR
STARTCHAR 00D2
ENCODING 210
SWIDTH 780 0
DWIDTH 39 0
BBX 36 46 2 -1
BITMAP
003F000000
001F800000
000FC00000
0003E00000
0001F00000
0000F00000
0000000000
0000000000
0000000000
001FFF0000
007FFFC000
01FFFFF000
03FFFFF800
07FFFFFC00
0FFFFFFE00
1FFC07FF00
1FF001FF80
3FE000FF80
3FC0007FC0
7F80003FC0
7F80001FE0
7F00001FE0
FF00001FE0
FF00000FE0
FF00000FE0
FF00000FE0
FF00000FF0
FF00000FF0
FF00000FF0
FF00000FE0
FF00000FE0
FF00000FE0
7F00001FE0
7F80001FE0
7F80003FC0
7FC0003FC0
3FE0007FC0
3FF000FF80
1FF801FF00
0FFF1FFF00
07FFFFFE00
03FFFFFC00
01FFFFF800
00FFFFE000
003FFF8000
0007FC0000
ENDCHAR
STARTCHAR 00D3
ENCODING 211
SWIDTH 780 0
DWIDTH 39 0
BBX 36 46 2 -1
BITMAP
00001F8000
00003F0000
00007E0000
0000F80000
0001F00000
0003E00000
0000000000
0000000000
0000000000
001FFF0000
007FFFC000
01FFFFF000
03FFFFF800
07FFFFFC00
0FFFFFFE00
1FFC07FF00
1FF001FF80
3FE000FF80
3FC0007FC0
7F80003FC0
7F80001FE0
7F00001FE0
FF00001FE0
FF00000FE0
FF00000FE0
FF00000FE0
FF00000FF0
FF00000FF0
FF00000FF0
FF00000FE0
FF00000FE0
FF00000FE0
7F00001FE0
7F80001FE0
7F80003FC0
7FC0003FC0
3FE0007FC0
3FF000FF80
1FF801FF00
0FFF1FFF00
07FFFFFE00
03FFFFFC00
01FFFFF800
00FFFFE000
003FFF8000
0007FC0000
ENDCHAR
STARTCHAR 00D4
ENCODING 212
SWIDTH 780 0
DWIDTH 39 0
BBX 36 46 2 -1
BITMAP
0001F80000
0003FC0000
0007FE0000
000FBF0000
001F0F8000
003E078000
0000000000
0000000000
0000000000
001FFF0000
007FFFC000
01FFFFF000
03FFFFF800
07FFFFFC00
0FFFFFFE00
1FFC07FF00
1FF001FF80
3FE000FF80
3FC0007FC0
7F80003FC0
7F80001FE0
7F00001FE0
FF00001FE0
FF00000FE0
FF00000FE0
FF00000FE0
FF00000FF0
FF00000FF0
FF00000FF0
FF00000FE0
FF00000FE0
FF00000FE0
7F00001FE0
7F80001FE0
7F80003FC0
7FC0003FC0
3FE0007FC0
3FF000FF80
1FF801FF00
0FFF1FFF00
07FFFFFE00
03FFFFFC00
01FFFFF800
00FFFFE000
003FFF8000
0007FC0000
ENDCHAR
STARTCHAR 00D5
ENCODING 213
SWIDTH 780 0
DWIDTH 39 0
BBX 36 46 2 -1
BITMAP
000001E000
001F81E000
001FF7C000
003FFFC000
003DFFC000
00387F8000
0000000000
0000000000
0000000000
001FFF0000
007FFFC000
01FFFFF000
03FFFFF800
07FFFFFC00
0FFFFFFE00
1FFC07FF00
1FF001FF80
3FE000FF80
3FC0007FC0
7F80003FC0
7F80001FE0
7F00001FE0
FF00001FE0
FF00000FE0
FF00000FE0
FF00000FE0
FF00000FF0
FF00000FF0
FF00000FF0
FF00000FE0
FF00000FE0
FF00000FE0
7F00001FE0
7F80001FE0
7F80003FC0
7FC0003FC0
3FE0007FC0
3FF000FF80
1FF801FF00
0FFF1FFF00
07FFFFFE00
03FFFFFC00
01FFFFF800
00FFFFE000
003FFF8000
0007FC0000
ENDCHAR
STARTCHAR 00D6
ENCODING 214
SWIDTH 780 0
DWIDTH 39 0
BBX 36 45 2 -1
BITMAP
003F0FC000
003F0FC000
003F0FC000
003F0FC000
003F0FC000
003F0FC000
0000000000
0000000000
001FFF0000
007FFFC000
01FFFFF000
03FFFFF800
07FFFFFC00
0FFFFFFE00
1FFC07FF00
1FF001FF80
3FE000FF80
3FC0007FC0
7F80003FC0
7F80001FE0
7F00001FE0
FF00001FE0
FF00000FE0
FF00000FE0
FF00000FE0
FF00000FF0
FF00000FF0
FF00000FF0
FF00000FE0
FF00000FE0
FF00000FE0
7F00001FE0
7F80001FE0
7F80003FC0
7FC0003FC0
3FE0007FC0
3FF000FF80
1FF801FF00
0FFF1FFF00
07FFFFFE00
03FFFFFC00
01FFFFF800
00FFFFE000
003FFF8000
0007FC0000
ENDCHAR
STARTCHAR 00D7
ENCODING 215
SWIDTH 580 0
DWIDTH 29 0
BBX 21 21 4 1
BITMAP
1800C0
3C01E0
7E03F0
FF07F8
FF8FF8
7FDFF0
3FFFE0
1FFFC0
0FFF80
07FF00
03FE00
07FF00
0FFF80
1FFFC0
3FFFE0
7FDFF0
FF8FF8
7F07F8
3E03F0
1C01E0
0800C0
ENDCHAR
STARTCHAR 00D8
ENCODING 216
SWIDTH 780 0
DWIDTH 39 0
BBX 36 39 2 -2
BITMAP
0000000040
001FFF00E0
007FFFC1F0
01FFFFF1E0
03FFFFFBC0
07FFFFFF80
0FFFFFFF80
1FFC03FF00
1FF001FF80
3FE0007F80
3FC000FFC0
7F8001FFC0
7F8003FFE0
7F0007DFE0
FF000F9FE0
FF001F0FE0
FF003E0FE0
FF003C0FE0
FF00780FF0
FF00F00FF0
FF01E00FF0
FF03C00FE0
FF07C00FE0
FF0F801FE0
7F1F001FE0
7FBE001FE0
7FFC003FC0
3FF8003FC0
3FF0007FC0
1FE000FF80
1FF801FF00
0FFF1FFF00
1FFFFFFE00
1FFFFFFC00
3DFFFFF800
78FFFFE000
F83FFF8000
7007FC0000
2000000000
ENDCHAR
STARTCHAR 00D9
ENCODING 217
SWIDTH 740 0
DWIDTH 37 0
BBX 29 46 4 -1
BITMAP
00FC0000
007E0000
003F0000
000F8000
0007C000
0003C000
00000000
00000000
00000000
FF0007F8
FF0007F8
FF0007F8
FF0007F8
FF0007F8
FF0007F8
FF0007F8
FF0007F8
FF0007F8
FF0007F8
FF0007F8
FF0007F8
FF0007F8
FF0007F8
FF0007F8
FF0007F8
FF0007F8
FF0007F8
FF0007F8
FF0007F8
FF0007F8
FF0007F8
FF0007F8
FF0007F8
FF0007F8
FF0007F8
FF0007F0
FF000FF0
7F800FF0
7FC01FF0
7FF9FFE0
3FFFFFE0
1FFFFFC0
0FFFFF80
07FFFF00
01FFFC00
003FE000
ENDCHAR
STARTCHAR 00DA
ENCODING 218
SWIDTH 740 0
DWIDTH 37 0
BBX 29 46 4 -1
BITMAP
0001F800
0003F000
0007E000
000F8000
001F0000
003E0000
00000000
00000000
00000000
FF0007F8
FF0007F8
FF0007F8
FF0007F8
FF0007F8
FF0007F8
FF0007F8
FF0007F8
FF0007F8
FF0007F8
FF0007F8
FF0007F8
FF0007F8
FF0007F8
FF0007F8
FF0007F8
FF0007F8
FF0007F8
FF0007F8
FF0007F8
FF0007F8
FF0007F8
FF0007F8
FF0007F8
FF0007F8
FF0007F8
FF0007F0
FF000FF0
7F800FF0
7FC01FF0
7FF9FFE0
3FFFFFE0
1FFFFFC0
0FFFFF80
07FFFF00
01FFFC00
003FE000
ENDCHAR
STARTCHAR 00DB
ENCODING 219
SWIDTH 740 0
DWIDTH 37 0
BBX 29 46 4 -1
BITMAP
001F8000
003FC000
007FE000
00FBF000
01F0F800
03E07800
00000000
00000000
00000000
FF0007F8
FF0007F8
FF0007F8
FF0007F8
FF0007F8
FF0007F8
FF0007F8
FF0007F8
FF0007F8
FF0007F8
FF0007F8
FF0007F8
FF0007F8
FF0007F8
FF0007F8
FF0007F8
FF0007F8
FF0007F8
FF0007F8
FF0007F8
FF0007F8
FF0007F8
FF0007F8
FF0007F8
FF0007F8
FF0007F8
FF0007F0
FF000FF0
7F800FF0
7FC01FF0
7FF9FFE0
3FFFFFE0
1FFFFFC0
0FFFFF80
07FFFF00
01FFFC00
003FE000
ENDCHAR
STARTCHAR 00DC
ENCODING 220
SWIDTH 740 0
DWIDTH 37 0
BBX 29 45 4 -1
BITMAP
01F07C00
01F07C00
01F07C00
01F07C00
01F07C00
01F07C00
00000000
00000000
FF0007F8
FF0007F8
FF0007F8
FF0007F8
FF0007F8
FF0007F8
FF0007F8
FF0007F8
FF0007F8
FF0007F8
FF0007F8
FF0007F8
FF0007F8
FF0007F8
FF0007F8
FF0007F8
FF0007F8
FF0007F8
FF0007F8
FF0007F8
FF0007F8
FF0007F8
FF0007F8
FF0007F8
FF0007F8
FF0007F8
FF0007F0
FF000FF0
7F800FF0
7FC01FF0
7FF9FFE0
3FFFFFE0
1FFFFFC0
0FFFFF80
07FFFF00
01FFFC00
003FE000
ENDCHAR
STARTCHAR 00DD
ENCODING 221
SWIDTH 640 0
DWIDTH 32 0
BBX 31 45 1 0
BITMAP
00007E00
0000FC00
0001F800
0003E000
0007C000
000F8000
00000000
00000000
00000000
FF0003FE
7F8003FC
7F8003FC
3FC007F8
3FC007F8
1FE00FF0
1FE00FF0
0FF01FE0
0FF01FE0
07F81FC0
03F83FC0
03FC3F80
01FC7F80
01FE7F00
00FEFF00
00FFFE00
007FFE00
007FFC00
003FFC00
003FF800
001FF800
001FF000
000FF000
000FF000
000FF000
000FF000
000FF000
000FF000
000FF000
000FF000
000FF000
000FF000
000FF000
000FF000
000FF000
000FF000
ENDCHAR
STARTCHAR 00DE
ENCODING 222
SWIDTH 680 0
DWIDTH 34 0
BBX 28 36 4 0
BITMAP
FF000000
FF000000
FF000000
FF000000
FF000000
FF000000
FFFFF800
FFFFFE00
FFFFFF80
FFFFFF80
FFFFFFC0
FFFFFFE0
FF007FE0
FF001FE0
FF001FE0
FF000FE0
FF000FF0
FF000FF0
FF000FF0
FF000FE0
FF001FE0
FF001FE0
FF007FE0
FFFFFFC0
FFFFFFC0
FFFFFF80
FFFFFF00
FFFFFE00
FFFFF800
FF000000
FF000000
FF000000
FF000000
FF000000
FF000000
FF000000
ENDCHAR
STARTCHAR 00DF
ENCODING 223
SWIDTH 620 0
DWIDTH 31 0
BBX 26 37 3 -1
BITMAP
01FF0000
07FFE000
1FFFF800
3FFFFC00
7FFFFE00
7FFFFE00
7F81FF00
FF00FF00
FE007F00
FE007F00
FE007F00
FE007F00
FE00FE00
FE01FE00
FE1FFC00
FE1FF000
FE1FF800
FE1FFE00
FE1FFF00
FE01FF80
FE007F80
FE003FC0
FE003FC0
FE001FC0
FE001FC0
FE001FC0
FE001FC0
FE001FC0
FE003FC0
FE003F80
FE007F80
FE11FF80
FE1FFF00
FE1FFE00
FE1FFE00
FE1FF800
000FE000
ENDCHAR
STARTCHAR 00E0
ENCODING 224
SWIDTH 560 0
DWIDTH 28 0
BBX 25 39 2 -1
BITMAP
07E00000
03F00000
03F00000
01F00000
00F80000
00780000
003C0000
001C0000
00000000
00000000
00000000
03FFC000
0FFFF000
1FFFF800
3FFFFC00
7FFFFC00
7FC3FE00
7F00FE00
7F00FE00
0000FE00
0001FE00
0007FE00
00FFFE00
0FFFFE00
1FFFFE00
3FFEFE00
7FE0FE00
7F00FE00
FE00FE00
FE00FE00
FE01FE00
FE01FE00
FF03FE00
FFFFFE00
7FFFFE00
7FFFFE00
3FFEFF00
1FF87F80
07E00000
ENDCHAR
STARTCHAR 00E1
ENCODING 225
SWIDTH 560 0
DWIDTH 28 0
BBX 25 39 2 -1
BITMAP
000FE000
000FC000
001F8000
001F0000
003E0000
003C0000
00780000
00780000
00000000
00000000
00000000
03FFC000
0FFFF000
1FFFF800
3FFFFC00
7FFFFC00
7FC3FE00
7F00FE00
7F00FE00
0000FE00
0001FE00
0007FE00
00FFFE00
0FFFFE00
1FFFFE00
3FFEFE00
7FE0FE00
7F00FE00
FE00FE00
FE00FE00
FE01FE00
FE01FE00
FF03FE00
FFFFFE00
7FFFFE00
7FFFFE00
3FFEFF00
1FF87F80
07E00000
ENDCHAR
STARTCHAR 00E2
ENCODING 226
SWIDTH 560 0
DWIDTH 28 0
BBX 25 39 2 -1
BITMAP
007E0000
00FE0000
00FF0000
01EF8000
03C78000
03C3C000
0781E000
0F01E000
00000000
00000000
00000000
03FFC000
0FFFF000
1FFFF800
3FFFFC00
7FFFFC00
7FC3FE00
7F00FE00
7F00FE00
0000FE00
0001FE00
0007FE00
00FFFE00
0FFFFE00
1FFFFE00
3FFEFE00
7FE0FE00
7F00FE00
FE00FE00
FE00FE00
FE01FE00
FE01FE00
FF03FE00
FFFFFE00
7FFFFE00
7FFFFE00
3FFEFF00
1FF87F80
07E00000
ENDCHAR
STARTCHAR 00E3
ENCODING 227
SWIDTH 560 0
DWIDTH 28 0
BBX 25 38 2 -1
BITMAP
03807000
07F0F000
0FFFF000
0FFFF000
1E7FE000
1C0FC000
00000000
00000000
00000000
00000000
03FFC000
0FFFF000
1FFFF800
3FFFFC00
7FFFFC00
7FC3FE00
7F00FE00
7F00FE00
0000FE00
0001FE00
0007FE00
00FFFE00
0FFFFE00
1FFFFE00
3FFEFE00
7FE0FE00
7F00FE00
FE00FE00
FE00FE00
FE01FE00
FE01FE00
FF03FE00
FFFFFE00
7FFFFE00
7FFFFE00
3FFEFF00
1FF87F80
07E00000
ENDCHAR
STARTCHAR 00E4
ENCODING 228
SWIDTH 560 0
DWIDTH 28 0
BBX 25 38 2 -1
BITMAP
0FC3F000
0FC3F000
0FC3F000
0FC3F000
0FC3F000
0FC3F000
0FC3F000
00000000
00000000
00000000
03FFC000
0FFFF000
1FFFF800
3FFFFC00
7FFFFC00
7FC3FE00
7F00FE00
7F00FE00
0000FE00
0001FE00
0007FE00
00FFFE00
0FFFFE00
1FFFFE00
3FFEFE00
7FE0FE00
7F00FE00
FE00FE00
FE00FE00
FE01FE00
FE01FE00
FF03FE00
FFFFFE00
7FFFFE00
7FFFFE00
3FFEFF00
1FF87F80
07E00000
ENDCHAR
STARTCHAR 00E5
ENCODING 229
SWIDTH 560 0
DWIDTH 28 0
BBX 25 40 2 -1
BITMAP
00380000
00FE0000
00FE0000
01C70000
01C70000
01C70000
00EE0000
00FE0000
00380000
00000000
00000000
00000000
03FFC000
0FFFF000
1FFFF800
3FFFFC00
7FFFFC00
7FC3FE00
7F00FE00
7F00FE00
0000FE00
0001FE00
0007FE00
00FFFE00
0FFFFE00
1FFFFE00
3FFEFE00
7FE0FE00
7F00FE00
FE00FE00
FE00FE00
FE01FE00
FE01FE00
FF03FE00
FFFFFE00
7FFFFE00
7FFFFE00
3FFEFF00
1FF87F80
07E00000
ENDCHAR
STARTCHAR 00E6
ENCODING 230
SWIDTH 880 0
DWIDTH 44 0
BBX 42 28 1 0
BITMAP
03FFE0FFC000
0FFFFBFFF000
1FFFFFFFFC00
3FFFFFFFFE00
3FFFFFFFFE00
7FC1FFE0FF00
7F007FC07F80
7F007F803F80
00007F803F80
0000FF001F80
0003FF001FC0
00FFFFFFFFC0
07FFFFFFFFC0
1FFFFFFFFFC0
3FFFFFFFFFC0
7FF87FFFFFC0
7F807F000000
FF007F000000
FE007F000000
FE00FF801FC0
FE00FF803F80
FF01FFC07F80
FFFFFFFBFF00
7FFFEFFFFF00
7FFFC7FFFE00
3FFF03FFFC00
1FFE01FFF000
07F0003F8000
ENDCHAR
STARTCHAR 00E7
ENCODING 231
SWIDTH 560 0
DWIDTH 28 0
BBX 25 38 2 -10
BITMAP
01FFE000
03FFF800
0FFFFC00
1FFFFE00
3FFFFE00
3FE1FF00
7F807F00
7F007F80
7F003F80
FF000000
FE000000
FE000000
FE000000
FE000000
FE000000
FE000000
FE000000
FE000000
FF003F80
7F003F80
7F807F00
7FC0FF00
3FFFFF00
1FFFFE00
1FFFFC00
07FFF800
03FFE000
00FF8000
00180000
00380000
003F8000
007FC000
0003C000
0003C000
0603C000
07FFC000
07FF8000
00FE0000
ENDCHAR
STARTCHAR 00E8
ENCODING 232
SWIDTH 580 0
DWIDTH 29 0
BBX 25 39 2 -1
BITMAP
03F00000
01F80000
01F80000
00F80000
007C0000
003C0000
001E0000
000E0000
00000000
00000000
00000000
01FFC000
07FFE000
0FFFF800
1FFFFC00
1FFFFC00
3FC1FE00
7F80FE00
7F007F00
7F007F00
7E003F00
FE003F80
FFFFFF80
FFFFFF80
FFFFFF80
FFFFFF80
FFFFFF80
FE000000
FE000000
FE000000
7F000000
7F003F80
7F807F00
3FE1FF00
1FFFFE00
1FFFFC00
0FFFF800
03FFE000
00FF0000
ENDCHAR
STARTCHAR 00E9
ENCODING 233
SWIDTH 580 0
DWIDTH 29 0
BBX 25 39 2 -1
BITMAP
0007E000
000FC000
000F8000
001F0000
001F0000
003E0000
003C0000
00780000
00000000
00000000
00000000
01FFC000
07FFE000
0FFFF800
1FFFFC00
1FFFFC00
3FC1FE00
7F80FE00
7F007F00
7F007F00
7E003F00
FE003F80
FFFFFF80
FFFFFF80
FFFFFF80
FFFFFF80
FFFFFF80
FE000000
FE000000
FE000000
7F000000
7F003F80
7F807F00
3FE1FF00
1FFFFE00
1FFFFC00
0FFFF800
03FFE000
00FF0000
ENDCHAR
STARTCHAR 00EA
ENCODING 234
SWIDTH 580 0
DWIDTH 29 0
BBX 25 39 2 -1
BITMAP
003E0000
007F0000
00FF0000
01FF8000
01E7C000
03C3C000
0781E000
0700F000
00000000
00000000
00000000
01FFC000
07FFE000
0FFFF800
1FFFFC00
1FFFFC00
3FC1FE00
7F80FE00
7F007F00
7F007F00
7E003F00
FE003F80
FFFFFF80
FFFFFF80
FFFFFF80
FFFFFF80
FFFFFF80
FE000000
FE000000
FE000000
7F000000
7F003F80
7F807F00
3FE1FF00
1FFFFE00
1FFFFC00
0FFFF800
03FFE000
00FF0000
ENDCHAR
STARTCHAR 00EB
ENCODING 235
SWIDTH 580 0
DWIDTH 29 0
BBX 25 38 2 -1
BITMAP
07E1F800
07E1F800
07E1F800
07E1F800
07E1F800
07E1F800
07E1F800
00000000
00000000
00000000
01FFC000
07FFE000
0FFFF800
1FFFFC00
1FFFFC00
3FC1FE00
7F80FE00
7F007F00
7F007F00
7E003F00
FE003F80
FFFFFF80
FFFFFF80
FFFFFF80
FFFFFF80
FFFFFF80
FE000000
FE000000
FE000000
7F000000
7F003F80
7F807F00
3FE1FF00
1FFFFE00
1FFFFC00
0FFFF800
03FFE000
00FF0000
ENDCHAR
STARTCHAR 00EC
ENCODING 236
SWIDTH 280 0
DWIDTH 14 0
BBX 10 38 1 0
BITMAP
FC00
FC00
7E00
3E00
1F00
0F00
0780
0380
0000
0000
0000
1FC0
1FC0
1FC0
1FC0
1FC0
1FC0
1FC0
1FC0
1FC0
1FC0
1FC0
1FC0
1FC0
1FC0
1FC0
1FC0
1FC0
1FC0
1FC0
1FC0
1FC0
1FC0
1FC0
1FC0
1FC0
1FC0
1FC0
ENDCHAR
STARTCHAR 00ED
ENCODING 237
SWIDTH 280 0
DWIDTH 14 0
BBX 9 38 4 0
BITMAP
1F80
1F80
3F00
3E00
7C00
7800
F000
F000
0000
0000
0000
FE00
FE00
FE00
FE00
FE00
FE00
FE00
FE00
FE00
FE00
FE00
FE00
FE00
FE00
FE00
FE00
FE00
FE00
FE00
FE00
FE00
FE00
FE00
FE00
FE00
FE00
FE00
ENDCHAR
STARTCHAR 00EE
ENCODING 238
SWIDTH 300 0
DWIDTH 15 0
BBX 15 38 0 0
BITMAP
07C0
0FE0
1FE0
3FF0
3CF8
7878
F03C
E01E
0000
0000
0000
0FF0
0FF0
0FF0
0FF0
0FF0
0FF0
0FF0
0FF0
0FF0
0FF0
0FF0
0FF0
0FF0
0FF0
0FF0
0FF0
0FF0
0FF0
0FF0
0FF0
0FF0
0FF0
0FF0
0FF0
0FF0
0FF0
0FF0
ENDCHAR
STARTCHAR 00EF
ENCODING 239
SWIDTH 300 0
DWIDTH 15 0
BBX 16 37 0 0
BITMAP
FC3F
FC3F
FC3F
FC3F
FC3F
FC3F
FC3F
0000
0000
0000
0FF0
0FF0
0FF0
0FF0
0FF0
0FF0
0FF0
0FF0
0FF0
0FF0
0FF0
0FF0
0FF0
0FF0
0FF0
0FF0
0FF0
0FF0
0FF0
0FF0
0FF0
0FF0
0FF0
0FF0
0FF0
0FF0
0FF0
ENDCHAR
STARTCHAR 00F0
ENCODING 240
SWIDTH 620 0
DWIDTH 31 0
BBX 27 38 2 -1
BITMAP
00004000
03C0E000
07F3F000
03FFC000
00FF0000
007F8000
01FFE000
03EFF000
0183F800
0001FC00
0000FE00
01FFFE00
07FFFF00
0FFFFF80
1FFFFF80
3FFFFFC0
3FE0FFC0
7FC03FC0
7F803FC0
7F001FE0
FF001FE0
FE000FE0
FE000FE0
FE000FE0
FE000FE0
FE000FE0
FE000FE0
FE000FE0
7F001FE0
7F001FC0
7F803FC0
3FC07F80
3FFFFF80
1FFFFF00
0FFFFE00
07FFFC00
01FFF000
007FC000
ENDCHAR
STARTCHAR 00F1
ENCODING 241
SWIDTH 620 0
DWIDTH 31 0
BBX 24 37 3 0
BITMAP
03C038
07F078
0FFFF0
0FFFF0
0E3FE0
0E0FC0
000000
000000
000000
000000
FE1FF0
FE7FF8
FEFFFC
FFFFFE
FFFFFE
FFF7FF
FF80FF
FF00FF
FE007F
FE007F
FE007F
FE007F
FE007F
FE007F
FE007F
FE007F
FE007F
FE007F
FE007F
FE007F
FE007F
FE007F
FE007F
FE007F
FE007F
FE007F
FE007F
ENDCHAR
STARTCHAR 00F2
ENCODING 242
SWIDTH 620 0
DWIDTH 31 0
BBX 27 39 2 -1
BITMAP
03F80000
01F80000
00FC0000
007C0000
003E0000
001E0000
001F0000
000F0000
00000000
00000000
00000000
00FFE000
03FFF800
0FFFFE00
1FFFFF00
1FFFFF00
3FF1FF80
7FC07FC0
7F803FC0
7F001FC0
FF001FE0
FE000FE0
FE000FE0
FE000FE0
FE000FE0
FE000FE0
FE000FE0
FE000FE0
FF001FE0
7F001FE0
7F803FC0
7F803FC0
3FE0FF80
3FFFFF80
1FFFFF00
0FFFFE00
07FFFC00
01FFF000
007FC000
ENDCHAR
STARTCHAR 00F3
ENCODING 243
SWIDTH 620 0
DWIDTH 31 0
BBX 27 39 2 -1
BITMAP
0007F000
0007E000
000FC000
000F8000
001F0000
001E0000
003C0000
003C0000
00000000
00000000
00000000
00FFE000
03FFF800
0FFFFE00
1FFFFF00
1FFFFF00
3FF1FF80
7FC07FC0
7F803FC0
7F001FC0
FF001FE0
FE000FE0
FE000FE0
FE000FE0
FE000FE0
FE000FE0
FE000FE0
FE000FE0
FF001FE0
7F001FE0
7F803FC0
7F803FC0
3FE0FF80
3FFFFF80
1FFFFF00
0FFFFE00
07FFFC00
01FFF000
007FC000
ENDCHAR
STARTCHAR 00F4
ENCODING 244
SWIDTH 620 0
DWIDTH 31 0
BBX 27 39 2 -1
BITMAP
003F0000
003F0000
007F8000
00F7C000
01F3E000
01E1E000
03C0F000
07807800
00000000
00000000
00000000
00FFE000
03FFF800
0FFFFE00
1FFFFF00
1FFFFF00
3FF1FF80
7FC07FC0
7F803FC0
7F001FC0
FF001FE0
FE000FE0
FE000FE0
FE000FE0
FE000FE0
FE000FE0
FE000FE0
FE000FE0
FF001FE0
7F001FE0
7F803FC0
7F803FC0
3FE0FF80
3FFFFF80
1FFFFF00
0FFFFE00
07FFFC00
01FFF000
007FC000
ENDCHAR
STARTCHAR 00F5
ENCODING 245
SWIDTH 620 0
DWIDTH 31 0
BBX 27 38 2 -1
BITMAP
01E01C00
03F83C00
03FFFC00
07FFF800
079FF800
0707E000
00000000
00000000
00000000
00000000
00FFE000
03FFF800
0FFFFE00
1FFFFF00
1FFFFF00
3FF1FF80
7FC07FC0
7F803FC0
7F001FC0
FF001FE0
FE000FE0
FE000FE0
FE000FE0
FE000FE0
FE000FE0
FE000FE0
FE000FE0
FF001FE0
7F001FE0
7F803FC0
7F803FC0
3FE0FF80
3FFFFF80
1FFFFF00
0FFFFE00
07FFFC00
01FFF000
007FC000
ENDCHAR
STARTCHAR 00F6
ENCODING 246
SWIDTH 620 0
DWIDTH 31 0
BBX 27 38 2 -1
BITMAP
03E0F800
03E0F800
03E0F800
03E0F800
03E0F800
03E0F800
03E0F800
00000000
00000000
00000000
00FFE000
03FFF800
0FFFFE00
1FFFFF00
1FFFFF00
3FF1FF80
7FC07FC0
7F803FC0
7F001FC0
FF001FE0
FE000FE0
FE000FE0
FE000FE0
FE000FE0
FE000FE0
FE000FE0
FE000FE0
FF001FE0
7F001FE0
7F803FC0
7F803FC0
3FE0FF80
3FFFFF80
1FFFFF00
0FFFFE00
07FFFC00
01FFF000
007FC000
ENDCHAR
STARTCHAR 00F7
ENCODING 247
SWIDTH 580 0
DWIDTH 29 0
BBX 24 24 3 0
BITMAP
007E00
007E00
007E00
007E00
007E00
007E00
000000
000000
000000
FFFFFF
FFFFFF
FFFFFF
FFFFFF
FFFFFF
FFFFFF
000000
000000
000000
007E00
007E00
007E00
007E00
007E00
007E00
ENDCHAR
STARTCHAR 00F8
ENCODING 248
SWIDTH 620 0
DWIDTH 31 0
BBX 29 30 1 -2
BITMAP
00000010
007FF038
01FFFC78
07FFFFF0
0FFFFFE0
0FFFFFC0
1FF8FFC0
3FE03FE0
3FC01FE0
3F803FE0
7F807FF0
7F00FFF0
7F01E7F0
7F03C7F0
7F0787F0
7F0F07F0
7F1E07F0
7F3C07F0
7FF80FF0
3FF00FF0
3FE01FE0
3FC01FE0
1FF07FC0
1FFFFFC0
1FFFFF80
3FFFFF00
7BFFFE00
F0FFF800
E03FE000
40000000
ENDCHAR
STARTCHAR 00F9
ENCODING 249
SWIDTH 620 0
DWIDTH 31 0
BBX 24 39 3 -1
BITMAP
07F000
03F000
01F800
00F800
007800
007C00
003C00
001E00
000000
000000
000000
FE007F
FE007F
FE007F
FE007F
FE007F
FE007F
FE007F
FE007F
FE007F
FE007F
FE007F
FE007F
FE007F
FE007F
FE007F
FE007F
FE007F
FE007F
FE007F
FE00FF
FF00FF
FF83FF
7FFFFF
7FFFFF
7FFF7F
3FFF7F
1FFC7F
03F000
ENDCHAR
STARTCHAR 00FA
ENCODING 250
SWIDTH 620 0
DWIDTH 31 0
BBX 24 39 3 -1
BITMAP
0007E0
000FC0
000F80
001F00
001F00
003E00
003C00
007800
000000
000000
000000
FE007F
FE007F
FE007F
FE007F
FE007F
FE007F
FE007F
FE007F
FE007F
FE007F
FE007F
FE007F
FE007F
FE007F
FE007F
FE007F
FE007F
FE007F
FE007F
FE00FF
FF00FF
FF83FF
7FFFFF
7FFFFF
7FFF7F
3FFF7F
1FFC7F
03F000
ENDCHAR
STARTCHAR 00FB
ENCODING 251
SWIDTH 620 0
DWIDTH 31 0
BBX 24 39 3 -1
BITMAP
007C00
00FE00
00FF00
01EF00
03C780
0783C0
0783C0
0F01E0
000000
000000
000000
FE007F
FE007F
FE007F
FE007F
FE007F
FE007F
FE007F
FE007F
FE007F
FE007F
FE007F
FE007F
FE007F
FE007F
FE007F
FE007F
FE007F
FE007F
FE007F
FE00FF
FF00FF
FF83FF
7FFFFF
7FFFFF
7FFF7F
3FFF7F
1FFC7F
03F000
ENDCHAR
STARTCHAR 00FC
ENCODING 252
SWIDTH 620 0
DWIDTH 31 0
BBX 24 38 3 -1
BITMAP
07C1F0
07C1F0
07C1F0
07C1F0
07C1F0
07C1F0
07C1F0
000000
000000
000000
FE007F
FE007F
FE007F
FE007F
FE007F
FE007F
FE007F
FE007F
FE007F
FE007F
FE007F
FE007F
FE007F
FE007F
FE007F
FE007F
FE007F
FE007F
FE007F
FE00FF
FF00FF
FF83FF
7FFFFF
7FFFFF
7FFF7F
3FFF7F
1FFC7F
03F000
ENDCHAR
STARTCHAR 00FD
ENCODING 253
SWIDTH 540 0
DWIDTH 27 0
BBX 26 48 1 -10
BITMAP
0007F000
0007E000
000FC000
000F8000
001F0000
001E0000
003C0000
003C0000
00000000
00000000
00000000
FE001FC0
FF003F80
FF003F80
7F003F80
7F807F00
3F807F00
3F807F00
3FC07E00
1FC0FE00
1FC0FE00
1FC0FC00
0FE1FC00
0FE1FC00
0FE1F800
07F1F800
07F3F000
03F3F000
03FBF000
03FFE000
01FFE000
01FFE000
01FFC000
00FFC000
00FFC000
00FF8000
007F8000
007F8000
003F0000
007F0000
007F0000
007E0000
00FE0000
1FFE0000
1FFC0000
1FFC0000
1FF80000
1FE00000
ENDCHAR
STARTCHAR 00FE
ENCODING 254
SWIDTH 620 0
DWIDTH 31 0
BBX 26 46 3 -10
BITMAP
FE000000
FE000000
FE000000
FE000000
FE000000
FE000000
FE000000
FE000000
FE000000
FE3FE000
FE7FF800
FEFFFC00
FFFFFE00
FFFFFE00
FFF3FF00
FFC0FF80
FF807F80
FF003F80
FF003FC0
FE001FC0
FE001FC0
FE001FC0
FE001FC0
FE001FC0
FE001FC0
FE001FC0
FF003FC0
FF003F80
FF003F80
FF807F80
FFE1FF00
FFFFFF00
FFFFFE00
FEFFFC00
FEFFF800
FE3FF000
FE0FC000
FE000000
FE000000
FE000000
FE000000
FE000000
FE000000
FE000000
FE000000
FE000000
ENDCHAR
STARTCHAR 00FF
ENCODING 255
SWIDTH 540 0
DWIDTH 27 0
BBX 26 47 1 -10
BITMAP
07E1F800
07E1F800
07E1F800
07E1F800
07E1F800
07E1F800
07E1F800
00000000
00000000
00000000
FE001FC0
FF003F80
FF003F80
7F003F80
7F807F00
3F807F00
3F807F00
3FC07E00
1FC0FE00
1FC0FE00
1FC0FC00
0FE1FC00
0FE1FC00
0FE1F800
07F1F800
07F3F000
03F3F000
03FBF000
03FFE000
01FFE000
01FFE000
01FFC000
00FFC000
00FFC000
00FF8000
007F8000
007F8000
003F0000
007F0000
007F0000
007E0000
00FE0000
1FFE0000
1FFC0000
1FFC0000
1FF80000
1FE00000
ENDCHAR
STARTCHAR 0100
ENCODING 256
SWIDTH 700 0
DWIDTH 35 0
BBX 33 44 1 0
BITMAP
003FFF8000
003FFF8000
003FFF8000
003FFF8000
0000000000
0000000000
0000000000
0000000000
000FF80000
000FF80000
000FFC0000
001FFC0000
001FFC0000
003FFE0000
003FFE0000
003FFE0000
007FFF0000
007F7F0000
007F7F0000
00FF7F8000
00FE3F8000
00FE3F8000
01FE3FC000
01FC1FC000
01FC1FE000
03FC1FE000
03F80FE000
07F80FF000
07F80FF000
07F007F000
0FF007F800
0FFFFFF800
0FFFFFF800
1FFFFFFC00
1FFFFFFC00
1FFFFFFC00
3FFFFFFE00
3FC001FE00
7F8000FE00
7F8000FF00
7F0000FF00
FF00007F00
FF00007F80
FE00007F80
ENDCHAR
STARTCHAR 0101
ENCODING 257
SWIDTH 560 0
DWIDTH 28 0
BBX 25 36 2 -1
BITMAP
0FFFE000
0FFFE000
0FFFE000
0FFFE000
00000000
00000000
00000000
00000000
03FFC000
0FFFF000
1FFFF800
3FFFFC00
7FFFFC00
7FC3FE00
7F00FE00
7F00FE00
0000FE00
0001FE00
0007FE00
00FFFE00
0FFFFE00
1FFFFE00
3FFEFE00
7FE0FE00
7F00FE00
FE00FE00
FE00FE00
FE01FE00
FE01FE00
FF03FE00
FFFFFE00
7FFFFE00
7FFFFE00
3FFEFF00
1FF87F80
07E00000
ENDCHAR
STARTCHAR 0102
ENCODING 258
SWIDTH 700 0
DWIDTH 35 0
BBX 33 44 1 0
BITMAP
001C0E0000
001C0E0000
001FBE0000
000FFE0000
000FFC0000
0003F00000
0000000000
0000000000
000FF80000
000FF80000
000FFC0000
001FFC0000
001FFC0000
003FFE0000
003FFE0000
003FFE0000
007FFF0000
007F7F0000
007F7F0000
00FF7F8000
00FE3F8000
00FE3F8000
01FE3FC000
01FC1FC000
01FC1FE000
03FC1FE000
03F80FE000
07F80FF000
07F80FF000
07F007F000
0FF007F800
0FFFFFF800
0FFFFFF800
1FFFFFFC00
1FFFFFFC00
1FFFFFFC00
3FFFFFFE00
3FC001FE00
7F8000FE00
7F8000FF00
7F0000FF00
FF00007F00
FF00007F80
FE00007F80
ENDCHAR
STARTCHAR 0103
ENCODING 259
SWIDTH 560 0
DWIDTH 28 0
BBX 25 38 2 -1
BITMAP
0380E000
0381E000
03C1C000
01FFC000
01FF8000
00FF0000
003E0000
00000000
00000000
00000000
03FFC000
0FFFF000
1FFFF800
3FFFFC00
7FFFFC00
7FC3FE00
7F00FE00
7F00FE00
0000FE00
0001FE00
0007FE00
00FFFE00
0FFFFE00
1FFFFE00
3FFEFE00
7FE0FE00
7F00FE00
FE00FE00
FE00FE00
FE01FE00
FE01FE00
FF03FE00
FFFFFE00
7FFFFE00
7FFFFE00
3FFEFF00
1FF87F80
07E00000
ENDCHAR
STARTCHAR 0104
ENCODING 260
SWIDTH 720 0
DWIDTH 36 0
BBX 35 48 1 -12
BITMAP
0007FC0000
0007FC0000
000FFC0000
000FFE0000
000FFE0000
001FFF0000
001FFF0000
001FFF0000
003FFF8000
003FFF8000
007F3F8000
007F3FC000
007F3FC000
00FE1FC000
00FE1FE000
00FE1FE000
01FC0FE000
01FC0FF000
01FC0FF000
03F807F000
03F807F800
03F807F800
07F003F800
07FFFFFC00
0FFFFFFC00
0FFFFFFC00
0FFFFFFE00
1FFFFFFE00
1FFFFFFF00
1FC000FF00
3FC000FF00
3FC0007F80
3F80007F80
7F80003F80
7F80003FC0
FF00003FC0
0000000780
0000001F00
0000003C00
0000007C00
0000007800
000000F800
000000F800
000000F800
000000F800
0000007FE0
0000003FE0
0000000FE0
ENDCHAR
STARTCHAR 0105
ENCODING 261
SWIDTH 560 0
DWIDTH 28 0
BBX 26 39 2 -11
BITMAP
03FFC000
0FFFF000
1FFFF800
3FFFFC00
7FFFFC00
7F83FE00
7F00FE00
7E00FE00
0000FE00
0001FE00
0007FE00
00FFFE00
0FFFFE00
1FFFFE00
3FFEFE00
7FC0FE00
7F00FE00
FE00FE00
FE00FE00
FE01FE00
FE01FE00
FF03FE00
FFFFFE00
7FFFFE00
7FFFFE00
3FFEFF00
1FF8FF80
07E01F00
00007C00
0000F800
0001F000
0001E000
0003E000
0003E000
0003E000
0003E000
0001FFC0
0000FFC0
00003FC0
ENDCHAR
STARTCHAR 0106
ENCODING 262
SWIDTH 720 0
DWIDTH 36 0
BBX 32 46 2 -1
BITMAP
00003F00
00007E00
0000FC00
0001F000
0003E000
0007C000
00000000
00000000
00000000
001FFE00
00FFFFC0
01FFFFE0
03FFFFF0
07FFFFF8
0FFFFFFC
1FFC07FE
3FF003FE
3FE001FF
7FC000FF
7F80007F
7F80007F
7F000000
FF000000
FF000000
FF000000
FF000000
FF000000
FF000000
FF000000
FF000000
FF000000
FF000000
FF000000
7F00007F
7F80007F
7F8000FF
3FC000FF
3FE001FF
1FF003FE
1FFE1FFC
0FFFFFFC
07FFFFF8
03FFFFF0
01FFFFC0
007FFF80
000FF800
ENDCHAR
STARTCHAR 0107
ENCODING 263
SWIDTH 560 0
DWIDTH 28 0
BBX 24 39 2 -1
BITMAP
0007E0
000FC0
000F80
001F00
001F00
003E00
003C00
007800
000000
000000
000000
01FFC0
07FFF0
0FFFF8
1FFFFC
3FFFFE
3FE1FF
7F80FF
7F007F
7F003F
FF0000
FE0000
FE0000
FE0000
FE0000
FE0000
FE0000
FE0000
FE0000
FF003F
7F007F
7F807F
7FC0FF
3FFFFE
1FFFFE
0FFFFC
07FFF8
03FFE0
007F80
ENDCHAR
STARTCHAR 0108
ENCODING 264
SWIDTH 720 0
DWIDTH 36 0
BBX 32 46 2 -1
BITMAP
0003F000
0007F800
000FFC00
001F7E00
003E1F00
007C0F00
00000000
00000000
00000000
001FFE00
00FFFFC0
01FFFFE0
03FFFFF0
07FFFFF8
0FFFFFFC
1FFC07FE
3FF003FE
3FE001FF
7FC000FF
7F80007F
7F80007F
7F000000
FF000000
FF000000
FF000000
FF000000
FF000000
FF000000
FF000000
FF000000
FF000000
FF000000
FF000000
7F00007F
7F80007F
7F8000FF
3FC000FF
3FE001FF
1FF003FE
1FFE1FFC
0FFFFFFC
07FFFFF8
03FFFFF0
01FFFFC0
007FFF80
000FF800
ENDCHAR
STARTCHAR 0109
ENCODING 265
SWIDTH 560 0
DWIDTH 28 0
BBX 24 39 2 -1
BITMAP
003E00
007F00
00FF80
00F780
01E3C0
03C1E0
03C1F0
0780F0
000000
000000
000000
01FFC0
07FFF0
0FFFF8
1FFFFC
3FFFFE
3FE1FF
7F80FF
7F007F
7F003F
FF0000
FE0000
FE0000
FE0000
FE0000
FE0000
FE0000
FE0000
FE0000
FF003F
7F007F
7F807F
7FC0FF
3FFFFE
1FFFFE
0FFFFC
07FFF8
03FFE0
007F80
ENDCHAR
STARTCHAR 010A
ENCODING 266
SWIDTH 720 0
DWIDTH 36 0
BBX 32 45 2 -1
BITMAP
0001F000
0001F000
0001F000
0001F000
0001F000
0001F000
00000000
00000000
001FFE00
00FFFFC0
01FFFFE0
03FFFFF0
07FFFFF8
0FFFFFFC
1FFC07FE
3FF003FE
3FE001FF
7FC000FF
7F80007F
7F80007F
7F000000
FF000000
FF000000
FF000000
FF000000
FF000000
FF000000
FF000000
FF000000
FF000000
FF000000
FF000000
7F00007F
7F80007F
7F8000FF
3FC000FF
3FE001FF
1FF003FE
1FFE1FFC
0FFFFFFC
07FFFFF8
03FFFFF0
01FFFFC0
007FFF80
000FF800
ENDCHAR
STARTCHAR 010B
ENCODING 267
SWIDTH 560 0
DWIDTH 28 0
BBX 24 37 2 -1
BITMAP
001F00
001F00
001F00
001F00
001F00
001F00
000000
000000
000000
01FFC0
07FFF0
0FFFF8
1FFFFC
3FFFFE
3FE1FF
7F80FF
7F007F
7F003F
FF0000
FE0000
FE0000
FE0000
FE0000
FE0000
FE0000
FE0000
FE0000
FF003F
7F007F
7F807F
7FC0FF
3FFFFE
1FFFFE
0FFFFC
07FFF8
03FFE0
007F80
ENDCHAR
STARTCHAR 010C
ENCODING 268
SWIDTH 720 0
DWIDTH 36 0
BBX 32 46 2 -1
BITMAP
00F81F00
007C3E00
003E7C00
001FF800
000FF000
0007E000
00000000
00000000
00000000
001FFE00
00FFFFC0
01FFFFE0
03FFFFF0
07FFFFF8
0FFFFFFC
1FFC07FE
3FF003FE
3FE001FF
7FC000FF
7F80007F
7F80007F
7F000000
FF000000
FF000000
FF000000
FF000000
FF000000
FF000000
FF000000
FF000000
FF000000
FF000000
FF000000
7F00007F
7F80007F
7F8000FF
3FC000FF
3FE001FF
1FF003FE
1FFE1FFC
0FFFFFFC
07FFFFF8
03FFFFF0
01FFFFC0
007FFF80
000FF800
ENDCHAR
STARTCHAR 010D
ENCODING 269
SWIDTH 560 0
DWIDTH 28 0
BBX 24 39 2 -1
BITMAP
0F00F0
0781E0
07C3E0
03E3C0
01E780
00FF00
00FF00
007E00
000000
000000
000000
01FFC0
07FFF0
0FFFF8
1FFFFC
3FFFFE
3FE1FF
7F80FF
7F007F
7F003F
FF0000
FE0000
FE0000
FE0000
FE0000
FE0000
FE0000
FE0000
FE0000
FF003F
7F007F
7F807F
7FC0FF
3FFFFE
1FFFFE
0FFFFC
07FFF8
03FFE0
007F80
ENDCHAR
STARTCHAR 010E
ENCODING 270
SWIDTH 720 0
DWIDTH 36 0
BBX 31 45 4 0
BITMAP
07C0F800
03E1F000
01F3E000
00FFC000
007F8000
003F0000
00000000
00000000
00000000
FFFFF000
FFFFFE00
FFFFFF00
FFFFFF80
FFFFFFC0
FFFFFFE0
FF007FF0
FF001FF0
FF000FF8
FF0007F8
FF0003F8
FF0003FC
FF0003FC
FF0001FC
FF0001FC
FF0001FC
FF0001FC
FF0001FE
FF0001FE
FF0001FC
FF0001FC
FF0001FC
FF0001FC
FF0003FC
FF0003FC
FF0003FC
FF0007F8
FF000FF8
FF001FF0
FF007FF0
FFFFFFE0
FFFFFFC0
FFFFFF80
FFFFFF00
FFFFFC00
FFFFE000
ENDCHAR
STARTCHAR 010F
ENCODING 271
SWIDTH 780 0
DWIDTH 39 0
BBX 37 38 2 -1
BITMAP
00000001F8
00001FC1F8
00001FC3F0
00001FC3E0
00001FC3C0
00001FC780
00001FC780
00001FCF00
00001FC000
00001FC000
01FF1FC000
07FF9FC000
0FFFDFC000
1FFFFFC000
1FFFFFC000
3FF3FFC000
7FC0FFC000
7F807FC000
7F003FC000
FF003FC000
FE001FC000
FE001FC000
FE001FC000
FE001FC000
FE001FC000
FE001FC000
FE001FC000
FF003FC000
7F003FC000
7F803FC000
7F807FC000
3FE1FFC000
3FFFFFC000
1FFFFFC000
0FFFFFC000
07FFDFC000
03FF9FC000
00FE000000
ENDCHAR
STARTCHAR 0110
ENCODING 272
SWIDTH 740 0
DWIDTH 37 0
BBX 33 36 2 0
BITMAP
1FFFFC0000
1FFFFF8000
1FFFFFE000
1FFFFFF000
1FFFFFF800
1FFFFFFC00
1FE00FFC00
1FE003FE00
1FE001FE00
1FE000FF00
1FE0007F00
1FE0007F00
1FE0007F00
1FE0003F80
1FE0003F80
FFFFC03F80
FFFFC03F80
FFFFC03F80
FFFFC03F80
1FE0003F80
1FE0003F80
1FE0003F80
1FE0003F80
1FE0007F00
1FE0007F00
1FE0007F00
1FE000FF00
1FE001FE00
1FE003FE00
1FE00FFC00
1FFFFFFC00
1FFFFFF800
1FFFFFF000
1FFFFFE000
1FFFFF8000
1FFFFC0000
ENDCHAR
STARTCHAR 0111
ENCODING 273
SWIDTH 620 0
DWIDTH 31 0
BBX 29 37 2 -1
BITMAP
00001FC0
00001FC0
00001FC0
0007FFF8
0007FFF8
0007FFF8
00001FC0
00001FC0
00001FC0
01FF1FC0
07FF9FC0
0FFFDFC0
1FFFFFC0
1FFFFFC0
3FF3FFC0
7FC0FFC0
7F807FC0
7F003FC0
FF003FC0
FE001FC0
FE001FC0
FE001FC0
FE001FC0
FE001FC0
FE001FC0
FE001FC0
FF003FC0
7F003FC0
7F803FC0
7F807FC0
3FE1FFC0
3FFFFFC0
1FFFFFC0
0FFFFFC0
07FFDFC0
03FF9FC0
00FE0000
ENDCHAR
STARTCHAR 0112
ENCODING 274
SWIDTH 660 0
DWIDTH 33 0
BBX 27 44 4 0
BITMAP
03FFF800
03FFF800
03FFF800
03FFF800
00000000
00000000
00000000
00000000
FFFFFFC0
FFFFFFC0
FFFFFFC0
FFFFFFC0
FFFFFFC0
FFFFFFC0
FF000000
FF000000
FF000000
FF000000
FF000000
FF000000
FF000000
FF000000
FFFFFF80
FFFFFF80
FFFFFF80
FFFFFF80
FFFFFF80
FFFFFF80
FF000000
FF000000
FF000000
FF000000
FF000000
FF000000
FF000000
FF000000
FF000000
FF000000
FFFFFFE0
FFFFFFE0
FFFFFFE0
FFFFFFE0
FFFFFFE0
FFFFFFE0
ENDCHAR
STARTCHAR 0113
ENCODING 275
SWIDTH 580 0
DWIDTH 29 0
BBX 25 36 2 -1
BITMAP
07FFF000
07FFF000
07FFF000
07FFF000
00000000
00000000
00000000
00000000
01FFC000
07FFE000
0FFFF800
1FFFFC00
1FFFFC00
3FC1FE00
7F80FE00
7F007F00
7F007F00
7E003F00
FE003F80
FFFFFF80
FFFFFF80
FFFFFF80
FFFFFF80
FFFFFF80
FE000000
FE000000
FE000000
7F000000
7F003F80
7F807F00
3FE1FF00
1FFFFE00
1FFFFC00
0FFFF800
03FFE000
00FF0000
ENDCHAR
STARTCHAR 0114
ENCODING 276
SWIDTH 660 0
DWIDTH 33 0
BBX 27 44 4 0
BITMAP
01C07000
01E0F000
00FBE000
00FFE000
007FC000
003F8000
00000000
00000000
FFFFFFC0
FFFFFFC0
FFFFFFC0
FFFFFFC0
FFFFFFC0
FFFFFFC0
FF000000
FF000000
FF000000
FF000000
FF000000
FF000000
FF000000
FF000000
FFFFFF80
FFFFFF80
FFFFFF80
FFFFFF80
FFFFFF80
FFFFFF80
FF000000
FF000000
FF000000
FF000000
FF000000
FF000000
FF000000
FF000000
FF000000
FF000000
FFFFFFE0
FFFFFFE0
FFFFFFE0
FFFFFFE0
FFFFFFE0
FFFFFFE0
ENDCHAR
STARTCHAR 0115
ENCODING 277
SWIDTH 580 0
DWIDTH 29 0
BBX 25 40 2 -1
BITMAP
0380E000
0380E000
03C1E000
01FFC000
01FFC000
00FF8000
003F0000
00000000
00000000
00000000
00000000
00000000
01FFC000
07FFE000
0FFFF800
1FFFFC00
1FFFFC00
3FC1FE00
7F80FE00
7F007F00
7F007F00
7E003F00
FE003F80
FFFFFF80
FFFFFF80
FFFFFF80
FFFFFF80
FFFFFF80
FE000000
FE000000
FE000000
7F000000
7F003F80
7F807F00
3FE1FF00
1FFFFE00
1FFFFC00
0FFFF800
03FFE000
00FF0000
ENDCHAR
STARTCHAR 0116
ENCODING 278
SWIDTH 660 0
DWIDTH 33 0
BBX 27 44 4 0
BITMAP
001F0000
001F0000
001F0000
001F0000
001F0000
001F0000
00000000
00000000
FFFFFFC0
FFFFFFC0
FFFFFFC0
FFFFFFC0
FFFFFFC0
FFFFFFC0
FF000000
FF000000
FF000000
FF000000
FF000000
FF000000
FF000000
FF000000
FFFFFF80
FFFFFF80
FFFFFF80
FFFFFF80
FFFFFF80
FFFFFF80
FF000000
FF000000
FF000000
FF000000
FF000000
FF000000
FF000000
FF000000
FF000000
FF000000
FFFFFFE0
FFFFFFE0
FFFFFFE0
FFFFFFE0
FFFFFFE0
FFFFFFE0
ENDCHAR
STARTCHAR 0117
ENCODING 279
SWIDTH 580 0
DWIDTH 29 0
BBX 25 38 2 -1
BITMAP
003E0000
003E0000
003E0000
003E0000
003E0000
003E0000
003E0000
00000000
00000000
00000000
01FFC000
07FFE000
0FFFF800
1FFFFC00
1FFFFC00
3FC1FE00
7F80FE00
7F007F00
7F007F00
7E003F00
FE003F80
FFFFFF80
FFFFFF80
FFFFFF80
FFFFFF80
FFFFFF80
FE000000
FE000000
FE000000
7F000000
7F003F80
7F807F00
3FE1FF00
1FFFFE00
1FFFFC00
0FFFF800
03FFE000
00FF0000
ENDCHAR
STARTCHAR 0118
ENCODING 280
SWIDTH 660 0
DWIDTH 33 0
BBX 28 48 4 -12
BITMAP
FFFFFFC0
FFFFFFC0
FFFFFFC0
FFFFFFC0
FFFFFFC0
FFFFFFC0
FF000000
FF000000
FF000000
FF000000
FF000000
FF000000
FF000000
FF000000
FFFFFF80
FFFFFF80
FFFFFF80
FFFFFF80
FFFFFF80
FFFFFF80
FF000000
FF000000
FF000000
FF000000
FF000000
FF000000
FF000000
FF000000
FF000000
FF000000
FFFFFFE0
FFFFFFE0
FFFFFFE0
FFFFFFE0
FFFFFFE0
FFFFFFE0
000003C0
00000700
00001E00
00003E00
00003C00
00007C00
00007C00
00007C00
00007C00
00003FF0
00001FF0
000007F0
ENDCHAR
STARTCHAR 0119
ENCODING 281
SWIDTH 580 0
DWIDTH 29 0
BBX 25 39 2 -11
BITMAP
01FFC000
03FFF000
0FFFF800
1FFFFC00
1FFFFE00
3FC1FE00
7F807F00
7F007F00
7F003F80
7E003F80
FE003F80
FFFFFF80
FFFFFF80
FFFFFF80
FFFFFF80
FFFFFF80
FE000000
FE000000
FE000000
7F003F80
7F003F80
7F807F00
3FF1FF00
1FFFFE00
0FFFFC00
07FFF800
03FFF000
007F6000
0001E000
0003C000
00078000
00078000
000F8000
000F8000
000F8000
000F8000
0007FE00
0003FE00
0000FE00
ENDCHAR
STARTCHAR 011A
ENCODING 282
SWIDTH 660 0
DWIDTH 33 0
BBX 27 45 4 0
BITMAP
07C0F800
03E1F000
01F3E000
00FFC000
007F8000
003F0000
00000000
00000000
00000000
FFFFFFC0
FFFFFFC0
FFFFFFC0
FFFFFFC0
FFFFFFC0
FFFFFFC0
FF000000
FF000000
FF000000
FF000000
FF000000
FF000000
FF000000
FF000000
FFFFFF80
FFFFFF80
FFFFFF80
FFFFFF80
FFFFFF80
FFFFFF80
FF000000
FF000000
FF000000
FF000000
FF000000
FF000000
FF000000
FF000000
FF000000
FF000000
FFFFFFE0
FFFFFFE0
FFFFFFE0
FFFFFFE0
FFFFFFE0
FFFFFFE0
ENDCHAR
STARTCHAR 011B
ENCODING 283
SWIDTH 580 0
DWIDTH 29 0
BBX 25 39 2 -1
BITMAP
0F00F000
0F01E000
0783C000
03C78000
03EF8000
01FF0000
00FE0000
00FC0000
00000000
00000000
00000000
01FFC000
07FFE000
0FFFF800
1FFFFC00
1FFFFC00
3FC1FE00
7F80FE00
7F007F00
7F007F00
7E003F00
FE003F80
FFFFFF80
FFFFFF80
FFFFFF80
FFFFFF80
FFFFFF80
FE000000
FE000000
FE000000
7F000000
7F003F80
7F807F00
3FE1FF00
1FFFFE00
1FFFFC00
0FFFF800
03FFE000
00FF0000
ENDCHAR
STARTCHAR 011C
ENCODING 284
SWIDTH 760 0
DWIDTH 38 0
BBX 34 46 2 -1
BITMAP
0003F00000
0007F80000
000FFC0000
001F7E0000
003E1F0000
007C0F0000
0000000000
0000000000
0000000000
001FFF0000
007FFFE000
00FFFFF000
03FFFFFC00
07FFFFFE00
0FFFFFFE00
0FFC03FF00
1FF000FF80
3FE0007F80
3FC0003F80
7F80003F80
7F80000000
7F00000000
7F00000000
FF00000000
FF00000000
FF00000000
FF001FFFC0
FF001FFFC0
FF001FFFC0
FF001FFFC0
FF001FFFC0
FF001FFFC0
FF00001FC0
7F80001FC0
7F80001FC0
7FC0003FC0
3FE0007FC0
3FF000FFC0
1FF801FFC0
0FFF0FFFC0
07FFFFFFC0
07FFFFEFC0
01FFFFC7C0
00FFFF87C0
003FFF07C0
0007F80000
ENDCHAR
STARTCHAR 011D
ENCODING 285
SWIDTH 620 0
DWIDTH 31 0
BBX 26 49 2 -10
BITMAP
003F0000
007F8000
00FFC000
00F3C000
01E1E000
03C1F000
03C0F000
04000000
00000000
00000000
00000000
00000000
01FE1FC0
07FF9FC0
0FFFDFC0
1FFFFFC0
1FFFFFC0
3FF3FFC0
7FC0FFC0
7F807FC0
7F003FC0
FF003FC0
FE001FC0
FE001FC0
FE001FC0
FE001FC0
FE001FC0
FE001FC0
FE001FC0
FF001FC0
FF003FC0
7F003FC0
7F807FC0
7FC1FFC0
3FFFFFC0
1FFFFFC0
1FFFFFC0
0FFFDFC0
03FF1FC0
00FC1FC0
00001FC0
00001FC0
7F003FC0
7F807F80
7FC0FF80
3FFFFF00
1FFFFE00
0FFFFC00
03FFE000
ENDCHAR
STARTCHAR 011E
ENCODING 286
SWIDTH 760 0
DWIDTH 38 0
BBX 34 45 2 -1
BITMAP
001C070000
001E0F0000
001FBE0000
000FFE0000
0007FC0000
0003F80000
0000000000
0000000000
001FFF0000
007FFFE000
00FFFFF000
03FFFFFC00
07FFFFFE00
0FFFFFFE00
0FFC03FF00
1FF000FF80
3FE0007F80
3FC0003F80
7F80003F80
7F80000000
7F00000000
7F00000000
FF00000000
FF00000000
FF00000000
FF001FFFC0
FF001FFFC0
FF001FFFC0
FF001FFFC0
FF001FFFC0
FF001FFFC0
FF00001FC0
7F80001FC0
7F80001FC0
7FC0003FC0
3FE0007FC0
3FF000FFC0
1FF801FFC0
0FFF0FFFC0
07FFFFFFC0
07FFFFEFC0
01FFFFC7C0
00FFFF87C0
003FFF07C0
0007F80000
ENDCHAR
STARTCHAR 011F
ENCODING 287
SWIDTH 620 0
DWIDTH 31 0
BBX 26 47 2 -10
BITMAP
01C07000
01C07000
01E0F000
00FFE000
00FFE000
007FC000
001F0000
00000000
00000000
00000000
01FE1FC0
07FF9FC0
0FFFDFC0
1FFFFFC0
1FFFFFC0
3FF3FFC0
7FC0FFC0
7F807FC0
7F003FC0
FF003FC0
FE001FC0
FE001FC0
FE001FC0
FE001FC0
FE001FC0
FE001FC0
FE001FC0
FF001FC0
FF003FC0
7F003FC0
7F807FC0
7FC1FFC0
3FFFFFC0
1FFFFFC0
1FFFFFC0
0FFFDFC0
03FF1FC0
00FC1FC0
00001FC0
00001FC0
7F003FC0
7F807F80
7FC0FF80
3FFFFF00
1FFFFE00
0FFFFC00
03FFE000
ENDCHAR
STARTCHAR 0120
ENCODING 288
SWIDTH 760 0
DWIDTH 38 0
BBX 34 45 2 -1
BITMAP
0000F80000
0000F80000
0000F80000
0000F80000
0000F80000
0000F80000
0000000000
0000000000
001FFF0000
007FFFE000
00FFFFF000
03FFFFFC00
07FFFFFE00
0FFFFFFE00
0FFC03FF00
1FF000FF80
3FE0007F80
3FC0003F80
7F80003F80
7F80000000
7F00000000
7F00000000
FF00000000
FF00000000
FF00000000
FF001FFFC0
FF001FFFC0
FF001FFFC0
FF001FFFC0
FF001FFFC0
FF001FFFC0
FF00001FC0
7F80001FC0
7F80001FC0
7FC0003FC0
3FE0007FC0
3FF000FFC0
1FF801FFC0
0FFF0FFFC0
07FFFFFFC0
07FFFFEFC0
01FFFFC7C0
00FFFF87C0
003FFF07C0
0007F80000
ENDCHAR
STARTCHAR 0121
ENCODING 289
SWIDTH 620 0
DWIDTH 31 0
BBX 26 47 2 -10
BITMAP
001F8000
001F8000
001F8000
001F8000
001F8000
001F8000
00000000
00000000
00000000
00000000
01FE1FC0
07FF9FC0
0FFFDFC0
1FFFFFC0
1FFFFFC0
3FF3FFC0
7FC0FFC0
7F807FC0
7F003FC0
FF003FC0
FE001FC0
FE001FC0
FE001FC0
FE001FC0
FE001FC0
FE001FC0
FE001FC0
FF001FC0
FF003FC0
7F003FC0
7F807FC0
7FC1FFC0
3FFFFFC0
1FFFFFC0
1FFFFFC0
0FFFDFC0
03FF1FC0
00FC1FC0
00001FC0
00001FC0
7F003FC0
7F807F80
7FC0FF80
3FFFFF00
1FFFFE00
0FFFFC00
03FFE000
ENDCHAR
STARTCHAR 0122
ENCODING 290
SWIDTH 760 0
DWIDTH 38 0
BBX 34 51 2 -14
BITMAP
001FFF0000
007FFFE000
00FFFFF000
03FFFFFC00
07FFFFFE00
0FFFFFFE00
0FFC03FF00
1FF000FF80
3FE0007F80
3FC0003F80
7F80003F80
7F80000000
7F00000000
7F00000000
FF00000000
FF00000000
FF00000000
FF001FFFC0
FF001FFFC0
FF001FFFC0
FF001FFFC0
FF001FFFC0
FF001FFFC0
FF00001FC0
7F80001FC0
7F80001FC0
7FC0003FC0
3FE0007FC0
3FF000FFC0
1FF801FFC0
0FFF0FFFC0
07FFFFFFC0
07FFFFEFC0
01FFFFC7C0
00FFFF87C0
003FFF07C0
0007F80000
0000000000
0000000000
0000000000
0003F00000
0003F00000
0003F00000
0003F00000
0003F00000
0000700000
0000700000
0000F00000
0001E00000
0003C00000
0003000000
ENDCHAR
STARTCHAR 0123
ENCODING 291
SWIDTH 620 0
DWIDTH 31 0
BBX 26 53 2 -10
BITMAP
00030000
000F0000
001E0000
003C0000
00380000
00380000
003F0000
003F0000
003F0000
003F0000
003F0000
00000000
00000000
00000000
00000000
00000000
01FE1FC0
07FF9FC0
0FFFDFC0
1FFFFFC0
1FFFFFC0
3FF3FFC0
7FC0FFC0
7F807FC0
7F003FC0
FF003FC0
FE001FC0
FE001FC0
FE001FC0
FE001FC0
FE001FC0
FE001FC0
FE001FC0
FF001FC0
FF003FC0
7F003FC0
7F807FC0
7FC1FFC0
3FFFFFC0
1FFFFFC0
1FFFFFC0
0FFFDFC0
03FF1FC0
00FC1FC0
00001FC0
00001FC0
7F003FC0
7F807F80
7FC0FF80
3FFFFF00
1FFFFE00
0FFFFC00
03FFE000
ENDCHAR
STARTCHAR 0124
ENCODING 292
SWIDTH 740 0
DWIDTH 37 0
BBX 30 45 4 0
BITMAP
001F8000
003FC000
007FE000
00FBF000
01F0F800
03E07800
00000000
00000000
00000000
FF0003FC
FF0003FC
FF0003FC
FF0003FC
FF0003FC
FF0003FC
FF0003FC
FF0003FC
FF0003FC
FF0003FC
FF0003FC
FF0003FC
FF0003FC
FF0003FC
FFFFFFFC
FFFFFFFC
FFFFFFFC
FFFFFFFC
FFFFFFFC
FFFFFFFC
FF0003FC
FF0003FC
FF0003FC
FF0003FC
FF0003FC
FF0003FC
FF0003FC
FF0003FC
FF0003FC
FF0003FC
FF0003FC
FF0003FC
FF0003FC
FF0003FC
FF0003FC
FF0003FC
ENDCHAR
STARTCHAR 0125
ENCODING 293
SWIDTH 600 0
DWIDTH 30 0
BBX 24 45 3 0
BITMAP
001F00
003F80
007FC0
00FBC0
00F1E0
01E1F0
03C0F0
038078
000000
FE0000
FE0000
FE0000
FE0000
FE0000
FE0000
FE0000
FE0000
FE0000
FE1FF0
FE7FF8
FEFFFC
FFFFFE
FFFFFE
FFF7FF
FF80FF
FF00FF
FF007F
FE007F
FE007F
FE007F
FE007F
FE007F
FE007F
FE007F
FE007F
FE007F
FE007F
FE007F
FE007F
FE007F
FE007F
FE007F
FE007F
FE007F
FE007F
ENDCHAR
STARTCHAR 0126
ENCODING 294
SWIDTH 720 0
DWIDTH 36 0
BBX 35 36 1 0
BITMAP
1FE000FF00
1FE000FF00
1FE000FF00
1FE000FF00
1FE000FF00
1FE000FF00
1FE000FF00
FFFFFFFFE0
FFFFFFFFE0
FFFFFFFFE0
1FE000FF00
1FE000FF00
1FE000FF00
1FE000FF00
1FFFFFFF00
1FFFFFFF00
1FFFFFFF00
1FFFFFFF00
1FFFFFFF00
1FFFFFFF00
1FE000FF00
1FE000FF00
1FE000FF00
1FE000FF00
1FE000FF00
1FE000FF00
1FE000FF00
1FE000FF00
1FE000FF00
1FE000FF00
1FE000FF00
1FE000FF00
1FE000FF00
1FE000FF00
1FE000FF00
1FE000FF00
ENDCHAR
STARTCHAR 0127
ENCODING 295
SWIDTH 600 0
DWIDTH 30 0
BBX 26 36 1 0
BITMAP
3F800000
3F800000
3F800000
FFFE0000
FFFE0000
FFFE0000
3F800000
3F800000
3F800000
3F87FC00
3F9FFE00
3FBFFF00
3FFFFF80
3FFFFF80
3FFDFFC0
3FE03FC0
3FC03FC0
3FC01FC0
3F801FC0
3F801FC0
3F801FC0
3F801FC0
3F801FC0
3F801FC0
3F801FC0
3F801FC0
3F801FC0
3F801FC0
3F801FC0
3F801FC0
3F801FC0
3F801FC0
3F801FC0
3F801FC0
3F801FC0
3F801FC0
ENDCHAR
STARTCHAR 0128
ENCODING 296
SWIDTH 320 0
DWIDTH 16 0
BBX 17 45 -1 0
BITMAP
000380
3F0380
7FCF80
7FFF80
7FFF00
F0FF00
000000
000000
000000
03F800
03F800
03F800
03F800
03F800
03F800
03F800
03F800
03F800
03F800
03F800
03F800
03F800
03F800
03F800
03F800
03F800
03F800
03F800
03F800
03F800
03F800
03F800
03F800
03F800
03F800
03F800
03F800
03F800
03F800
03F800
03F800
03F800
03F800
03F800
03F800
ENDCHAR
STARTCHAR 0129
ENCODING 297
SWIDTH 300 0
DWIDTH 15 0
BBX 17 38 -1 0
BITMAP
1C0380
3F0780
7FFF80
FFFF00
F3FF00
E07E00
000000
000000
000000
000000
000000
03F800
03F800
03F800
03F800
03F800
03F800
03F800
03F800
03F800
03F800
03F800
03F800
03F800
03F800
03F800
03F800
03F800
03F800
03F800
03F800
03F800
03F800
03F800
03F800
03F800
03F800
03F800
ENDCHAR
STARTCHAR 012A
ENCODING 298
SWIDTH 320 0
DWIDTH 16 0
BBX 14 44 1 0
BITMAP
FFFC
FFFC
FFFC
FFFC
0000
0000
0000
0000
1FE0
1FE0
1FE0
1FE0
1FE0
1FE0
1FE0
1FE0
1FE0
1FE0
1FE0
1FE0
1FE0
1FE0
1FE0
1FE0
1FE0
1FE0
1FE0
1FE0
1FE0
1FE0
1FE0
1FE0
1FE0
1FE0
1FE0
1FE0
1FE0
1FE0
1FE0
1FE0
1FE0
1FE0
1FE0
1FE0
ENDCHAR
STARTCHAR 012B
ENCODING 299
SWIDTH 280 0
DWIDTH 14 0
BBX 13 35 1 0
BITMAP
FFF8
FFF8
FFF8
FFF8
0000
0000
0000
0000
1FC0
1FC0
1FC0
1FC0
1FC0
1FC0
1FC0
1FC0
1FC0
1FC0
1FC0
1FC0
1FC0
1FC0
1FC0
1FC0
1FC0
1FC0
1FC0
1FC0
1FC0
1FC0
1FC0
1FC0
1FC0
1FC0
1FC0
ENDCHAR
STARTCHAR 012C
ENCODING 300
SWIDTH 320 0
DWIDTH 16 0
BBX 13 44 1 0
BITMAP
E038
7038
7DF8
7FF0
3FE0
1FC0
0000
0000
1FE0
1FE0
1FE0
1FE0
1FE0
1FE0
1FE0
1FE0
1FE0
1FE0
1FE0
1FE0
1FE0
1FE0
1FE0
1FE0
1FE0
1FE0
1FE0
1FE0
1FE0
1FE0
1FE0
1FE0
1FE0
1FE0
1FE0
1FE0
1FE0
1FE0
1FE0
1FE0
1FE0
1FE0
1FE0
1FE0
ENDCHAR
STARTCHAR 012D
ENCODING 301
SWIDTH 300 0
DWIDTH 15 0
BBX 13 39 1 0
BITMAP
E038
E038
F078
7FF0
7FF0
3FE0
1F80
0000
0000
0000
0000
0000
1FE0
1FE0
1FE0
1FE0
1FE0
1FE0
1FE0
1FE0
1FE0
1FE0
1FE0
1FE0
1FE0
1FE0
1FE0
1FE0
1FE0
1FE0
1FE0
1FE0
1FE0
1FE0
1FE0
1FE0
1FE0
1FE0
1FE0
ENDCHAR
STARTCHAR 012E
ENCODING 302
SWIDTH 300 0
DWIDTH 15 0
BBX 10 48 3 -12
BITMAP
7F80
7F80
7F80
7F80
7F80
7F80
7F80
7F80
7F80
7F80
7F80
7F80
7F80
7F80
7F80
7F80
7F80
7F80
7F80
7F80
7F80
7F80
7F80
7F80
7F80
7F80
7F80
7F80
7F80
7F80
7F80
7F80
7F80
7F80
7F80
7F80
0700
0E00
3C00
7C00
7800
F800
F800
F800
F800
7FC0
7FC0
1FC0
ENDCHAR
STARTCHAR 012F
ENCODING 303
SWIDTH 280 0
DWIDTH 14 0
BBX 10 48 1 -12
BITMAP
3F80
3F80
3F80
3F80
3F80
3F80
0000
0000
0000
3F80
3F80
3F80
3F80
3F80
3F80
3F80
3F80
3F80
3F80
3F80
3F80
3F80
3F80
3F80
3F80
3F80
3F80
3F80
3F80
3F80
3F80
3F80
3F80
3F80
3F80
3F80
0780
0E00
3C00
7C00
7800
F800
F800
F800
F800
7FC0
3FC0
0FC0
ENDCHAR
STARTCHAR 0130
ENCODING 304
SWIDTH 320 0
DWIDTH 16 0
BBX 8 44 4 0
BITMAP
3E
3E
3E
3E
3E
3E
00
00
FF
FF
FF
FF
FF
FF
FF
FF
FF
FF
FF
FF
FF
FF
FF
FF
FF
FF
FF
FF
FF
FF
FF
FF
FF
FF
FF
FF
FF
FF
FF
FF
FF
FF
FF
FF
ENDCHAR
STARTCHAR 0131
ENCODING 305
SWIDTH 280 0
DWIDTH 14 0
BBX 7 27 4 0
BITMAP
FE
FE
FE
FE
FE
FE
FE
FE
FE
FE
FE
FE
FE
FE
FE
FE
FE
FE
FE
FE
FE
FE
FE
FE
FE
FE
FE
ENDCHAR
STARTCHAR 0132
ENCODING 306
SWIDTH 620 0
DWIDTH 31 0
BBX 24 37 4 -1
BITMAP
FF00FF
FF00FF
FF00FF
FF00FF
FF00FF
FF00FF
FF00FF
FF00FF
FF00FF
FF00FF
FF00FF
FF00FF
FF00FF
FF00FF
FF00FF
FF00FF
FF00FF
FF00FF
0000FF
0000FF
0000FF
0000FF
0000FF
FF00FF
FF00FF
FF00FF
FF00FF
FF00FF
FF00FE
FF01FE
7FE7FE
7FFFFE
3FFFFC
3FFFF8
1FFFF0
07FFE0
00FF00
ENDCHAR
STARTCHAR 0133
ENCODING 307
SWIDTH 540 0
DWIDTH 27 0
BBX 20 46 4 -10
BITMAP
FE07F0
FE07F0
FE07F0
FE07F0
FE07F0
FE07F0
000000
000000
000000
FE07F0
FE07F0
FE07F0
FE07F0
FE07F0
FE07F0
FE07F0
FE07F0
FE07F0
FE07F0
FE07F0
FE07F0
FE07F0
FE07F0
FE07F0
FE07F0
FE07F0
FE07F0
FE07F0
FE07F0
FE07F0
FE07F0
FE07F0
FE07F0
FE07F0
FE07F0
FE07F0
0007F0
0007F0
0007F0
0007F0
000FF0
003FF0
003FF0
003FF0
003FE0
003FC0
ENDCHAR
STARTCHAR 0134
ENCODING 308
SWIDTH 580 0
DWIDTH 29 0
BBX 23 46 2 -1
BITMAP
00FC00
01FE00
03FF00
07DF80
0F87C0
1F03C0
000000
000000
000000
0001FE
0001FE
0001FE
0001FE
0001FE
0001FE
0001FE
0001FE
0001FE
0001FE
0001FE
0001FE
0001FE
0001FE
0001FE
0001FE
0001FE
0001FE
0001FE
0001FE
0001FE
0001FE
0001FE
FF01FE
FF01FE
FF01FE
FF01FE
FF01FE
FF01FC
FF03FC
7FCFFC
7FFFFC
3FFFF8
3FFFF0
1FFFE0
07FFC0
01FE00
ENDCHAR
STARTCHAR 0135
ENCODING 309
SWIDTH 280 0
DWIDTH 14 0
BBX 15 49 -1 -10
BITMAP
07E0
0FE0
1FF0
1EF8
3C78
783C
781E
F01E
0000
0000
0000
0000
07F0
07F0
07F0
07F0
07F0
07F0
07F0
07F0
07F0
07F0
07F0
07F0
07F0
07F0
07F0
07F0
07F0
07F0
07F0
07F0
07F0
07F0
07F0
07F0
07F0
07F0
07F0
07F0
07F0
07F0
07F0
0FF0
3FF0
3FF0
3FF0
3FE0
3FC0
ENDCHAR
STARTCHAR 0136
ENCODING 310
SWIDTH 720 0
DWIDTH 36 0
BBX 32 51 4 -15
BITMAP
FF0007FC
FF000FF8
FF000FF0
FF001FE0
FF003FC0
FF007F80
FF00FF80
FF01FF00
FF03FE00
FF07FC00
FF0FF800
FF1FF000
FF1FE000
FF3FC000
FF7F8000
FFFF0000
FFFF8000
FFFFC000
FFFFC000
FFFFE000
FFEFF000
FFCFF800
FF87FC00
FF03FC00
FF01FE00
FF01FF00
FF00FF80
FF007FC0
FF003FC0
FF003FE0
FF001FF0
FF000FF8
FF0007F8
FF0007FC
FF0003FE
FF0001FF
00000000
00000000
00000000
00000000
000FC000
000FC000
000FC000
000FC000
000FC000
0001C000
0001C000
0003C000
00078000
000F0000
000C0000
ENDCHAR
STARTCHAR 0137
ENCODING 311
SWIDTH 560 0
DWIDTH 28 0
BBX 24 51 3 -15
BITMAP
FE0000
FE0000
FE0000
FE0000
FE0000
FE0000
FE0000
FE0000
FE0000
FE01FE
FE01FE
FE03FC
FE07F8
FE0FF0
FE1FE0
FE3FC0
FE3F80
FE7F00
FEFE00
FFFE00
FFFE00
FFFF00
FFFF80
FFFF80
FFBFC0
FF9FC0
FF1FE0
FE0FF0
FE0FF0
FE07F8
FE07F8
FE03FC
FE03FC
FE01FE
FE01FF
FE00FF
000000
000000
000000
000000
00FC00
00FC00
00FC00
00FC00
00FC00
001C00
001C00
003C00
007800
00F000
00C000
ENDCHAR
STARTCHAR 0138
ENCODING 312
SWIDTH 560 0
DWIDTH 28 0
BBX 24 27 3 0
BITMAP
FE01FC
FE03F8
FE07F8
FE0FF0
FE0FE0
FE1FC0
FE3F80
FE7F00
FEFE00
FFFC00
FFFC00
FFF800
FFF000
FFF800
FFFC00
FFFE00
FFFF00
FEFF80
FEFF80
FE7FC0
FE3FE0
FE1FF0
FE0FF8
FE07FC
FE03FE
FE03FE
FE01FF
ENDCHAR
STARTCHAR 0139
ENCODING 313
SWIDTH 620 0
DWIDTH 31 0
BBX 25 45 4 0
BITMAP
07E00000
0FC00000
1F800000
3E000000
7C000000
F8000000
00000000
00000000
00000000
FF000000
FF000000
FF000000
FF000000
FF000000
FF000000
FF000000
FF000000
FF000000
FF000000
FF000000
FF000000
FF000000
FF000000
FF000000
FF000000
FF000000
FF000000
FF000000
FF000000
FF000000
FF000000
FF000000
FF000000
FF000000
FF000000
FF000000
FF000000
FF000000
FF000000
FFFFFF80
FFFFFF80
FFFFFF80
FFFFFF80
FFFFFF80
FFFFFF80
ENDCHAR
STARTCHAR 013A
ENCODING 314
SWIDTH 280 0
DWIDTH 14 0
BBX 11 45 2 0
BITMAP
07E0
0FC0
1F80
3E00
7C00
F800
0000
0000
0000
7F00
7F00
7F00
7F00
7F00
7F00
7F00
7F00
7F00
7F00
7F00
7F00
7F00
7F00
7F00
7F00
7F00
7F00
7F00
7F00
7F00
7F00
7F00
7F00
7F00
7F00
7F00
7F00
7F00
7F00
7F00
7F00
7F00
7F00
7F00
7F00
ENDCHAR
STARTCHAR 013B
ENCODING 315
SWIDTH 620 0
DWIDTH 31 0
BBX 25 51 4 -15
BITMAP
FF000000
FF000000
FF000000
FF000000
FF000000
FF000000
FF000000
FF000000
FF000000
FF000000
FF000000
FF000000
FF000000
FF000000
FF000000
FF000000
FF000000
FF000000
FF000000
FF000000
FF000000
FF000000
FF000000
FF000000
FF000000
FF000000
FF000000
FF000000
FF000000
FF000000
FFFFFF80
FFFFFF80
FFFFFF80
FFFFFF80
FFFFFF80
FFFFFF80
00000000
00000000
00000000
00000000
003F0000
003F0000
003F0000
003F0000
003F0000
00070000
00070000
000F0000
001E0000
003C0000
00300000
ENDCHAR
STARTCHAR 013C
ENCODING 316
SWIDTH 280 0
DWIDTH 14 0
BBX 7 51 3 -15
BITMAP
FE
FE
FE
FE
FE
FE
FE
FE
FE
FE
FE
FE
FE
FE
FE
FE
FE
FE
FE
FE
FE
FE
FE
FE
FE
FE
FE
FE
FE
FE
FE
FE
FE
FE
FE
FE
00
00
00
00
7E
7E
7E
7E
7E
0E
0E
1E
3C
78
60
ENDCHAR
STARTCHAR 013D
ENCODING 317
SWIDTH 620 0
DWIDTH 31 0
BBX 25 37 4 0
BITMAP
0001F800
FF01F800
FF03F000
FF03E000
FF03C000
FF078000
FF078000
FF0F0000
FF000000
FF000000
FF000000
FF000000
FF000000
FF000000
FF000000
FF000000
FF000000
FF000000
FF000000
FF000000
FF000000
FF000000
FF000000
FF000000
FF000000
FF000000
FF000000
FF000000
FF000000
FF000000
FF000000
FFFFFF80
FFFFFF80
FFFFFF80
FFFFFF80
FFFFFF80
FFFFFF80
ENDCHAR
STARTCHAR 013E
ENCODING 318
SWIDTH 440 0
DWIDTH 22 0
BBX 19 37 3 0
BITMAP
0007E0
FE07E0
FE0FC0
FE0F80
FE0F00
FE1E00
FE1E00
FE3C00
FE0000
FE0000
FE0000
FE0000
FE0000
FE0000
FE0000
FE0000
FE0000
FE0000
FE0000
FE0000
FE0000
FE0000
FE0000
FE0000
FE0000
FE0000
FE0000
FE0000
FE0000
FE0000
FE0000
FE0000
FE0000
FE0000
FE0000
FE0000
FE0000
ENDCHAR
STARTCHAR 013F
ENCODING 319
SWIDTH 620 0
DWIDTH 31 0
BBX 25 36 4 0
BITMAP
FF000000
FF000000
FF000000
FF000000
FF000000
FF000000
FF000000
FF000000
FF000000
FF000000
FF000000
FF000000
FF000000
FF000000
FF003F00
FF003F00
FF003F00
FF003F00
FF003F00
FF003F00
FF003F00
FF000000
FF000000
FF000000
FF000000
FF000000
FF000000
FF000000
FF000000
FF000000
FFFFFF80
FFFFFF80
FFFFFF80
FFFFFF80
FFFFFF80
FFFFFF80
ENDCHAR
STARTCHAR 0140
ENCODING 320
SWIDTH 440 0
DWIDTH 22 0
BBX 18 36 3 0
BITMAP
FE0000
FE0000
FE0000
FE0000
FE0000
FE0000
FE0000
FE0000
FE0000
FE0000
FE0000
FE0000
FE0000
FE0000
FE0000
FE1FC0
FE1FC0
FE1FC0
FE1FC0
FE1FC0
FE1FC0
FE0000
FE0000
FE0000
FE0000
FE0000
FE0000
FE0000
FE0000
FE0000
FE0000
FE0000
FE0000
FE0000
FE0000
FE0000
ENDCHAR
STARTCHAR 0141
ENCODING 321
SWIDTH 640 0
DWIDTH 32 0
BBX 30 36 1 0
BITMAP
0FF00000
0FF00000
0FF00000
0FF00000
0FF00000
0FF00000
0FF00000
0FF00000
0FF00000
0FF00000
0FF03000
0FF07000
0FF1F000
0FF3F000
0FFFE000
0FFF8000
0FFF0000
0FFC0000
0FF80000
1FF00000
3FF00000
FFF00000
FFF00000
FFF00000
CFF00000
8FF00000
0FF00000
0FF00000
0FF00000
0FF00000
0FFFFFFC
0FFFFFFC
0FFFFFFC
0FFFFFFC
0FFFFFFC
0FFFFFFC
ENDCHAR
STARTCHAR 0142
ENCODING 322
SWIDTH 280 0
DWIDTH 14 0
BBX 11 36 1 0
BITMAP
3F80
3F80
3F80
3F80
3F80
3F80
3F80
3F80
3F80
3F80
3F80
3F80
3F80
3FA0
3FE0
3FE0
3FE0
3FC0
7F80
FF80
FF80
FF80
BF80
3F80
3F80
3F80
3F80
3F80
3F80
3F80
3F80
3F80
3F80
3F80
3F80
3F80
ENDCHAR
STARTCHAR 0143
ENCODING 323
SWIDTH 760 0
DWIDTH 38 0
BBX 30 45 4 0
BITMAP
0001F800
0003F000
0007E000
000F8000
001F0000
003E0000
00000000
00000000
00000000
FF0003FC
FF8003FC
FF8003FC
FFC003FC
FFC003FC
FFE003FC
FFF003FC
FFF003FC
FFF803FC
FFF803FC
FFFC03FC
FFFC03FC
FFFE03FC
FF7F03FC
FF3F03FC
FF3F83FC
FF1F83FC
FF1FC3FC
FF0FE3FC
FF0FE3FC
FF07F3FC
FF03F3FC
FF03FBFC
FF01FBFC
FF01FFFC
FF00FFFC
FF00FFFC
FF007FFC
FF003FFC
FF003FFC
FF001FFC
FF001FFC
FF000FFC
FF0007FC
FF0007FC
FF0003FC
ENDCHAR
STARTCHAR 0144
ENCODING 324
SWIDTH 620 0
DWIDTH 31 0
BBX 24 38 3 0
BITMAP
0007E0
000FC0
000F80
001F00
001F00
003E00
003C00
007800
000000
000000
000000
FE1FF0
FE7FF8
FEFFFC
FFFFFE
FFFFFE
FFF7FF
FF80FF
FF00FF
FE007F
FE007F
FE007F
FE007F
FE007F
FE007F
FE007F
FE007F
FE007F
FE007F
FE007F
FE007F
FE007F
FE007F
FE007F
FE007F
FE007F
FE007F
FE007F
ENDCHAR
STARTCHAR 0145
ENCODING 325
SWIDTH 760 0
DWIDTH 38 0
BBX 30 51 4 -15
BITMAP
FF0003FC
FF8003FC
FF8003FC
FFC003FC
FFC003FC
FFE003FC
FFF003FC
FFF003FC
FFF803FC
FFF803FC
FFFC03FC
FFFC03FC
FFFE03FC
FF7F03FC
FF3F03FC
FF3F83FC
FF1F83FC
FF1FC3FC
FF0FE3FC
FF0FE3FC
FF07F3FC
FF03F3FC
FF03FBFC
FF01FBFC
FF01FFFC
FF00FFFC
FF00FFFC
FF007FFC
FF003FFC
FF003FFC
FF001FFC
FF001FFC
FF000FFC
FF0007FC
FF0007FC
FF0003FC
00000000
00000000
00000000
00000000
000FC000
000FC000
000FC000
000FC000
000FC000
0001C000
0001C000
0003C000
00078000
000F0000
000C0000
ENDCHAR
STARTCHAR 0146
ENCODING 326
SWIDTH 620 0
DWIDTH 31 0
BBX 24 42 3 -14
BITMAP
FE1FF0
FE7FF8
FEFFFC
FFFFFE
FFFFFE
FFF7FF
FF80FF
FF00FF
FE007F
FE007F
FE007F
FE007F
FE007F
FE007F
FE007F
FE007F
FE007F
FE007F
FE007F
FE007F
FE007F
FE007F
FE007F
FE007F
FE007F
FE007F
FE007F
000000
000000
000000
000000
007E00
007E00
007E00
007E00
007E00
000E00
000E00
001E00
003C00
007800
006000
ENDCHAR
STARTCHAR 0147
ENCODING 327
SWIDTH 760 0
DWIDTH 38 0
BBX 30 45 4 0
BITMAP
03E07C00
01F0F800
00F9F000
007FE000
003FC000
001F8000
00000000
00000000
00000000
FF0003FC
FF8003FC
FF8003FC
FFC003FC
FFC003FC
FFE003FC
FFF003FC
FFF003FC
FFF803FC
FFF803FC
FFFC03FC
FFFC03FC
FFFE03FC
FF7F03FC
FF3F03FC
FF3F83FC
FF1F83FC
FF1FC3FC
FF0FE3FC
FF0FE3FC
FF07F3FC
FF03F3FC
FF03FBFC
FF01FBFC
FF01FFFC
FF00FFFC
FF00FFFC
FF007FFC
FF003FFC
FF003FFC
FF001FFC
FF001FFC
FF000FFC
FF0007FC
FF0007FC
FF0003FC
ENDCHAR
STARTCHAR 0148
ENCODING 328
SWIDTH 620 0
DWIDTH 31 0
BBX 24 38 3 0
BITMAP
0F00F0
0F01E0
0783C0
03C780
03EF80
01FF00
00FE00
00FC00
000000
000000
000000
FE1FF0
FE7FF8
FEFFFC
FFFFFE
FFFFFE
FFF7FF
FF80FF
FF00FF
FE007F
FE007F
FE007F
FE007F
FE007F
FE007F
FE007F
FE007F
FE007F
FE007F
FE007F
FE007F
FE007F
FE007F
FE007F
FE007F
FE007F
FE007F
FE007F
ENDCHAR
STARTCHAR 0149
ENCODING 329
SWIDTH 700 0
DWIDTH 35 0
BBX 31 37 1 0
BITMAP
FC000000
FC000000
FC000000
FC000000
FC000000
FC000000
1C000000
1C000000
38000000
78000000
F3FC7FC0
C3FCFFF0
03FDFFF8
03FFFFF8
03FFFFFC
03FFEFFC
03FF03FC
03FE01FC
03FC01FE
03FC01FE
03FC01FE
03FC01FE
03FC01FE
03FC01FE
03FC01FE
03FC01FE
03FC01FE
03FC01FE
03FC01FE
03FC01FE
03FC01FE
03FC01FE
03FC01FE
03FC01FE
03FC01FE
03FC01FE
03FC01FE
ENDCHAR
STARTCHAR 014A
ENCODING 330
SWIDTH 760 0
DWIDTH 38 0
BBX 32 37 4 0
BITMAP
FF1FF800
FF3FFF00
FF7FFF80
FFFFFFC0
FFFFFFF0
FFFFFFF0
FFF00FF8
FFE007FC
FFC003FC
FF8001FE
FF0001FE
FF0001FE
FF0000FE
FF0000FE
FF0000FF
FF0000FF
FF0000FF
FF0000FE
FF0000FE
FF0000FE
FF0000FE
FF0000FE
FF0001FE
FF0001FE
FF0001FE
FF0001FC
FF0003FC
FF0003FC
FF0007F8
FF000FF8
FF071FF0
FF07FFF0
FF07FFE0
FF07FFC0
FF07FF80
FF07FE00
0003F800
ENDCHAR
STARTCHAR 014B
ENCODING 331
SWIDTH 620 0
DWIDTH 31 0
BBX 24 37 3 -9
BITMAP
FE1FF0
FE7FF8
FEFFFC
FFFFFE
FFFFFE
FFF7FF
FF80FF
FF00FF
FE007F
FE007F
FE007F
FE007F
FE007F
FE007F
FE007F
FE007F
FE007F
FE007F
FE007F
FE007F
FE007F
FE007F
FE007F
FE007F
FE007F
FE007F
FE007F
00007F
00007F
00007F
00007F
0000FF
0003FF
0003FF
0003FF
0003FE
0003FC
ENDCHAR
STARTCHAR 014C
ENCODING 332
SWIDTH 780 0
DWIDTH 39 0
BBX 36 45 2 -1
BITMAP
003FFF8000
003FFF8000
003FFF8000
003FFF8000
0000000000
0000000000
0000000000
0000000000
001FFF0000
007FFFC000
01FFFFF000
03FFFFF800
07FFFFFC00
0FFFFFFE00
1FFC07FF00
1FF001FF80
3FE000FF80
3FC0007FC0
7F80003FC0
7F80001FE0
7F00001FE0
FF00001FE0
FF00000FE0
FF00000FE0
FF00000FE0
FF00000FF0
FF00000FF0
FF00000FF0
FF00000FE0
FF00000FE0
FF00000FE0
7F00001FE0
7F80001FE0
7F80003FC0
7FC0003FC0
3FE0007FC0
3FF000FF80
1FF801FF00
0FFF1FFF00
07FFFFFE00
03FFFFFC00
01FFFFF800
00FFFFE000
003FFF8000
0007FC0000
ENDCHAR
STARTCHAR 014D
ENCODING 333
SWIDTH 620 0
DWIDTH 31 0
BBX 27 36 2 -1
BITMAP
03FFF800
03FFF800
03FFF800
03FFF800
00000000
00000000
00000000
00000000
00FFE000
03FFF800
0FFFFE00
1FFFFF00
1FFFFF00
3FF1FF80
7FC07FC0
7F803FC0
7F001FC0
FF001FE0
FE000FE0
FE000FE0
FE000FE0
FE000FE0
FE000FE0
FE000FE0
FE000FE0
FF001FE0
7F001FE0
7F803FC0
7F803FC0
3FE0FF80
3FFFFF80
1FFFFF00
0FFFFE00
07FFFC00
01FFF000
007FC000
ENDCHAR
STARTCHAR 014E
ENCODING 334
SWIDTH 780 0
DWIDTH 39 0
BBX 36 45 2 -1
BITMAP
001C070000
001E0F0000
000FBE0000
000FFE0000
0007FC0000
0003F80000
0000000000
0000000000
001FFF0000
007FFFC000
01FFFFF000
03FFFFF800
07FFFFFC00
0FFFFFFE00
1FFC07FF00
1FF001FF80
3FE000FF80
3FC0007FC0
7F80003FC0
7F80001FE0
7F00001FE0
FF00001FE0
FF00000FE0
FF00000FE0
FF00000FE0
FF00000FF0
FF00000FF0
FF00000FF0
FF00000FE0
FF00000FE0
FF00000FE0
7F00001FE0
7F80001FE0
7F80003FC0
7FC0003FC0
3FE0007FC0
3FF000FF80
1FF801FF00
0FFF1FFF00
07FFFFFE00
03FFFFFC00
01FFFFF800
00FFFFE000
003FFF8000
0007FC0000
ENDCHAR
STARTCHAR 014F
ENCODING 335
SWIDTH 620 0
DWIDTH 31 0
BBX 27 40 2 -1
BITMAP
01C07000
01C0F000
01E0E000
01FFE000
00FFC000
007FC000
003F0000
00000000
00000000
00000000
00000000
00000000
00FFE000
03FFF800
0FFFFE00
1FFFFF00
1FFFFF00
3FF1FF80
7FC07FC0
7F803FC0
7F001FC0
FF001FE0
FE000FE0
FE000FE0
FE000FE0
FE000FE0
FE000FE0
FE000FE0
FE000FE0
FF001FE0
7F001FE0
7F803FC0
7F803FC0
3FE0FF80
3FFFFF80
1FFFFF00
0FFFFE00
07FFFC00
01FFF000
007FC000
ENDCHAR
STARTCHAR 0150
ENCODING 336
SWIDTH 780 0
DWIDTH 39 0
BBX 36 46 2 -1
BITMAP
0000FC3F00
0001F87E00
0003F0FC00
0007C1F000
000F83E000
001F07C000
0000000000
0000000000
0000000000
001FFF0000
007FFFC000
01FFFFF000
03FFFFF800
07FFFFFC00
0FFFFFFE00
1FFC07FF00
1FF001FF80
3FE000FF80
3FC0007FC0
7F80003FC0
7F80001FE0
7F00001FE0
FF00001FE0
FF00000FE0
FF00000FE0
FF00000FE0
FF00000FF0
FF00000FF0
FF00000FF0
FF00000FE0
FF00000FE0
FF00000FE0
7F00001FE0
7F80001FE0
7F80003FC0
7FC0003FC0
3FE0007FC0
3FF000FF80
1FF801FF00
0FFF1FFF00
07FFFFFE00
03FFFFFC00
01FFFFF800
00FFFFE000
003FFF8000
0007FC0000
ENDCHAR
STARTCHAR 0151
ENCODING 337
SWIDTH 620 0
DWIDTH 31 0
BBX 27 39 2 -1
BITMAP
003F1F80
007E1F00
007C3F00
00F83E00
00F07C00
01F07800
01E0F000
00000000
00000000
00000000
00000000
00FFE000
03FFF800
0FFFFE00
1FFFFF00
1FFFFF00
3FF1FF80
7FC07FC0
7F803FC0
7F001FC0
FF001FE0
FE000FE0
FE000FE0
FE000FE0
FE000FE0
FE000FE0
FE000FE0
FE000FE0
FF001FE0
7F001FE0
7F803FC0
7F803FC0
3FE0FF80
3FFFFF80
1FFFFF00
0FFFFE00
07FFFC00
01FFF000
007FC000
ENDCHAR
STARTCHAR 0152
ENCODING 338
SWIDTH 1020 0
DWIDTH 51 0
BBX 47 37 2 0
BITMAP
003FE3FFFFFC
00FFFBFFFFFC
03FFFFFFFFFC
07FFFFFFFFFC
0FFFFFFFFFFC
1FFFFFFFFFFC
1FF81FFC0000
3FE007FC0000
3FC003FC0000
7FC003FC0000
7F8003FC0000
7F8003FC0000
FF0003FC0000
FF0003FC0000
FF0003FFFFF0
FF0003FFFFF0
FF0003FFFFF0
FF0003FFFFF0
FF0003FFFFF0
FF0003FFFFF0
FF0003FC0000
FF0003FC0000
FF0003FC0000
7F0003FC0000
7F8003FC0000
7F8003FC0000
7FC003FC0000
3FC003FC0000
3FE007FC0000
1FF00FFC0000
1FFE7FFFFFFE
0FFFFFFFFFFE
07FFFFFFFFFE
03FFFFFFFFFE
01FFFBFFFFFE
007FF3FFFFFE
001FC0000000
ENDCHAR
STARTCHAR 0153
ENCODING 339
SWIDTH 980 0
DWIDTH 49 0
BBX 45 28 2 0
BITMAP
00FFE01FFC00
03FFF87FFE00
07FFFCFFFF80
1FFFFFFFFFC0
1FFFFFFFFFC0
3FF1FFFC1FE0
7FC07FF80FE0
7F803FF007F0
7F001FF007F0
FF001FE003F0
FF000FE003F8
FE000FFFFFF8
FE000FFFFFF8
FE000FFFFFF8
FE000FFFFFF8
FE000FFFFFF8
FE000FE00000
FE000FE00000
7F001FE00000
7F001FF003F8
7F803FF007F0
3FC07FF80FF0
3FFFFFFF7FE0
1FFFFFFFFFE0
0FFFFEFFFFC0
07FFFC7FFF00
01FFF03FFE00
007FC007F000
ENDCHAR
STARTCHAR 0154
ENCODING 340
SWIDTH 720 0
DWIDTH 36 0
BBX 31 45 4 0
BITMAP
0001F800
0003F000
0007E000
000F8000
001F0000
003E0000
00000000
00000000
00000000
FFFFFE00
FFFFFF80
FFFFFFE0
FFFFFFF0
FFFFFFF0
FFFFFFF8
FF001FF8
FF0007F8
FF0003F8
FF0003FC
FF0003FC
FF0003F8
FF0003F8
FF0003F8
FF0007F8
FF000FF0
FFFFFFE0
FFFFFFC0
FFFFFF80
FFFFFF00
FFFFFFC0
FFFFFFE0
FF003FF0
FF000FF0
FF0007F0
FF0007F0
FF0007F0
FF0007F0
FF0007F0
FF0007F0
FF0007F8
FF0007F8
FF0007F8
FF0007F8
FF0007FC
FF0003FE
ENDCHAR
STARTCHAR 0155
ENCODING 341
SWIDTH 400 0
DWIDTH 20 0
BBX 15 38 3 0
BITMAP
00FC
00FC
01F8
01F0
03E0
03C0
0780
0780
0000
0000
0000
FE1E
FE7E
FEFE
FEFE
FFFE
FFFE
FFC0
FF80
FF00
FE00
FE00
FE00
FE00
FE00
FE00
FE00
FE00
FE00
FE00
FE00
FE00
FE00
FE00
FE00
FE00
FE00
FE00
ENDCHAR
STARTCHAR 0156
ENCODING 342
SWIDTH 720 0
DWIDTH 36 0
BBX 31 51 4 -15
BITMAP
FFFFFE00
FFFFFF80
FFFFFFE0
FFFFFFF0
FFFFFFF0
FFFFFFF8
FF001FF8
FF0007F8
FF0003F8
FF0003FC
FF0003FC
FF0003F8
FF0003F8
FF0003F8
FF0007F8
FF000FF0
FFFFFFE0
FFFFFFC0
FFFFFF80
FFFFFF00
FFFFFFC0
FFFFFFE0
FF003FF0
FF000FF0
FF0007F0
FF0007F0
FF0007F0
FF0007F0
FF0007F0
FF0007F0
FF0007F8
FF0007F8
FF0007F8
FF0007F8
FF0007FC
FF0003FE
00000000
00000000
00000000
00000000
000FC000
000FC000
000FC000
000FC000
000FC000
0001C000
0001C000
0003C000
00078000
000F0000
000C0000
ENDCHAR
STARTCHAR 0157
ENCODING 343
SWIDTH 400 0
DWIDTH 20 0
BBX 15 42 3 -14
BITMAP
FE1E
FE7E
FEFE
FEFE
FFFE
FFFE
FFC0
FF80
FF00
FE00
FE00
FE00
FE00
FE00
FE00
FE00
FE00
FE00
FE00
FE00
FE00
FE00
FE00
FE00
FE00
FE00
FE00
0000
0000
0000
0000
3F00
3F00
3F00
3F00
3F00
0700
0700
0F00
1E00
3C00
3000
ENDCHAR
STARTCHAR 0158
ENCODING 344
SWIDTH 720 0
DWIDTH 36 0
BBX 31 45 4 0
BITMAP
03E07C00
01F0F800
00F9F000
007FE000
003FC000
001F8000
00000000
00000000
00000000
FFFFFE00
FFFFFF80
FFFFFFE0
FFFFFFF0
FFFFFFF0
FFFFFFF8
FF001FF8
FF0007F8
FF0003F8
FF0003FC
FF0003FC
FF0003F8
FF0003F8
FF0003F8
FF0007F8
FF000FF0
FFFFFFE0
FFFFFFC0
FFFFFF80
FFFFFF00
FFFFFFC0
FFFFFFE0
FF003FF0
FF000FF0
FF0007F0
FF0007F0
FF0007F0
FF0007F0
FF0007F0
FF0007F0
FF0007F8
FF0007F8
FF0007F8
FF0007F8
FF0007FC
FF0003FE
ENDCHAR
STARTCHAR 0159
ENCODING 345
SWIDTH 400 0
DWIDTH 20 0
BBX 16 38 2 0
BITMAP
F00F
780E
3C1E
3E3C
1F78
0FF8
0FF0
07E0
0000
0000
0000
7F0F
7F3F
7F7F
7F7F
7FFF
7FFF
7FE0
7FC0
7F80
7F00
7F00
7F00
7F00
7F00
7F00
7F00
7F00
7F00
7F00
7F00
7F00
7F00
7F00
7F00
7F00
7F00
7F00
ENDCHAR
STARTCHAR 015A
ENCODING 346
SWIDTH 680 0
DWIDTH 34 0
BBX 30 46 2 -1
BITMAP
0001F800
0003F000
0007E000
000F8000
001F0000
003E0000
00000000
00000000
00000000
00FFFC00
03FFFF00
0FFFFFC0
1FFFFFE0
1FFFFFE0
3FFDFFF0
3FC00FF0
7F8007F8
7F0007F8
7F0003F8
7F000000
7F000000
7F800000
7FF00000
3FFF0000
3FFFF800
1FFFFF00
0FFFFFC0
03FFFFF0
007FFFF0
0003FFF8
00003FF8
000007FC
000003FC
000001FC
FF0001FC
FF0001FC
7F0001FC
7F8003FC
7FC007F8
3FF00FF8
3FFFFFF0
1FFFFFF0
0FFFFFE0
07FFFF80
01FFFF00
003FF000
ENDCHAR
STARTCHAR 015B
ENCODING 347
SWIDTH 560 0
DWIDTH 28 0
BBX 25 39 1 -1
BITMAP
0007E000
0007E000
000FC000
000F8000
001F0000
001E0000
003C0000
003C0000
00000000
00000000
00000000
03FFE000
07FFF800
1FFFFC00
3FFFFE00
3FFFFE00
7F80FF00
7F007F00
7F007F00
7F800000
7FE00000
7FFC0000
3FFFC000
3FFFF800
1FFFFE00
07FFFF00
00FFFF00
001FFF80
0001FF80
00007F80
00003F80
FE003F80
FF007F80
7FC1FF00
7FFFFF00
3FFFFE00
1FFFFC00
0FFFF000
00FFC000
ENDCHAR
STARTCHAR 015C
ENCODING 348
SWIDTH 680 0
DWIDTH 34 0
BBX 30 46 2 -1
BITMAP
000FC000
001FE000
003FF000
007DF800
00F87C00
01F03C00
00000000
00000000
00000000
00FFFC00
03FFFF00
0FFFFFC0
1FFFFFE0
1FFFFFE0
3FFDFFF0
3FC00FF0
7F8007F8
7F0007F8
7F0003F8
7F000000
7F000000
7F800000
7FF00000
3FFF0000
3FFFF800
1FFFFF00
0FFFFFC0
03FFFFF0
007FFFF0
0003FFF8
00003FF8
000007FC
000003FC
000001FC
FF0001FC
FF0001FC
7F0001FC
7F8003FC
7FC007F8
3FF00FF8
3FFFFFF0
1FFFFFF0
0FFFFFE0
07FFFF80
01FFFF00
003FF000
ENDCHAR
STARTCHAR 015D
ENCODING 349
SWIDTH 560 0
DWIDTH 28 0
BBX 25 40 1 -1
BITMAP
003F0000
007F0000
00F78000
01F7C000
01E3E000
03C1E000
0780F000
00000000
00000000
00000000
00000000
00000000
03FFE000
07FFF800
1FFFFC00
3FFFFE00
3FFFFE00
7F80FF00
7F007F00
7F007F00
7F800000
7FE00000
7FFC0000
3FFFC000
3FFFF800
1FFFFE00
07FFFF00
00FFFF00
001FFF80
0001FF80
00007F80
00003F80
FE003F80
FF007F80
7FC1FF00
7FFFFF00
3FFFFE00
1FFFFC00
0FFFF000
00FFC000
ENDCHAR
STARTCHAR 015E
ENCODING 350
SWIDTH 680 0
DWIDTH 34 0
BBX 30 47 2 -10
BITMAP
00FFF800
03FFFF00
0FFFFF80
1FFFFFE0
1FFFFFE0
3FF9FFF0
3FC00FF0
7F8007F8
7F0007F8
7F0003F8
7F000000
7F000000
7F800000
7FF00000
3FFF0000
3FFFF800
1FFFFF00
0FFFFFC0
03FFFFE0
007FFFF0
0003FFF8
00003FF8
000007FC
000003FC
000001FC
FF0001FC
FF0001FC
7F0001FC
7F8003FC
7FC007F8
3FF01FF8
3FFFFFF0
1FFFFFF0
0FFFFFE0
07FFFF80
01FFFE00
003FF000
00060000
00060000
000FE000
000FF000
0000F000
0000F000
0080F000
00FFF000
01FFE000
003F8000
ENDCHAR
STARTCHAR 015F
ENCODING 351
SWIDTH 560 0
DWIDTH 28 0
BBX 25 38 1 -10
BITMAP
01FFE000
07FFF800
1FFFFC00
3FFFFE00
3FFFFF00
7F80FF00
7F007F00
7F003F00
7F800000
7FE00000
7FFC0000
3FFFC000
3FFFF800
1FFFFE00
07FFFF00
00FFFF00
001FFF80
0001FF80
00007F80
FE003F80
FE003F80
FF007F80
7FC1FF00
7FFFFF00
3FFFFE00
1FFFFC00
07FFF800
00FFC000
00180000
00380000
007F8000
007FC000
0003C000
0003C000
0603C000
07FFC000
0FFF8000
00FE0000
ENDCHAR
STARTCHAR 0160
ENCODING 352
SWIDTH 680 0
DWIDTH 34 0
BBX 30 46 2 -1
BITMAP
03E07C00
01F0F800
00F9F000
007FE000
003FC000
001F8000
00000000
00000000
00000000
00FFFC00
03FFFF00
0FFFFFC0
1FFFFFE0
1FFFFFE0
3FFDFFF0
3FC00FF0
7F8007F8
7F0007F8
7F0003F8
7F000000
7F000000
7F800000
7FF00000
3FFF0000
3FFFF800
1FFFFF00
0FFFFFC0
03FFFFF0
007FFFF0
0003FFF8
00003FF8
000007FC
000003FC
000001FC
FF0001FC
FF0001FC
7F0001FC
7F8003FC
7FC007F8
3FF00FF8
3FFFFFF0
1FFFFFF0
0FFFFFE0
07FFFF80
01FFFF00
003FF000
ENDCHAR
STARTCHAR 0161
ENCODING 353
SWIDTH 560 0
DWIDTH 28 0
BBX 25 39 1 -1
BITMAP
07807800
0780F000
03C1E000
01E3C000
01F7C000
00FF8000
007F0000
007F0000
00000000
00000000
00000000
03FFE000
07FFF800
1FFFFC00
3FFFFE00
3FFFFE00
7F80FF00
7F007F00
7F007F00
7F800000
7FE00000
7FFC0000
3FFFC000
3FFFF800
1FFFFE00
07FFFF00
00FFFF00
001FFF80
0001FF80
00007F80
00003F80
FE003F80
FF007F80
7FC1FF00
7FFFFF00
3FFFFE00
1FFFFC00
0FFFF000
00FFC000
ENDCHAR
STARTCHAR 0162
ENCODING 354
SWIDTH 640 0
DWIDTH 32 0
BBX 29 47 2 -11
BITMAP
FFFFFFF8
FFFFFFF8
FFFFFFF8
FFFFFFF8
FFFFFFF8
FFFFFFF8
001FE000
001FE000
001FE000
001FE000
001FE000
001FE000
001FE000
001FE000
001FE000
001FE000
001FE000
001FE000
001FE000
001FE000
001FE000
001FE000
001FE000
001FE000
001FE000
001FE000
001FE000
001FE000
001FE000
001FE000
001FE000
001FE000
001FE000
001FE000
001FE000
001FE000
00018000
00030000
00030000
0007F000
0007F800
00007800
00007800
00407800
00FFF800
00FFF000
001FC000
ENDCHAR
STARTCHAR 0163
ENCODING 355
SWIDTH 340 0
DWIDTH 17 0
BBX 15 46 1 -12
BITMAP
1FC0
1FC0
1FC0
1FC0
1FC0
1FC0
1FC0
FFF8
FFF8
FFF8
FFF8
FFF8
1FC0
1FC0
1FC0
1FC0
1FC0
1FC0
1FC0
1FC0
1FC0
1FC0
1FC0
1FC0
1FC0
1FC0
1FC0
1FC0
1FC0
1FE0
1FF8
1FF8
0FF8
07F8
03F8
00E0
00C0
01C0
01FC
03FE
001E
001E
101E
3FFE
3FFC
07F0
ENDCHAR
STARTCHAR 0164
ENCODING 356
SWIDTH 640 0
DWIDTH 32 0
BBX 29 45 2 0
BITMAP
07C0F800
03E1F000
01F3E000
00FFC000
007F8000
003F0000
00000000
00000000
00000000
FFFFFFF8
FFFFFFF8
FFFFFFF8
FFFFFFF8
FFFFFFF8
FFFFFFF8
001FE000
001FE000
001FE000
001FE000
001FE000
001FE000
001FE000
001FE000
001FE000
001FE000
001FE000
001FE000
001FE000
001FE000
001FE000
001FE000
001FE000
001FE000
001FE000
001FE000
001FE000
001FE000
001FE000
001FE000
001FE000
001FE000
001FE000
001FE000
001FE000
001FE000
ENDCHAR
STARTCHAR 0165
ENCODING 357
SWIDTH 480 0
DWIDTH 24 0
BBX 22 38 2 -1
BITMAP
0000FC
0000FC
0001F8
1FC1F0
1FC1E0
1FC3C0
1FC3C0
1FC780
1FC000
1FC000
FFF800
FFF800
FFF800
FFF800
FFF800
1FC000
1FC000
1FC000
1FC000
1FC000
1FC000
1FC000
1FC000
1FC000
1FC000
1FC000
1FC000
1FC000
1FC000
1FC000
1FC000
1FC000
1FE000
1FF800
1FF800
0FF800
07F800
01F800
ENDCHAR
STARTCHAR 0166
ENCODING 358
SWIDTH 640 0
DWIDTH 32 0
BBX 29 36 2 0
BITMAP
FFFFFFF8
FFFFFFF8
FFFFFFF8
FFFFFFF8
FFFFFFF8
FFFFFFF8
001FE000
001FE000
001FE000
001FE000
001FE000
001FE000
001FE000
001FE000
001FE000
03FFFF00
03FFFF00
03FFFF00
03FFFF00
03FFFF00
03FFFF00
001FE000
001FE000
001FE000
001FE000
001FE000
001FE000
001FE000
001FE000
001FE000
001FE000
001FE000
001FE000
001FE000
001FE000
001FE000
ENDCHAR
STARTCHAR 0167
ENCODING 359
SWIDTH 340 0
DWIDTH 17 0
BBX 15 35 0 -1
BITMAP
0FE0
0FE0
0FE0
0FE0
0FE0
0FE0
0FE0
FFFE
FFFE
FFFE
FFFE
FFFE
0FE0
0FE0
0FE0
0FE0
0FE0
0FE0
FFFE
FFFE
FFFE
FFFE
FFFE
0FE0
0FE0
0FE0
0FE0
0FE0
0FE0
0FF0
0FFE
0FFE
07FE
03FE
00FE
ENDCHAR
STARTCHAR 0168
ENCODING 360
SWIDTH 740 0
DWIDTH 37 0
BBX 29 46 4 -1
BITMAP
00200E00
00F80E00
01FF3E00
01FFFE00
03FFFC00
0387F800
00000000
00000000
00000000
FF0007F8
FF0007F8
FF0007F8
FF0007F8
FF0007F8
FF0007F8
FF0007F8
FF0007F8
FF0007F8
FF0007F8
FF0007F8
FF0007F8
FF0007F8
FF0007F8
FF0007F8
FF0007F8
FF0007F8
FF0007F8
FF0007F8
FF0007F8
FF0007F8
FF0007F8
FF0007F8
FF0007F8
FF0007F8
FF0007F8
FF0007F0
FF000FF0
7F800FF0
7FC01FF0
7FF9FFE0
3FFFFFE0
1FFFFFC0
0FFFFF80
07FFFF00
01FFFC00
003FE000
ENDCHAR
STARTCHAR 0169
ENCODING 361
SWIDTH 620 0
DWIDTH 31 0
BBX 24 39 3 -1
BITMAP
03C078
07F078
0FFFF0
0FFFF0
0E7FE0
0E0FC0
000000
000000
000000
000000
000000
FE007F
FE007F
FE007F
FE007F
FE007F
FE007F
FE007F
FE007F
FE007F
FE007F
FE007F
FE007F
FE007F
FE007F
FE007F
FE007F
FE007F
FE007F
FE007F
FE00FF
FF00FF
FF83FF
7FFFFF
7FFFFF
7FFF7F
3FFF7F
1FFC7F
03F000
ENDCHAR
STARTCHAR 016A
ENCODING 362
SWIDTH 740 0
DWIDTH 37 0
BBX 29 45 4 -1
BITMAP
01FFFC00
01FFFC00
01FFFC00
01FFFC00
00000000
00000000
00000000
00000000
FF0007F8
FF0007F8
FF0007F8
FF0007F8
FF0007F8
FF0007F8
FF0007F8
FF0007F8
FF0007F8
FF0007F8
FF0007F8
FF0007F8
FF0007F8
FF0007F8
FF0007F8
FF0007F8
FF0007F8
FF0007F8
FF0007F8
FF0007F8
FF0007F8
FF0007F8
FF0007F8
FF0007F8
FF0007F8
FF0007F8
FF0007F0
FF000FF0
7F800FF0
7FC01FF0
7FF9FFE0
3FFFFFE0
1FFFFFC0
0FFFFF80
07FFFF00
01FFFC00
003FE000
ENDCHAR
STARTCHAR 016B
ENCODING 363
SWIDTH 620 0
DWIDTH 31 0
BBX 24 36 3 -1
BITMAP
07FFF0
07FFF0
07FFF0
07FFF0
000000
000000
000000
000000
FE007F
FE007F
FE007F
FE007F
FE007F
FE007F
FE007F
FE007F
FE007F
FE007F
FE007F
FE007F
FE007F
FE007F
FE007F
FE007F
FE007F
FE007F
FE007F
FE00FF
FF00FF
FF83FF
7FFFFF
7FFFFF
7FFF7F
3FFF7F
1FFC7F
03F000
ENDCHAR
STARTCHAR 016C
ENCODING 364
SWIDTH 740 0
DWIDTH 37 0
BBX 29 45 4 -1
BITMAP
00E03800
00E07000
00FDF000
007FF000
003FE000
001FC000
00000000
00000000
FF0007F8
FF0007F8
FF0007F8
FF0007F8
FF0007F8
FF0007F8
FF0007F8
FF0007F8
FF0007F8
FF0007F8
FF0007F8
FF0007F8
FF0007F8
FF0007F8
FF0007F8
FF0007F8
FF0007F8
FF0007F8
FF0007F8
FF0007F8
FF0007F8
FF0007F8
FF0007F8
FF0007F8
FF0007F8
FF0007F8
FF0007F0
FF000FF0
7F800FF0
7FC01FF0
7FF9FFE0
3FFFFFE0
1FFFFFC0
0FFFFF80
07FFFF00
01FFFC00
003FE000
ENDCHAR
STARTCHAR 016D
ENCODING 365
SWIDTH 620 0
DWIDTH 31 0
BBX 24 40 3 -1
BITMAP
0300C0
0381C0
0381C0
03FFC0
01FF80
00FF00
007E00
000000
000000
000000
000000
000000
FE007F
FE007F
FE007F
FE007F
FE007F
FE007F
FE007F
FE007F
FE007F
FE007F
FE007F
FE007F
FE007F
FE007F
FE007F
FE007F
FE007F
FE007F
FE007F
FE00FF
FF00FF
FF83FF
7FFFFF
7FFFFF
7FFF7F
3FFF7F
1FFC7F
03F000
ENDCHAR
STARTCHAR 016E
ENCODING 366
SWIDTH 740 0
DWIDTH 37 0
BBX 29 49 4 -1
BITMAP
000F0000
001F8000
003FC000
0038C000
0030C000
0030C000
0039C000
001F8000
000F0000
00000000
00000000
00000000
FF0007F8
FF0007F8
FF0007F8
FF0007F8
FF0007F8
FF0007F8
FF0007F8
FF0007F8
FF0007F8
FF0007F8
FF0007F8
FF0007F8
FF0007F8
FF0007F8
FF0007F8
FF0007F8
FF0007F8
FF0007F8
FF0007F8
FF0007F8
FF0007F8
FF0007F8
FF0007F8
FF0007F8
FF0007F8
FF0007F8
FF0007F0
FF000FF0
7F800FF0
7FC01FF0
7FF9FFE0
3FFFFFE0
1FFFFFC0
0FFFFF80
07FFFF00
01FFFC00
003FE000
ENDCHAR
STARTCHAR 016F
ENCODING 367
SWIDTH 620 0
DWIDTH 31 0
BBX 24 40 3 -1
BITMAP
003C00
007E00
00FF00
00C700
00C300
00C700
00EF00
007E00
003C00
000000
000000
000000
FE007F
FE007F
FE007F
FE007F
FE007F
FE007F
FE007F
FE007F
FE007F
FE007F
FE007F
FE007F
FE007F
FE007F
FE007F
FE007F
FE007F
FE007F
FE007F
FE00FF
FF00FF
FF83FF
7FFFFF
7FFFFF
7FFF7F
3FFF7F
1FFC7F
03F000
ENDCHAR
STARTCHAR 0170
ENCODING 368
SWIDTH 740 0
DWIDTH 37 0
BBX 29 46 4 -1
BITMAP
000FC3F0
001F87E0
003F0FC0
007C1F00
00F83E00
01F07C00
00000000
00000000
00000000
FF0007F8
FF0007F8
FF0007F8
FF0007F8
FF0007F8
FF0007F8
FF0007F8
FF0007F8
FF0007F8
FF0007F8
FF0007F8
FF0007F8
FF0007F8
FF0007F8
FF0007F8
FF0007F8
FF0007F8
FF0007F8
FF0007F8
FF0007F8
FF0007F8
FF0007F8
FF0007F8
FF0007F8
FF0007F8
FF0007F8
FF0007F0
FF000FF0
7F800FF0
7FC01FF0
7FF9FFE0
3FFFFFE0
1FFFFFC0
0FFFFF80
07FFFF00
01FFFC00
003FE000
ENDCHAR
STARTCHAR 0171
ENCODING 369
SWIDTH 620 0
DWIDTH 31 0
BBX 24 39 3 -1
BITMAP
007E3F
00FC3E
00F87C
01F07C
01E0F8
03E0F0
03C1E0
000000
000000
000000
000000
FE007F
FE007F
FE007F
FE007F
FE007F
FE007F
FE007F
FE007F
FE007F
FE007F
FE007F
FE007F
FE007F
FE007F
FE007F
FE007F
FE007F
FE007F
FE007F
FE00FF
FF00FF
FF83FF
7FFFFF
7FFFFF
7FFF7F
3FFF7F
1FFC7F
03F000
ENDCHAR
STARTCHAR 0172
ENCODING 370
SWIDTH 740 0
DWIDTH 37 0
BBX 29 48 4 -12
BITMAP
FF0007F8
FF0007F8
FF0007F8
FF0007F8
FF0007F8
FF0007F8
FF0007F8
FF0007F8
FF0007F8
FF0007F8
FF0007F8
FF0007F8
FF0007F8
FF0007F8
FF0007F8
FF0007F8
FF0007F8
FF0007F8
FF0007F8
FF0007F8
FF0007F8
FF0007F8
FF0007F8
FF0007F8
FF0007F8
FF0007F8
FF0007F0
FF000FF0
7F800FF0
7FC01FF0
7FF9FFE0
3FFFFFE0
1FFFFFC0
0FFFFF80
07FFFF00
01FFFE00
003FEC00
00003800
00007800
0000F000
0000F000
0001F000
0001E000
0001F000
0001F000
0000FFC0
00007FC0
00003FC0
ENDCHAR
STARTCHAR 0173
ENCODING 371
SWIDTH 620 0
DWIDTH 31 0
BBX 25 39 3 -12
BITMAP
FE007F00
FE007F00
FE007F00
FE007F00
FE007F00
FE007F00
FE007F00
FE007F00
FE007F00
FE007F00
FE007F00
FE007F00
FE007F00
FE007F00
FE007F00
FE007F00
FE007F00
FE007F00
FE007F00
FE00FF00
FF00FF00
FF83FF00
7FFFFF00
7FFFFF00
7FFF7F00
3FFF7F00
1FFC7F00
03F01E00
00007C00
0000F000
0001F000
0001E000
0003E000
0003E000
0003E000
0003E000
0001FF80
0000FF80
00003F80
ENDCHAR
STARTCHAR 0174
ENCODING 372
SWIDTH 960 0
DWIDTH 48 0
BBX 46 45 1 0
BITMAP
00001F800000
00003FC00000
00007FE00000
0000FBF00000
0001F0F80000
0003E0780000
000000000000
000000000000
000000000000
FF001FE003FC
7F001FE003F8
7F801FE007F8
7F801FE007F8
7F803FF007F8
3F803FF007F0
3F803FF007F0
3FC03FF00FF0
1FC07FF00FF0
1FC07FF80FE0
1FC07CF80FE0
1FC07CF80FE0
0FE07CF81FC0
0FE0FCFC1FC0
0FE0FCFC1FC0
07E0F87C1FC0
07F0F87C1F80
07F0F87C3F80
07F1F87E3F80
03F1F83E3F00
03F1F03E3F00
03F9F03E3F00
01F9F03F7F00
01FBF03F7E00
01FBF01F7E00
01FBE01F7E00
00FFE01F7C00
00FFE01FFC00
00FFE01FFC00
007FE00FFC00
007FC00FF800
007FC00FF800
007FC00FF800
003FC007F000
003F8007F000
003F8007F000
ENDCHAR
STARTCHAR 0175
ENCODING 373
SWIDTH 780 0
DWIDTH 39 0
BBX 37 39 1 0
BITMAP
0001F80000
0003FC0000
0007FC0000
00079E0000
000F0F0000
001E0F8000
001C078000
0020000000
0000000000
0000000000
0000000000
0000000000
FE01FC03F8
FE01FC03F8
FE01FE03F8
FF03FE07F8
7F03FE07F0
7F03FE07F0
7F03FE07F0
3F03FF07E0
3F87DF0FE0
3F87DF0FE0
3F87DF0FE0
1F87DF8FC0
1FCFCF8FC0
1FCF8F9FC0
0FCF8F9F80
0FCF8F9F80
0FCF8FDF80
0FFF07FF80
07FF07FF00
07FF07FF00
07FF07FF00
03FF07FE00
03FE03FE00
03FE03FE00
03FE03FE00
01FE03FC00
01FC01FC00
ENDCHAR
STARTCHAR 0176
ENCODING 374
SWIDTH 640 0
DWIDTH 32 0
BBX 31 45 1 0
BITMAP
0007E000
000FF000
001FF800
003EFC00
007C3E00
00F81E00
00000000
00000000
00000000
FF0001FE
7F8003FC
7F8003FC
3FC007F8
3FC007F8
1FE00FF0
1FE00FF0
0FF01FE0
0FF01FE0
07F81FC0
07F83FC0
03FC3F80
01FC7F80
01FE7F00
00FEFF00
00FEFE00
007FFE00
007FFC00
003FFC00
003FF800
001FF800
001FF000
000FF000
000FF000
000FF000
000FF000
000FF000
000FF000
000FF000
000FF000
000FF000
000FF000
000FF000
000FF000
000FF000
000FF000
ENDCHAR
STARTCHAR 0177
ENCODING 375
SWIDTH 540 0
DWIDTH 27 0
BBX 26 49 1 -10
BITMAP
007F0000
00FF0000
00FF8000
01E7C000
03C3C000
03C1E000
0780F000
00000000
00000000
00000000
00000000
00000000
FE001FC0
FF003F80
FF003F80
7F003F80
7F807F00
3F807F00
3F807F00
3FC07E00
1FC0FE00
1FC0FE00
1FC0FC00
0FE1FC00
0FE1FC00
0FE1F800
07F1F800
07F3F000
03F3F000
03FBF000
03FFE000
01FFE000
01FFE000
01FFC000
00FFC000
00FFC000
00FF8000
007F8000
007F8000
003F0000
007F0000
007F0000
007E0000
00FE0000
1FFE0000
1FFC0000
1FFC0000
1FF80000
1FE00000
ENDCHAR
STARTCHAR 0178
ENCODING 376
SWIDTH 640 0
DWIDTH 32 0
BBX 31 44 1 0
BITMAP
00F83E00
00F83E00
00F83E00
00F83E00
00F83E00
00F83E00
00000000
00000000
FF0003FE
7F8003FC
7F8003FC
3FC007F8
3FC007F8
1FE00FF0
1FE00FF0
0FF01FE0
0FF01FE0
07F81FC0
03F83FC0
03FC3F80
01FC7F80
01FE7F00
00FEFF00
00FFFE00
007FFE00
007FFC00
003FFC00
003FF800
001FF800
001FF000
000FF000
000FF000
000FF000
000FF000
000FF000
000FF000
000FF000
000FF000
000FF000
000FF000
000FF000
000FF000
000FF000
000FF000
ENDCHAR
STARTCHAR 0179
ENCODING 377
SWIDTH 600 0
DWIDTH 30 0
BBX 27 45 2 0
BITMAP
0003F000
0007E000
000FC000
001F0000
003E0000
007C0000
00000000
00000000
00000000
FFFFFFE0
FFFFFFE0
FFFFFFE0
FFFFFFE0
FFFFFFE0
FFFFFFE0
00003FE0
00007FC0
0000FF80
0000FF00
0001FF00
0003FE00
0007FC00
000FF800
000FF000
001FF000
003FE000
007FC000
00FF8000
00FF0000
01FF0000
03FE0000
07FC0000
0FF80000
0FF00000
1FF00000
3FE00000
7FC00000
FF800000
FF800000
FFFFFFE0
FFFFFFE0
FFFFFFE0
FFFFFFE0
FFFFFFE0
FFFFFFE0
ENDCHAR
STARTCHAR 017A
ENCODING 378
SWIDTH 500 0
DWIDTH 25 0
BBX 22 38 2 0
BITMAP
001F80
001F00
003F00
003E00
007C00
007800
00F000
00E000
000000
000000
000000
FFFFF8
FFFFF8
FFFFF8
FFFFF8
FFFFF8
FFFFF8
000FF8
001FF0
003FE0
003FC0
007F80
00FF80
01FF00
03FE00
07FC00
0FF800
0FF000
1FE000
3FE000
7FC000
FF8000
FFFFFC
FFFFFC
FFFFFC
FFFFFC
FFFFFC
FFFFFC
ENDCHAR
STARTCHAR 017B
ENCODING 379
SWIDTH 600 0
DWIDTH 30 0
BBX 27 44 2 0
BITMAP
001F8000
001F8000
001F8000
001F8000
001F8000
001F8000
00000000
00000000
FFFFFFE0
FFFFFFE0
FFFFFFE0
FFFFFFE0
FFFFFFE0
FFFFFFE0
00003FE0
00007FC0
0000FF80
0000FF00
0001FF00
0003FE00
0007FC00
000FF800
000FF000
001FF000
003FE000
007FC000
00FF8000
00FF0000
01FF0000
03FE0000
07FC0000
0FF80000
0FF00000
1FF00000
3FE00000
7FC00000
FF800000
FF800000
FFFFFFE0
FFFFFFE0
FFFFFFE0
FFFFFFE0
FFFFFFE0
FFFFFFE0
ENDCHAR
STARTCHAR 017C
ENCODING 380
SWIDTH 500 0
DWIDTH 25 0
BBX 22 37 2 0
BITMAP
00FC00
00FC00
00FC00
00FC00
00FC00
00FC00
00FC00
000000
000000
000000
FFFFF8
FFFFF8
FFFFF8
FFFFF8
FFFFF8
FFFFF8
000FF8
001FF0
003FE0
003FC0
007F80
00FF80
01FF00
03FE00
07FC00
0FF800
0FF000
1FE000
3FE000
7FC000
FF8000
FFFFFC
FFFFFC
FFFFFC
FFFFFC
FFFFFC
FFFFFC
ENDCHAR
STARTCHAR 017D
ENCODING 381
SWIDTH 600 0
DWIDTH 30 0
BBX 27 45 2 0
BITMAP
07C0F800
03E1F000
01F3E000
00FFC000
007F8000
003F0000
00000000
00000000
00000000
FFFFFFE0
FFFFFFE0
FFFFFFE0
FFFFFFE0
FFFFFFE0
FFFFFFE0
00003FE0
00007FC0
0000FF80
0000FF00
0001FF00
0003FE00
0007FC00
000FF800
000FF000
001FF000
003FE000
007FC000
00FF8000
00FF0000
01FF0000
03FE0000
07FC0000
0FF80000
0FF00000
1FF00000
3FE00000
7FC00000
FF800000
FF800000
FFFFFFE0
FFFFFFE0
FFFFFFE0
FFFFFFE0
FFFFFFE0
FFFFFFE0
ENDCHAR
STARTCHAR 017E
ENCODING 382
SWIDTH 500 0
DWIDTH 25 0
BBX 22 38 2 0
BITMAP
3C03C0
1E0780
0F0780
0F8F00
079E00
03FC00
03FC00
01F800
000000
000000
000000
FFFFF8
FFFFF8
FFFFF8
FFFFF8
FFFFF8
FFFFF8
000FF8
001FF0
003FE0
003FC0
007F80
00FF80
01FF00
03FE00
07FC00
0FF800
0FF000
1FE000
3FE000
7FC000
FF8000
FFFFFC
FFFFFC
FFFFFC
FFFFFC
FFFFFC
FFFFFC
ENDCHAR
STARTCHAR 017F
ENCODING 383
SWIDTH 340 0
DWIDTH 17 0
BBX 14 36 2 0
BITMAP
01FC
07FC
0FFC
1FFC
1FFC
1FE0
1FC0
1FC0
1FC0
FFC0
FFC0
FFC0
FFC0
FFC0
1FC0
1FC0
1FC0
1FC0
1FC0
1FC0
1FC0
1FC0
1FC0
1FC0
1FC0
1FC0
1FC0
1FC0
1FC0
1FC0
1FC0
1FC0
1FC0
1FC0
1FC0
1FC0
ENDCHAR
STARTCHAR 0180
ENCODING 384
SWIDTH 620 0
DWIDTH 31 0
BBX 29 37 0 -1
BITMAP
1FC00000
1FC00000
1FC00000
FFFF0000
FFFF0000
FFFF0000
1FC00000
1FC00000
1FC00000
1FC7FC00
1FCFFF00
1FDFFF80
1FFFFFC0
1FFFFFC0
1FFE7FE0
1FF81FF0
1FF00FF0
1FE007F0
1FE007F8
1FC003F8
1FC003F8
1FC003F8
1FC003F8
1FC003F8
1FC003F8
1FC003F8
1FE007F8
1FE007F0
1FE007F0
1FF00FF0
1FFC3FE0
1FFFFFE0
1FFFFFC0
1FFFFF80
1FDFFF00
1FCFFE00
0003F800
ENDCHAR
STARTCHAR 0181
ENCODING 385
SWIDTH 900 0
DWIDTH 45 0
BBX 41 36 2 0
BITMAP
01FFFFFF0000
0FFFFFFFE000
1FFFFFFFF800
3FFFFFFFFC00
7FFFFFFFFC00
7FFFFFFFFE00
FFFFF003FF00
FFCFF000FF00
FF0FF0007F00
FE0FF0007F00
FE0FF0007F00
FE0FF0007F00
FF0FF000FE00
FF8FF003FE00
7F8FFFFFFC00
7F8FFFFFF000
3F8FFFFFE000
3F8FFFFFF800
0F8FFFFFFC00
038FFFFFFE00
000FF001FF00
000FF0007F00
000FF0003F80
000FF0003F80
000FF0003F80
000FF0003F80
000FF0003F80
000FF0007F80
000FF0007F80
000FF003FF00
000FFFFFFF00
000FFFFFFE00
000FFFFFFC00
000FFFFFF800
000FFFFFF000
000FFFFF8000
ENDCHAR
STARTCHAR 0182
ENCODING 386
SWIDTH 680 0
DWIDTH 34 0
BBX 29 36 3 0
BITMAP
FFFFFFC0
FFFFFFC0
FFFFFFC0
FFFFFFC0
FFFFFFC0
FFFFFFC0
FF000000
FF000000
FF000000
FF000000
FF000000
FF000000
FF000000
FFFFF800
FFFFFE00
FFFFFF80
FFFFFFC0
FFFFFFE0
FFFFFFE0
FF001FF0
FF0007F0
FF0007F8
FF0003F8
FF0003F8
FF0003F8
FF0003F8
FF0003F8
FF0007F8
FF000FF8
FF003FF0
FFFFFFF0
FFFFFFE0
FFFFFFC0
FFFFFF80
FFFFFF00
FFFFF800
ENDCHAR
STARTCHAR 0183
ENCODING 387
SWIDTH 640 0
DWIDTH 32 0
BBX 26 37 4 -1
BITMAP
FFFFC000
FFFFC000
FFFFC000
FFFFC000
FFFFC000
FFFFC000
FE000000
FE000000
FE000000
FE3FE000
FE7FF800
FEFFFC00
FFFFFE00
FFFFFE00
FFF3FF00
FFC0FF80
FF807F80
FF003F80
FF003FC0
FE001FC0
FE001FC0
FE001FC0
FE001FC0
FE001FC0
FE001FC0
FE001FC0
FF003FC0
FF003F80
FF003F80
FF807F80
FFE1FF00
FFFFFF00
FFFFFE00
FFFFFC00
FEFFF800
FE7FF000
001FC000
ENDCHAR
STARTCHAR 0184
ENCODING 388
SWIDTH 700 0
DWIDTH 35 0
BBX 32 36 1 0
BITMAP
00100000
00700000
00F00000
01F00000
07F00000
0FF00000
1FF00000
7FF00000
FFF00000
FFF00000
7FF00000
3FF00000
0FF00000
0FFFFF80
0FFFFFE0
0FFFFFF0
0FFFFFF8
0FFFFFFC
0FFFFFFC
0FF007FE
0FF001FE
0FF001FE
0FF000FE
0FF000FF
0FF000FF
0FF000FF
0FF000FE
0FF001FE
0FF001FE
0FF00FFE
0FFFFFFC
0FFFFFFC
0FFFFFF8
0FFFFFF0
0FFFFFE0
0FFFFF00
ENDCHAR
STARTCHAR 0185
ENCODING 389
SWIDTH 660 0
DWIDTH 33 0
BBX 31 37 0 -1
BITMAP
00100000
00300000
00F00000
03F00000
07F00000
1FF00000
7FF00000
FFF00000
3FF00000
1FF1FF00
0FF3FFC0
07F7FFE0
07FFFFF0
07FFFFF0
07FF9FF8
07FE07FC
07FC03FC
07F801FC
07F801FE
07F000FE
07F000FE
07F000FE
07F000FE
07F000FE
07F000FE
07F000FE
07F801FE
07F801FC
07F801FC
07FC03FC
07FF0FF8
07FFFFF8
07FFFFF0
07FFFFE0
07F7FFC0
07F3FF80
0000FE00
ENDCHAR
STARTCHAR 0186
ENCODING 390
SWIDTH 720 0
DWIDTH 36 0
BBX 32 38 2 -1
BITMAP
001FE000
00FFFE00
03FFFF00
0FFFFFC0
1FFFFFE0
3FFFFFF0
3FFC7FF8
7FE00FF8
7F8007FC
FF0003FC
FF0001FE
FE0001FE
FE0000FE
000000FF
000000FF
000000FF
000000FF
000000FF
000000FF
000000FF
000000FF
000000FF
000000FF
000000FF
000000FE
FE0001FE
FE0001FE
FF0003FE
FF0007FC
7F800FFC
7FE01FF8
3FFFFFF0
3FFFFFF0
1FFFFFE0
07FFFF80
03FFFF00
00FFFC00
00030000
ENDCHAR
STARTCHAR 0187
ENCODING 391
SWIDTH 760 0
DWIDTH 38 0
BBX 35 37 2 0
BITMAP
001FFE1FE0
00FFFFBFE0
01FFFFFFE0
03FFFFFFE0
07FFFFFFE0
0FFFFFFF80
1FFC07FF00
3FF003FF00
3FE001FF00
7FC000FF00
7F80007F00
7F80007F00
7F00000000
FF00000000
FF00000000
FF00000000
FF00000000
FF00000000
FF00000000
FF00000000
FF00000000
FF00000000
FF00000000
FF00000000
7F00007F00
7F80007F00
7F8000FF00
3FC000FF00
3FE001FE00
1FF003FE00
1FFE1FFC00
0FFFFFFC00
07FFFFF800
03FFFFF000
01FFFFC000
007FFF8000
000FF80000
ENDCHAR
STARTCHAR 0188
ENCODING 392
SWIDTH 620 0
DWIDTH 31 0
BBX 28 29 2 -1
BITMAP
000000F0
01FFDFF0
07FFFFF0
0FFFFFF0
1FFFFFF0
3FFFFFF0
3FE1FF80
7F80FF00
7F007F00
7F003F00
FF000000
FE000000
FE000000
FE000000
FE000000
FE000000
FE000000
FE000000
FE000000
FF003F00
7F007F00
7F807F00
7FC0FF00
3FFFFE00
1FFFFE00
0FFFFC00
07FFF800
03FFE000
007F8000
ENDCHAR
STARTCHAR 0189
ENCODING 393
SWIDTH 740 0
DWIDTH 37 0
BBX 33 36 2 0
BITMAP
1FFFFC0000
1FFFFF8000
1FFFFFE000
1FFFFFF000
1FFFFFF800
1FFFFFFC00
1FE00FFC00
1FE003FE00
1FE001FE00
1FE000FF00
1FE0007F00
1FE0007F00
1FE0007F00
1FE0003F80
1FE0003F80
FFFFC03F80
FFFFC03F80
FFFFC03F80
FFFFC03F80
1FE0003F80
1FE0003F80
1FE0003F80
1FE0003F80
1FE0007F00
1FE0007F00
1FE0007F00
1FE000FF00
1FE001FE00
1FE003FE00
1FE00FFC00
1FFFFFFC00
1FFFFFF800
1FFFFFF000
1FFFFFE000
1FFFFF8000
1FFFFC0000
ENDCHAR
STARTCHAR 018A
ENCODING 394
SWIDTH 920 0
DWIDTH 46 0
BBX 43 36 2 0
BITMAP
01FFFFFE0000
0FFFFFFFC000
1FFFFFFFF000
3FFFFFFFF800
7FFFFFFFFC00
7FFFFFFFFE00
7FFFF007FF00
FFFFF001FF00
FF0FF000FF80
FE0FF0007F80
FE0FF0003F80
FE0FF0003FC0
FE0FF0003FC0
FF0FF0001FC0
7F8FF0001FC0
7F8FF0001FC0
7F8FF0001FC0
3F8FF0001FE0
1F8FF0001FE0
078FF0001FC0
000FF0001FC0
000FF0001FC0
000FF0001FC0
000FF0003FC0
000FF0003FC0
000FF0003FC0
000FF0007F80
000FF000FF80
000FF001FF00
000FF007FF00
000FFFFFFE00
000FFFFFFC00
000FFFFFF800
000FFFFFF000
000FFFFFC000
000FFFFE0000
ENDCHAR
STARTCHAR 018B
ENCODING 395
SWIDTH 720 0
DWIDTH 36 0
BBX 29 36 3 0
BITMAP
1FFFFFF8
1FFFFFF8
1FFFFFF8
1FFFFFF8
1FFFFFF8
1FFFFFF8
000007F8
000007F8
000007F8
000007F8
000007F8
000007F8
000007F8
00FFFFF8
03FFFFF8
0FFFFFF8
1FFFFFF8
3FFFFFF8
3FFFFFF8
7FC007F8
7F0007F8
FF0007F8
FE0007F8
FE0007F8
FE0007F8
FE0007F8
FE0007F8
FF0007F8
7F8007F8
7FE007F8
7FFFFFF8
3FFFFFF8
1FFFFFF8
0FFFFFF8
07FFFFF8
00FFFFF8
ENDCHAR
STARTCHAR 018C
ENCODING 396
SWIDTH 620 0
DWIDTH 31 0
BBX 26 37 2 -1
BITMAP
00FFFFC0
00FFFFC0
00FFFFC0
00FFFFC0
00FFFFC0
00FFFFC0
00001FC0
00001FC0
00001FC0
01FF1FC0
07FF9FC0
0FFFDFC0
1FFFFFC0
1FFFFFC0
3FF3FFC0
7FC0FFC0
7F807FC0
7F003FC0
FF003FC0
FE001FC0
FE001FC0
FE001FC0
FE001FC0
FE001FC0
FE001FC0
FE001FC0
FF003FC0
7F003FC0
7F803FC0
7F807FC0
3FE1FFC0
3FFFFFC0
1FFFFFC0
0FFFFFC0
07FFDFC0
03FF9FC0
00FE0000
ENDCHAR
STARTCHAR 018D
ENCODING 397
SWIDTH 620 0
DWIDTH 31 0
BBX 27 36 0 -9
BITMAP
007FC000
03FFF800
0FFFFC00
1FFFFF00
3FFFFF80
3FFFFF80
7FF1FFC0
7F803FC0
7F001FC0
FF001FE0
FE000FE0
FE000FE0
FE000FE0
FE000FE0
FE000FE0
FE000FE0
FE001FE0
7F001FC0
7F003FC0
7F807FC0
3FF9FF80
3FFFFF00
1FFFFF00
0FFFFC00
07FFF800
01FFC000
00FFC000
003FF000
001FFC00
0007FE00
1FFFFF80
1FFFFF80
1FFFFF80
1FFFFF80
1FFFFF80
1FFFFF80
ENDCHAR
STARTCHAR 018E
ENCODING 398
SWIDTH 660 0
DWIDTH 33 0
BBX 27 36 3 0
BITMAP
7FFFFFE0
7FFFFFE0
7FFFFFE0
7FFFFFE0
7FFFFFE0
7FFFFFE0
00001FE0
00001FE0
00001FE0
00001FE0
00001FE0
00001FE0
00001FE0
00001FE0
3FFFFFE0
3FFFFFE0
3FFFFFE0
3FFFFFE0
3FFFFFE0
3FFFFFE0
00001FE0
00001FE0
00001FE0
00001FE0
00001FE0
00001FE0
00001FE0
00001FE0
00001FE0
00001FE0
FFFFFFE0
FFFFFFE0
FFFFFFE0
FFFFFFE0
FFFFFFE0
FFFFFFE0
ENDCHAR
STARTCHAR 018F
ENCODING 399
SWIDTH 780 0
DWIDTH 39 0
BBX 35 37 2 0
BITMAP
001FFE0000
00FFFFC000
01FFFFE000
03FFFFF800
07FFFFFC00
0FFFFFFC00
1FF807FE00
3FF001FF00
3FC000FF00
7FC0007F80
7F80007F80
0000003FC0
0000003FC0
0000001FC0
0000001FC0
FFFFFFFFC0
FFFFFFFFC0
FFFFFFFFE0
FFFFFFFFE0
FFFFFFFFC0
FFFFFFFFC0
FE00001FC0
FF00001FC0
7F00003FC0
7F00003FC0
7F80003F80
3F80007F80
3FC000FF80
3FE001FF00
1FF803FE00
0FFE1FFE00
07FFFFFC00
03FFFFF800
01FFFFF000
00FFFFE000
003FFF8000
0007FC0000
ENDCHAR
STARTCHAR 0190
ENCODING 400
SWIDTH 680 0
DWIDTH 34 0
BBX 30 37 2 0
BITMAP
00FFFC00
03FFFF00
0FFFFFC0
1FFFFFE0
1FFFFFE0
3FFDFFF0
3FC00FF0
7F8007F8
7F0007F8
7F0003F8
7F000000
7F000000
7F800000
7F800000
3FE00000
3FFFC000
1FFFC000
0FFFC000
1FFFC000
3FFFC000
7FFFC000
7FC00000
FF800000
FF000000
FE000000
FE0003FC
FE0003FC
FE0003F8
FF0007F8
7F000FF8
7FC03FF0
3FFFFFF0
3FFFFFE0
1FFFFFC0
07FFFF80
03FFFE00
007FF000
ENDCHAR
STARTCHAR 0191
ENCODING 401
SWIDTH 620 0
DWIDTH 31 0
BBX 29 46 1 -10
BITMAP
1FFFFFF8
1FFFFFF8
1FFFFFF8
1FFFFFF8
1FFFFFF8
1FFFFFF8
1FE00000
1FE00000
1FE00000
1FE00000
1FE00000
1FE00000
1FE00000
1FE00000
1FFFFFC0
1FFFFFC0
1FFFFFC0
1FFFFFC0
1FFFFFC0
1FFFFFC0
1FE00000
1FE00000
1FE00000
1FE00000
1FE00000
1FE00000
1FE00000
1FE00000
1FE00000
1FE00000
1FE00000
1FE00000
1FE00000
1FE00000
1FE00000
1FE00000
1FE00000
1FE00000
1FE00000
1FE00000
3FE00000
FFE00000
FFC00000
FFC00000
FFC00000
FF800000
ENDCHAR
STARTCHAR 0192
ENCODING 402
SWIDTH 340 0
DWIDTH 17 0
BBX 14 46 2 -10
BITMAP
01FC
07FC
0FFC
1FFC
1FFC
1FE0
1FC0
1FC0
1FC0
FFFC
FFFC
FFFC
FFFC
FFFC
1FC0
1FC0
1FC0
1FC0
1FC0
1FC0
1FC0
1FC0
1FC0
1FC0
1FC0
1FC0
1FC0
1FC0
1FC0
1FC0
1FC0
1FC0
1FC0
1FC0
1FC0
1FC0
1FC0
1FC0
1FC0
1FC0
3FC0
FFC0
FFC0
FFC0
FF80
FF00
ENDCHAR
STARTCHAR 0193
ENCODING 403
SWIDTH 780 0
DWIDTH 39 0
BBX 36 37 2 0
BITMAP
001FFF0FF0
007FFFDFF0
01FFFFFFF0
03FFFFFFF0
07FFFFFFF0
0FFFFFFFC0
1FFC03FF80
1FF000FF80
3FE0007F80
3FC0003F80
7F80003F80
7F80000000
7F00000000
7F00000000
FF00000000
FF00000000
FF00000000
FF001FFF80
FF001FFF80
FF001FFF80
FF001FFF80
FF001FFF80
FF001FFF80
FF00001F80
7F80001F80
7F80003F80
7FC0003F80
3FE0007F80
3FF000FF80
1FF801FF80
0FFF0FFF80
0FFFFFFF80
07FFFFEF80
01FFFFCF80
00FFFF8780
003FFF0780
0007F80000
ENDCHAR
STARTCHAR 0194
ENCODING 404
SWIDTH 660 0
DWIDTH 33 0
BBX 32 37 1 -1
BITMAP
FF0001FF
7F8001FE
7F8003FE
3FC003FC
3FC007FC
1FE007F8
1FE00FF0
0FF00FF0
0FF01FE0
07F81FE0
07F81FC0
03FC3FC0
01FC3F80
01FE7F80
00FE7F00
00FFFF00
007FFE00
007FFE00
003FFC00
003FFC00
001FF800
001FF800
000FF000
000FF800
001FF800
003FFC00
003FFC00
007FFE00
007FFE00
00FFFF00
00FE7F00
00FE7F00
00FFFF00
00FFFF00
007FFE00
003FFC00
000FF000
ENDCHAR
STARTCHAR 0195
ENCODING 405
SWIDTH 940 0
DWIDTH 47 0
BBX 40 37 4 -1
BITMAP
FE00000000
FE00000000
FE00000000
FE00000000
FE00000000
FE00000000
FE00000000
FE00000000
FE00000000
FE1FF0007F
FE7FF8007F
FEFFFC007F
FFFFFE007F
FFFFFE007F
FFF7FF007F
FF80FF007F
FF00FF007F
FF007F007F
FE007F007F
FE007F007F
FE007F007F
FE007F007F
FE007F007F
FE007F007F
FE007F007F
FE007F007F
FE007F007F
FE007F007F
FE007F00FF
FE007F80FF
FE003FC1FE
FE003FFFFE
FE003FFFFC
FE001FFFFC
FE000FFFF8
FE0007FFE0
000000FF80
ENDCHAR
STARTCHAR 0196
ENCODING 406
SWIDTH 300 0
DWIDTH 15 0
BBX 11 39 3 -2
BITMAP
FE00
FE00
FE00
FE00
FE00
FE00
FE00
FE00
FE00
FE00
FE00
FE00
FE00
FE00
FE00
FE00
FE00
FE00
FE00
FE00
FE00
FE00
FE00
FE00
FE00
FE00
FE00
FE00
FE00
FE00
FE00
FE00
FE20
FFE0
FFE0
FFE0
7FE0
3FE0
1FE0
ENDCHAR
STARTCHAR 0197
ENCODING 407
SWIDTH 440 0
DWIDTH 22 0
BBX 20 36 1 0
BITMAP
03FC00
03FC00
03FC00
03FC00
03FC00
03FC00
03FC00
03FC00
03FC00
03FC00
03FC00
03FC00
03FC00
03FC00
03FC00
FFFFF0
FFFFF0
FFFFF0
FFFFF0
FFFFF0
FFFFF0
03FC00
03FC00
03FC00
03FC00
03FC00
03FC00
03FC00
03FC00
03FC00
03FC00
03FC00
03FC00
03FC00
03FC00
03FC00
ENDCHAR
STARTCHAR 0198
ENCODING 408
SWIDTH 780 0
DWIDTH 39 0
BBX 35 37 4 0
BITMAP
000000F800
FF0003FE00
FF0007FF00
FF001FFF80
FF003FFFC0
FF007FFFE0
FF007FDFE0
FF00FF07E0
FF01FE07E0
FF03FC07E0
FF07F80FE0
FF0FF00FE0
FF1FE01FC0
FF3FC00FC0
FF7FC00780
FFFF800300
FFFF000000
FFFF800000
FFFFC00000
FFFFE00000
FFFFE00000
FFEFF00000
FFCFF80000
FF87FC0000
FF03FC0000
FF01FE0000
FF01FF0000
FF00FF8000
FF007F8000
FF003FC000
FF003FE000
FF001FF000
FF000FF800
FF0007F800
FF0007FC00
FF0003FE00
FF0001FF00
ENDCHAR
STARTCHAR 0199
ENCODING 409
SWIDTH 560 0
DWIDTH 28 0
BBX 24 36 3 0
BITMAP
1FC000
7FC000
7FC000
FFC000
FFC000
FFC000
FE0000
FE0000
FE0000
FE01FE
FE01FE
FE03FC
FE07F8
FE0FF0
FE1FE0
FE3FC0
FE3F80
FE7F00
FEFE00
FFFE00
FFFE00
FFFF00
FFFF80
FFFF80
FFBFC0
FF9FC0
FF1FE0
FE0FF0
FE0FF0
FE07F8
FE07F8
FE03FC
FE03FC
FE01FE
FE01FF
FE00FF
ENDCHAR
STARTCHAR 019A
ENCODING 410
SWIDTH 400 0
DWIDTH 20 0
BBX 19 39 0 -1
BITMAP
03F800
03F800
03F800
03F800
03F800
03F800
03F800
03F800
03F800
03F800
03F800
03F800
03F800
03F800
03F800
03F800
FFFFE0
FFFFE0
FFFFE0
FFFFE0
FFFFE0
FFFFE0
03F800
03F800
03F800
03F800
03F800
03F800
03F800
03F800
03F800
03F800
03F800
03F800
03F800
03F800
03F800
03F800
03F800
ENDCHAR
STARTCHAR 019B
ENCODING 411
SWIDTH 600 0
DWIDTH 30 0
BBX 28 37 1 0
BITMAP
02000000
1FC00000
1FF00000
3FF81800
3FF87800
3FFCF800
3FFFF800
00FFF000
007FC000
007F0000
00FF0000
03FF0000
0FFF8000
1FFF8000
7F7FC000
7EFFC000
78FFC000
61FFE000
41FFE000
01FFE000
03FFF000
03FBF000
07F3F800
07F3F800
07F1F800
0FE1FC00
0FE1FC00
0FE0FC00
1FC0FE00
1FC07E00
3F807F20
3F807FE0
3F803FE0
7F003FF0
7F003FF0
FF001FF0
FE000FE0
ENDCHAR
STARTCHAR 019C
ENCODING 412
SWIDTH 980 0
DWIDTH 49 0
BBX 41 36 4 0
BITMAP
FF007F807F80
FF007F807F80
FF007F807F80
FF007F807F80
FF007F807F80
FF007F807F80
FF007F807F80
FF007F807F80
FF007F807F80
FF007F807F80
FF007F807F80
FF007F807F80
FF007F807F80
FF007F807F80
FF007F807F80
FF007F807F80
FF007F807F80
FF007F807F80
FF007F807F80
FF007F807F80
FF007F807F80
FF007F807F80
FF007F807F80
FF007F807F80
FF007F807F80
FF007F807F80
FF007F807F80
FF00FF80FF80
FF00FF80FF80
FF83FFC1FF80
FFFFFFFFFF80
7FFFFFFFFF80
7FFFFFFFFF80
3FFF9FFF7F80
1FFF0FFE7F80
0FFC07FC7F80
ENDCHAR
STARTCHAR 019D
ENCODING 413
SWIDTH 740 0
DWIDTH 37 0
BBX 33 46 1 -10
BITMAP
1FE0007F80
1FF0007F80
1FF0007F80
1FF8007F80
1FF8007F80
1FFC007F80
1FFE007F80
1FFE007F80
1FFF007F80
1FFF007F80
1FFF807F80
1FFF807F80
1FFFC07F80
1FEFE07F80
1FEFE07F80
1FE7F07F80
1FE3F07F80
1FE3F87F80
1FE1FC7F80
1FE1FC7F80
1FE0FE7F80
1FE07E7F80
1FE07F7F80
1FE03F7F80
1FE03FFF80
1FE01FFF80
1FE01FFF80
1FE00FFF80
1FE007FF80
1FE007FF80
1FE003FF80
1FE003FF80
1FE001FF80
1FE000FF80
1FE000FF80
1FE0007F80
1FE0000000
1FE0000000
1FE0000000
1FE0000000
3FE0000000
FFE0000000
FFC0000000
FFC0000000
FFC0000000
FF80000000
ENDCHAR
STARTCHAR 019E
ENCODING 414
SWIDTH 620 0
DWIDTH 31 0
BBX 24 37 3 -9
BITMAP
FE1FF0
FE7FF8
FEFFFC
FFFFFE
FFFFFE
FFF7FF
FF80FF
FF00FF
FE007F
FE007F
FE007F
FE007F
FE007F
FE007F
FE007F
FE007F
FE007F
FE007F
FE007F
FE007F
FE007F
FE007F
FE007F
FE007F
FE007F
FE007F
FE007F
00007F
00007F
00007F
00007F
00007F
00007F
00007F
00007F
00007F
00007F
ENDCHAR
STARTCHAR 019F
ENCODING 415
SWIDTH 780 0
DWIDTH 39 0
BBX 35 37 2 0
BITMAP
001FFE0000
007FFFC000
01FFFFE000
03FFFFF800
07FFFFFC00
0FFFFFFE00
1FFC07FE00
1FF001FF00
3FE000FF00
3FC0007F80
7F80003F80
7F80003FC0
7F00003FC0
FF00001FC0
FF00001FC0
FFFFFFFFC0
FFFFFFFFC0
FFFFFFFFE0
FFFFFFFFE0
FFFFFFFFE0
FFFFFFFFC0
FF00001FC0
FF00001FC0
7F00001FC0
7F00003FC0
7F80003F80
3FC0007F80
3FC000FF00
1FE001FF00
1FF803FE00
0FFE1FFE00
07FFFFFC00
07FFFFF800
01FFFFF000
00FFFFE000
003FFF8000
0007FC0000
ENDCHAR
STARTCHAR 01A0
ENCODING 416
SWIDTH 800 0
DWIDTH 40 0
BBX 38 39 2 -1
BITMAP
00000001FC
00000001FC
001FFF01FC
007FFFC1FC
01FFFFF1F8
03FFFFFBF8
07FFFFFFF0
0FFFFFFFC0
1FFC07FF80
1FF001FF80
3FE000FF80
3FC0007FC0
7F80003FC0
7F80001FC0
7F00001FE0
FF00001FE0
FF00000FE0
FF00000FE0
FF00000FE0
FF00000FF0
FF00000FF0
FF00000FF0
FF00000FE0
FF00000FE0
FF00000FE0
7F00001FE0
7F80001FE0
7F80003FC0
7FC0003FC0
3FE0007FC0
3FF000FF80
1FF801FF00
0FFF1FFF00
07FFFFFE00
03FFFFFC00
01FFFFF800
00FFFFE000
003FFF8000
0007FC0000
ENDCHAR
STARTCHAR 01A1
ENCODING 417
SWIDTH 660 0
DWIDTH 33 0
BBX 31 30 2 -1
BITMAP
000000FE
000000FE
00FFE0FE
03FFF8FC
0FFFFCFC
1FFFFFF8
1FFFFFF0
3FF1FFE0
7FC07F80
7F803FC0
7F001FC0
FF001FE0
FE000FE0
FE000FE0
FE000FE0
FE000FE0
FE000FE0
FE000FE0
FE000FE0
FF001FE0
7F001FE0
7F803FC0
7F803FC0
3FE0FF80
3FFFFF80
1FFFFF00
0FFFFE00
07FFFC00
01FFF000
007FC000
ENDCHAR
STARTCHAR 01A2
ENCODING 418
SWIDTH 1080 0
DWIDTH 54 0
BBX 48 47 2 -10
BITMAP
000000003F80
001FFF00FFE0
007FFFE3FFF8
01FFFFF3FFFC
03FFFFFFFFFC
07FFFFFFFFFE
0FFFFFFFF1FE
1FFC07FFE0FE
1FF001FFE0FE
3FE000FFE0FF
3FC0007FE0FF
7F80003FE0FF
7F80001FE0FF
7F00001FE0FF
FF00001FE0FF
FF00000FE0FF
FF00000FE0FF
FF00000FE0FF
FF00000FF0FF
FF00000FF0FF
FF00000FF0FF
FF00000FE0FF
FF00000FE0FF
FF00000FE0FF
7F00001FE0FF
7F80001FE0FF
7F80003FC0FF
7FC0003FC0FF
3FE0007FC0FF
3FF000FF80FF
1FF801FF00FF
0FFF1FFF00FF
07FFFFFE00FF
03FFFFFC00FF
01FFFFF800FF
00FFFFE000FF
003FFF8000FF
0007FC0000FF
0000000000FF
0000000000FF
0000000000FF
0000000000FF
0000000000FF
0000000000FF
0000000000FF
0000000000FF
0000000000FF
ENDCHAR
STARTCHAR 01A3
ENCODING 419
SWIDTH 840 0
DWIDTH 42 0
BBX 37 37 2 -9
BITMAP
00FFE03F80
03FFF87FC0
0FFFFEFFE0
1FFFFFFFE0
1FFFFFFFF0
3FF1FFFFF0
7FC07FC7F8
7F803FC3F8
7F001FC3F8
FF001FE3F8
FE000FE3F8
FE000FE3F8
FE000FE3F8
FE000FE3F8
FE000FE3F8
FE000FE3F8
FE000FE3F8
FF001FE3F8
7F001FE3F8
7F803FC3F8
7F803FC3F8
3FE0FF83F8
3FFFFF83F8
1FFFFF03F8
0FFFFE03F8
07FFFC03F8
01FFF003F8
007FC003F8
00000003F8
00000003F8
00000003F8
00000003F8
00000003F8
00000003F8
00000003F8
00000003F8
00000003F8
ENDCHAR
STARTCHAR 01A4
ENCODING 420
SWIDTH 880 0
DWIDTH 44 0
BBX 40 36 2 0
BITMAP
01FFFFFF00
0FFFFFFFE0
1FFFFFFFF0
3FFFFFFFF8
7FFFFFFFFC
7FFFFFFFFC
FFFFF00FFE
FFEFF001FE
FF0FF001FE
FE0FF000FE
FE0FF000FF
FE0FF000FF
FE0FF000FF
FF0FF000FE
7F8FF001FE
7F8FF001FE
7F8FF007FE
3F8FFFFFFC
1F8FFFFFFC
0F8FFFFFF8
000FFFFFF0
000FFFFFE0
000FFFFF80
000FF00000
000FF00000
000FF00000
000FF00000
000FF00000
000FF00000
000FF00000
000FF00000
000FF00000
000FF00000
000FF00000
000FF00000
000FF00000
ENDCHAR
STARTCHAR 01A5
ENCODING 421
SWIDTH 620 0
DWIDTH 31 0
BBX 26 45 3 -10
BITMAP
07C00000
3FC00000
7FC00000
FFC00000
FFC00000
FFC00000
FF000000
FE000000
FE3FE000
FE7FF800
FEFFFC00
FFFFFE00
FFFFFE00
FFF3FF00
FFC0FF80
FF807F80
FF003F80
FF003FC0
FE001FC0
FE001FC0
FE001FC0
FE001FC0
FE001FC0
FE001FC0
FE001FC0
FF003FC0
FF003F80
FF003F80
FF807F80
FFE1FF00
FFFFFF00
FFFFFE00
FEFFFC00
FEFFF800
FE3FF000
FE0FC000
FE000000
FE000000
FE000000
FE000000
FE000000
FE000000
FE000000
FE000000
FE000000
ENDCHAR
STARTCHAR 01A6
ENCODING 422
SWIDTH 640 0
DWIDTH 32 0
BBX 27 45 4 -9
BITMAP
FF000000
FF000000
FF000000
FF000000
FF000000
FF000000
FF000000
FF000000
FF000000
FFFFE000
FFFFF800
FFFFFC00
FFFFFE00
FFFFFE00
FF01FF00
FF00FF00
FF007F00
FF007F00
FF007F00
FF007F00
FF00FF00
FFFFFE00
FFFFFE00
FFFFFC00
FFFFFE00
FFFFFF00
FF03FF00
FF00FF80
FF007F80
FF003F80
FF003F80
FF003FC0
FF003FC0
FF003FC0
FF003FC0
FF003FC0
00003FC0
00003FC0
00003FC0
00003FC0
00003FC0
00003FC0
00003FC0
00003FE0
00001FE0
ENDCHAR
STARTCHAR 01A7
ENCODING 423
SWIDTH 680 0
DWIDTH 34 0
BBX 30 37 2 0
BITMAP
00FFFC00
03FFFF00
0FFFFFC0
1FFFFFE0
1FFFFFE0
3FFE7FF0
3FC00FF0
7F8007F8
7F8003F8
7F0003F8
000003F8
000003F8
000007F8
00003FF8
0003FFF0
007FFFF0
03FFFFE0
0FFFFFC0
3FFFFF00
3FFFF800
7FFF0000
7FE00000
FF800000
FF000000
FE000000
FE0003FC
FE0003FC
FE0003F8
FF0007F8
7F800FF8
7FC03FF0
3FFFFFF0
3FFFFFE0
1FFFFFC0
07FFFF80
03FFFE00
003FF000
ENDCHAR
STARTCHAR 01A8
ENCODING 424
SWIDTH 560 0
DWIDTH 28 0
BBX 24 28 2 0
BITMAP
03FFC0
0FFFF0
1FFFF8
3FFFFC
7FFFFC
7F81FE
7F00FE
7F00FE
0000FE
0003FE
001FFE
00FFFC
0FFFFC
3FFFF8
7FFFE0
7FFF00
FFF800
FF8000
FF0000
FE0000
FE007F
FF00FF
7FC3FE
7FFFFE
3FFFFC
1FFFF8
0FFFF0
01FF80
ENDCHAR
STARTCHAR 01A9
ENCODING 425
SWIDTH 680 0
DWIDTH 34 0
BBX 31 36 3 0
BITMAP
3FFFFFFC
3FFFFFFC
3FFFFFFC
3FFFFFFC
3FFFFFFC
3FFFFFFC
3FF00000
1FF00000
0FF80000
07FC0000
03FE0000
01FF0000
00FF8000
007FC000
007FE000
003FE000
001FF000
001FF000
003FE000
007FC000
00FF8000
01FF0000
01FF0000
03FE0000
07FC0000
0FF80000
1FF00000
3FE00000
7FC00000
7FC00000
FFFFFFFE
FFFFFFFE
FFFFFFFE
FFFFFFFE
FFFFFFFE
FFFFFFFE
ENDCHAR
STARTCHAR 01AA
ENCODING 426
SWIDTH 440 0
DWIDTH 22 0
BBX 20 46 2 -9
BITMAP
0FF000
3FF800
7FFC00
7FFC00
FFFE00
FE7E00
FC3E00
FC3E00
FFFE00
7FFE00
7FFE00
3FFE00
1FFE00
07FE00
00FE00
00FE00
00FE00
00FE00
00FE00
00FE00
00FE00
00FE00
00FE00
00FE00
00FE00
00FE00
00FE00
00FE00
00FE00
00FE00
00FE00
00FE00
00FE00
00FE00
00FE00
00FE00
00FE00
00FE00
00FE00
00FE00
00FFF0
00FFF0
00FFF0
007FF0
003FF0
000FF0
ENDCHAR
STARTCHAR 01AB
ENCODING 427
SWIDTH 340 0
DWIDTH 17 0
BBX 14 44 1 -10
BITMAP
1FC0
1FC0
1FC0
1FC0
1FC0
1FC0
1FC0
FFFC
FFFC
FFFC
FFFC
FFFC
1FC0
1FC0
1FC0
1FC0
1FC0
1FC0
1FC0
1FC0
1FC0
1FC0
1FC0
1FC0
1FC0
1FC0
1FC0
1FC0
1FC0
1FFC
1FFC
0FFC
0FFC
07FC
01FC
01FC
01FC
01FC
03FC
0FFC
0FFC
0FFC
0FF8
0FF0
ENDCHAR
STARTCHAR 01AC
ENCODING 428
SWIDTH 720 0
DWIDTH 36 0
BBX 33 36 2 0
BITMAP
03FFFFFF80
1FFFFFFF80
3FFFFFFF80
7FFFFFFF80
7FFFFFFF80
FFFFFFFF80
FF01FE0000
FE01FE0000
FC01FE0000
FC01FE0000
FE01FE0000
FF01FE0000
7F81FE0000
7F81FE0000
7F81FE0000
3F81FE0000
0F81FE0000
0381FE0000
0001FE0000
0001FE0000
0001FE0000
0001FE0000
0001FE0000
0001FE0000
0001FE0000
0001FE0000
0001FE0000
0001FE0000
0001FE0000
0001FE0000
0001FE0000
0001FE0000
0001FE0000
0001FE0000
0001FE0000
0001FE0000
ENDCHAR
STARTCHAR 01AD
ENCODING 429
SWIDTH 340 0
DWIDTH 17 0
BBX 13 37 1 -1
BITMAP
03F8
0FF8
0FF8
1FF8
1FF8
1FF8
1FC0
1FC0
1FC0
FFF8
FFF8
FFF8
FFF8
FFF8
1FC0
1FC0
1FC0
1FC0
1FC0
1FC0
1FC0
1FC0
1FC0
1FC0
1FC0
1FC0
1FC0
1FC0
1FC0
1FC0
1FC0
1FE0
1FF8
1FF8
0FF8
07F8
01F8
ENDCHAR
STARTCHAR 01AE
ENCODING 430
SWIDTH 620 0
DWIDTH 31 0
BBX 29 46 1 -10
BITMAP
FFFFFFF8
FFFFFFF8
FFFFFFF8
FFFFFFF8
FFFFFFF8
FFFFFFF8
001FE000
001FE000
001FE000
001FE000
001FE000
001FE000
001FE000
001FE000
001FE000
001FE000
001FE000
001FE000
001FE000
001FE000
001FE000
001FE000
001FE000
001FE000
001FE000
001FE000
001FE000
001FE000
001FE000
001FE000
001FE000
001FE000
001FE000
001FE000
001FE000
001FE000
001FE000
001FE000
001FE000
001FE000
001FE000
001FF800
001FF800
001FF800
000FF800
0007F800
ENDCHAR
STARTCHAR 01AF
ENCODING 431
SWIDTH 780 0
DWIDTH 39 0
BBX 34 45 4 -1
BITMAP
0000001FC0
0000001FC0
0000001FC0
0000001F80
0000001F80
0000003F00
0000007E00
000000FC00
FF0007F800
FF0007F800
FF0007F800
FF0007F800
FF0007F800
FF0007F800
FF0007F800
FF0007F800
FF0007F800
FF0007F800
FF0007F800
FF0007F800
FF0007F800
FF0007F800
FF0007F800
FF0007F800
FF0007F800
FF0007F800
FF0007F800
FF0007F800
FF0007F800
FF0007F800
FF0007F800
FF0007F800
FF0007F800
FF0007F800
FF0007F000
FF000FF000
7F800FF000
7FC01FF000
7FF9FFE000
3FFFFFE000
1FFFFFC000
0FFFFF8000
07FFFF0000
01FFFC0000
003FE00000
ENDCHAR
STARTCHAR 01B0
ENCODING 432
SWIDTH 660 0
DWIDTH 33 0
BBX 30 36 3 -1
BITMAP
000001FC
000001FC
000001FC
000001F8
000001F8
000003F0
000003E0
00000F80
FE007F00
FE007F00
FE007F00
FE007F00
FE007F00
FE007F00
FE007F00
FE007F00
FE007F00
FE007F00
FE007F00
FE007F00
FE007F00
FE007F00
FE007F00
FE007F00
FE007F00
FE007F00
FE007F00
FE00FF00
FF00FF00
FF83FF00
7FFFFF00
7FFFFF00
7FFF7F00
3FFF7F00
1FFC7F00
03F00000
ENDCHAR
STARTCHAR 01B1
ENCODING 433
SWIDTH 800 0
DWIDTH 40 0
BBX 36 38 0 -2
BITMAP
FFFF07FFF0
FFFF07FFF0
FFFF07FFF0
FFFF07FFF0
FFFF07FFF0
FFFF07FFF0
FFFF07FFF0
07FC01FE00
0FF000FF00
1FE0007F80
3FC0003FC0
3F80001FC0
7F80000FE0
7F00000FE0
7F00000FE0
FE000007F0
FE000007F0
FE000007F0
FE000007F0
FE000007F0
FE000007F0
FE000007F0
FE000007F0
FF00000FE0
7F00000FE0
7F00001FE0
7F80001FE0
3FC0003FC0
3FE0007FC0
1FF000FF80
1FFC03FF00
0FFFFFFF00
07FFFFFE00
03FFFFFC00
01FFFFF000
007FFFE000
001FFF8000
0000200000
ENDCHAR
STARTCHAR 01B2
ENCODING 434
SWIDTH 720 0
DWIDTH 36 0
BBX 31 36 3 0
BITMAP
FE00FF80
FE007F80
FE007FC0
FE003FE0
FE001FE0
FE001FF0
FE000FF0
FE0007F8
FE0007F8
FE0003FC
FE0003FC
FE0001FC
FE0001FC
FE0001FE
FE0000FE
FE0000FE
FE0000FE
FE0000FE
FE0000FE
FE0000FE
FE0000FE
FE0000FE
FE0000FE
FE0001FE
FE0001FE
FE0001FC
FE0003FC
FE0007FC
7F001FF8
7F807FF8
7FFFFFF0
3FFFFFE0
1FFFFFC0
0FFFFF80
07FFFE00
01FFF800
ENDCHAR
STARTCHAR 01B3
ENCODING 435
SWIDTH 840 0
DWIDTH 42 0
BBX 40 36 1 0
BITMAP
FF00003F00
7F8000FFE0
7F8003FFF0
3FC003FFF8
3FC007FFFC
1FE00FFFFE
1FE00FFBFE
0FF01FE0FE
0FF01FE0FE
07F83FC0FF
03F83FC0FE
03FC3F81FE
01FC7F80FE
01FE7F003E
00FEFF000C
00FFFE0000
007FFE0000
007FFC0000
003FFC0000
003FF80000
001FF80000
001FF00000
000FF00000
000FF00000
000FF00000
000FF00000
000FF00000
000FF00000
000FF00000
000FF00000
000FF00000
000FF00000
000FF00000
000FF00000
000FF00000
000FF00000
ENDCHAR
STARTCHAR 01B4
ENCODING 436
SWIDTH 640 0
DWIDTH 32 0
BBX 31 46 1 -10
BITMAP
000000FE
000001FE
000003FE
000007FE
00000FFE
00000FF0
00001FE0
00001FE0
00001FC0
FE001FC0
FF003FC0
FF003F80
7F003F80
7F807F00
7F807F00
3F807F00
3F807E00
1FC0FE00
1FC0FE00
1FC0FC00
0FE1FC00
0FE1FC00
0FE1F800
07F3F800
07F3F000
07F3F000
03FBF000
03FFE000
01FFE000
01FFE000
01FFC000
00FFC000
00FFC000
00FF8000
007F8000
007F0000
007F0000
007F0000
007E0000
007E0000
01FE0000
1FFC0000
1FFC0000
1FF80000
1FF00000
1FE00000
ENDCHAR
STARTCHAR 01B5
ENCODING 437
SWIDTH 620 0
DWIDTH 31 0
BBX 27 36 2 0
BITMAP
FFFFFFE0
FFFFFFE0
FFFFFFE0
FFFFFFE0
FFFFFFE0
FFFFFFE0
00003FE0
00007FC0
0000FF80
0000FF00
0001FF00
0003FE00
0007FC00
0007F800
000FF800
001FF000
003FE000
3FFFFF00
3FFFFF00
3FFFFF00
01FF0000
03FE0000
07FC0000
07F80000
0FF80000
1FF00000
3FE00000
7FC00000
7F800000
FF800000
FFFFFFE0
FFFFFFE0
FFFFFFE0
FFFFFFE0
FFFFFFE0
FFFFFFE0
ENDCHAR
STARTCHAR 01B6
ENCODING 438
SWIDTH 500 0
DWIDTH 25 0
BBX 22 27 1 0
BITMAP
7FFFFC
7FFFFC
7FFFFC
7FFFFC
7FFFFC
7FFFFC
0007F8
000FF8
001FF0
003FE0
007FC0
007F80
1FFFF0
1FFFF0
1FFFF0
07FC00
0FF800
1FF000
1FE000
3FC000
7F8000
FFFFFC
FFFFFC
FFFFFC
FFFFFC
FFFFFC
FFFFFC
ENDCHAR
STARTCHAR 01B7
ENCODING 439
SWIDTH 560 0
DWIDTH 28 0
BBX 24 37 2 -1
BITMAP
3FFFFC
3FFFFC
3FFFFC
3FFFFC
3FFFFC
3FFFFC
0003FC
0003F8
0007F8
0007F0
0007E0
000FE0
000FC0
001FC0
001F80
003F80
003F00
003FE0
003FF0
003FF8
000FFC
0001FE
0000FE
00007F
00007F
00007F
FE007F
FE007F
FF00FF
FF00FF
7F83FE
7FFFFE
3FFFFC
1FFFF8
0FFFF0
07FFE0
00FF00
ENDCHAR
STARTCHAR 01B8
ENCODING 440
SWIDTH 560 0
DWIDTH 28 0
BBX 25 37 1 -1
BITMAP
3FFFFE00
3FFFFE00
3FFFFE00
3FFFFE00
3FFFFE00
3FFFFE00
3FC00000
1FC00000
0FE00000
0FE00000
07F00000
07F00000
03F80000
03F80000
01F80000
01FC0000
00FC0000
07FC0000
0FFC0000
1FFC0000
3FF00000
7F800000
7F000000
FE000000
FE000000
FE000000
FE003F80
FE003F80
FF007F80
7F007F80
7FC1FF00
7FFFFF00
3FFFFE00
1FFFFC00
0FFFF800
03FFF000
00FF8000
ENDCHAR
STARTCHAR 01B9
ENCODING 441
SWIDTH 640 0
DWIDTH 32 0
BBX 28 33 2 -7
BITMAP
3FFFFFC0
3FFFFFC0
3FFFFFC0
3FFFFFC0
3FFFFFC0
1FFFFFC0
0FF00000
07F80000
03FC0000
01FF0000
00FF8000
00FFC000
03FFC000
0FFFC000
1FFFC000
3FFFC000
7FFFC000
7FE00000
FF800000
FF000000
FE0007F0
FE0007F0
FE0007F0
FE0007F0
FF000FF0
FF000FF0
7FC03FE0
7FFFFFE0
3FFFFFC0
1FFFFF80
0FFFFF00
07FFFE00
00FFF800
ENDCHAR
STARTCHAR 01BA
ENCODING 442
SWIDTH 560 0
DWIDTH 28 0
BBX 25 41 2 -13
BITMAP
7FFFFE00
7FFFFE00
7FFFFE00
7FFFFE00
7FFFFE00
7FFFFE00
7FFFFC00
0007FC00
000FF800
000FF000
001FE000
003FC000
007F8000
00FF8000
00FFF000
00FFFC00
00FFFE00
00FFFF00
00FFFF00
0001FF80
00007F80
00003F80
00003F80
00003F80
00003F80
0000FF80
1FE3FF00
7FFFFF00
7FFFFE00
FFFFFC00
FFFFF800
FFFFE000
FE3F8800
FF003800
7FC7F800
7FFFFC00
3FFFFC00
3FFFFE00
1FFFFC00
07FFF000
01FF0000
ENDCHAR
STARTCHAR 01BB
ENCODING 443
SWIDTH 580 0
DWIDTH 29 0
BBX 26 36 1 1
BITMAP
00FFE000
03FFF800
0FFFFC00
1FFFFE00
1FFFFF00
3FFFFF80
3FC0FF80
7F803FC0
7F003FC0
7F001FC0
7F001FC0
7F001FC0
FE001FC0
FE003FC0
00003FC0
07007F80
07C0FF80
07FBFF00
07FFFE00
07FFFC00
07FFF800
03FFFE00
03FFFF00
0FFFFF00
1FFFFF00
3FF8FF00
3FE01F00
7F800700
7F000000
FF000000
FFFFFFC0
FFFFFFC0
FFFFFFC0
FFFFFFC0
FFFFFFC0
FFFFFFC0
ENDCHAR
STARTCHAR 01BE
ENCODING 446
SWIDTH 580 0
DWIDTH 29 0
BBX 25 37 2 -1
BITMAP
003F0000
003F0000
003F0000
003F0000
03FFF000
03FFF000
03FFF000
03FFF000
03FFF000
003F0000
003F0000
003F0000
003F0000
003F8000
003F8000
001FE000
001FF000
000FF800
0007FC00
0003FE00
0000FF00
00007F00
00007F80
00003F80
FE003F80
FE003F80
FE003F80
FF003F80
FF007F80
7F80FF00
7FC1FF00
3FFFFE00
3FFFFE00
1FFFFC00
0FFFF800
03FFE000
007F8000
ENDCHAR
STARTCHAR 01BF
ENCODING 447
SWIDTH 620 0
DWIDTH 31 0
BBX 27 37 3 -9
BITMAP
FE0FFC00
FE3FFF00
FE7FFF80
FEFFFFC0
FFFFFFC0
FFFE7FC0
FFE01FE0
FFC00FE0
FF000FE0
FE000FE0
FE000FE0
FE001FE0
FE001FE0
FE001FC0
FE003FC0
FE007F80
FE007F80
FE00FF00
FE01FE00
FE03FE00
FE07FC00
FE0FF800
FE1FF000
FE7FC000
FEFF8000
FFFF0000
FFFC0000
FFF80000
FFE00000
FF800000
FE000000
FE000000
FE000000
FE000000
FE000000
FE000000
FE000000
ENDCHAR
STARTCHAR 01C0
ENCODING 448
SWIDTH 260 0
DWIDTH 13 0
BBX 4 46 5 -10
BITMAP
F0
F0
F0
F0
F0
F0
F0
F0
F0
F0
F0
F0
F0
F0
F0
F0
F0
F0
F0
F0
F0
F0
F0
F0
F0
F0
F0
F0
F0
F0
F0
F0
F0
F0
F0
F0
F0
F0
F0
F0
F0
F0
F0
F0
F0
F0
ENDCHAR
STARTCHAR 01C1
ENCODING 449
SWIDTH 400 0
DWIDTH 20 0
BBX 11 46 5 -10
BITMAP
F1E0
F1E0
F1E0
F1E0
F1E0
F1E0
F1E0
F1E0
F1E0
F1E0
F1E0
F1E0
F1E0
F1E0
F1E0
F1E0
F1E0
F1E0
F1E0
F1E0
F1E0
F1E0
F1E0
F1E0
F1E0
F1E0
F1E0
F1E0
F1E0
F1E0
F1E0
F1E0
F1E0
F1E0
F1E0
F1E0
F1E0
F1E0
F1E0
F1E0
F1E0
F1E0
F1E0
F1E0
F1E0
F1E0
ENDCHAR
STARTCHAR 01C2
ENCODING 450
SWIDTH 580 0
DWIDTH 29 0
BBX 24 46 3 -10
BITMAP
003C00
003C00
003C00
003C00
003C00
003C00
003C00
003C00
003C00
003C00
003C00
003C00
003C00
003C00
003C00
003C00
003C00
003C00
FFFFFF
FFFFFF
FFFFFF
FFFFFF
003C00
003C00
003C00
003C00
003C00
FFFFFF
FFFFFF
FFFFFF
FFFFFF
003C00
003C00
003C00
003C00
003C00
003C00
003C00
003C00
003C00
003C00
003C00
003C00
003C00
003C00
003C00
ENDCHAR
STARTCHAR 01C3
ENCODING 451
SWIDTH 280 0
DWIDTH 14 0
BBX 7 37 4 0
BITMAP
FE
FE
FE
FE
FE
FE
FE
FE
FE
FE
FE
FE
FE
FE
FE
FC
FC
FC
7C
7C
7C
7C
7C
78
78
78
38
00
00
00
FE
FE
FE
FE
FE
FE
FE
ENDCHAR
STARTCHAR 01C4
ENCODING 452
SWIDTH 1300 0
DWIDTH 65 0
BBX 60 45 4 0
BITMAP
0000000003E07800
0000000001F1F000
0000000000FBE000
00000000007FC000
00000000007F8000
00000000003F8000
0000000000000000
0000000000000000
0000000000000000
FFFFF000FFFFFFF0
FFFFFE00FFFFFFF0
FFFFFF00FFFFFFF0
FFFFFF80FFFFFFF0
FFFFFFC0FFFFFFF0
FFFFFFE0FFFFFFF0
FF007FF000001FE0
FF001FF000003FE0
FF000FF800007FC0
FF0007F80000FF80
FF0003F80001FF00
FF0003FC0001FE00
FF0003FC0003FE00
FF0001FC0007FC00
FF0001FC000FF800
FF0001FC001FF000
FF0001FC001FE000
FF0001FE003FE000
FF0001FE007FC000
FF0001FC00FF8000
FF0001FC01FF0000
FF0001FC01FE0000
FF0001FC03FE0000
FF0003FC07FC0000
FF0003FC0FF80000
FF0003FC1FF00000
FF0007F81FE00000
FF000FF83FE00000
FF001FF07FC00000
FF007FF0FF800000
FFFFFFE0FFFFFFF0
FFFFFFC0FFFFFFF0
FFFFFF80FFFFFFF0
FFFFFF00FFFFFFF0
FFFFFC00FFFFFFF0
FFFFE000FFFFFFF0
ENDCHAR
STARTCHAR 01C5
ENCODING 453
SWIDTH 1200 0
DWIDTH 60 0
BBX 55 38 4 0
BITMAP
000000001E01E0
000000000F03C0
FFFFF0000783C0
FFFFFE0007C780
FFFFFF0003EF00
FFFFFF8001FF00
FFFFFFC001FE00
FFFFFFE000FC00
FF007FF0000000
FF001FF0000000
FF000FF8000000
FF0007F87FFFFE
FF0003F87FFFFE
FF0003FC7FFFFE
FF0003FC7FFFFE
FF0001FC7FFFFE
FF0001FC7FFFFE
FF0001FC0007FC
FF0001FC000FF8
FF0001FE000FF0
FF0001FE001FE0
FF0001FC003FC0
FF0001FC007FC0
FF0001FC00FF80
FF0001FC01FF00
FF0003FC03FE00
FF0003FC03FC00
FF0003FC07F800
FF0007F80FF000
FF000FF81FF000
FF001FF03FE000
FF007FF07FC000
FFFFFFE07FFFFE
FFFFFFC07FFFFE
FFFFFF807FFFFE
FFFFFF007FFFFE
FFFFFC007FFFFE
FFFFE0007FFFFE
ENDCHAR
STARTCHAR 01C6
ENCODING 454
SWIDTH 1120 0
DWIDTH 56 0
BBX 52 39 2 -1
BITMAP
00000000780780
00000000780F00
00001FC03C1E00
00001FC01E3C00
00001FC01F7C00
00001FC00FF800
00001FC007F000
00001FC003F000
00001FC0000000
00001FC0000000
00001FC0000000
01FF1FC1FFFFF0
07FF9FC1FFFFF0
0FFFDFC1FFFFF0
1FFFFFC1FFFFF0
1FFFFFC1FFFFF0
3FF3FFC1FFFFF0
7FC0FFC0001FE0
7F807FC0003FC0
7F003FC0007FC0
FF003FC000FF80
FE001FC001FF00
FE001FC003FE00
FE001FC003FC00
FE001FC007F800
FE001FC00FF000
FE001FC01FF000
FE001FC03FE000
FF003FC07FC000
7F003FC0FF8000
7F803FC0FF0000
7F807FC1FE0000
3FE1FFC3FFFFF0
3FFFFFC3FFFFF0
1FFFFFC3FFFFF0
0FFFFFC3FFFFF0
07FFDFC3FFFFF0
03FF9FC3FFFFF0
00FE0000000000
ENDCHAR
STARTCHAR 01C7
ENCODING 455
SWIDTH 1180 0
DWIDTH 59 0
BBX 51 37 4 -1
BITMAP
FF000000000FE0
FF000000000FE0
FF000000000FE0
FF000000000FE0
FF000000000FE0
FF000000000FE0
FF000000000FE0
FF000000000FE0
FF000000000FE0
FF000000000FE0
FF000000000FE0
FF000000000FE0
FF000000000FE0
FF000000000FE0
FF000000000FE0
FF000000000FE0
FF000000000FE0
FF000000000FE0
FF000000000FE0
FF000000000FE0
FF000000000FE0
FF000000000FE0
FF000000000FE0
FF000007F00FE0
FF000007F00FE0
FF000007F00FE0
FF000007F00FE0
FF000007F01FE0
FF000007F01FE0
FF000007F81FE0
FFFFFF87FE7FE0
FFFFFF83FFFFC0
FFFFFF83FFFFC0
FFFFFF81FFFF80
FFFFFF80FFFF00
FFFFFF807FFC00
000000000FF000
ENDCHAR
STARTCHAR 01C8
ENCODING 456
SWIDTH 860 0
DWIDTH 43 0
BBX 36 46 4 -10
BITMAP
FF000007F0
FF000007F0
FF000007F0
FF000007F0
FF000007F0
FF000007F0
FF00000000
FF00000000
FF00000000
FF000007F0
FF000007F0
FF000007F0
FF000007F0
FF000007F0
FF000007F0
FF000007F0
FF000007F0
FF000007F0
FF000007F0
FF000007F0
FF000007F0
FF000007F0
FF000007F0
FF000007F0
FF000007F0
FF000007F0
FF000007F0
FF000007F0
FF000007F0
FF000007F0
FFFFFF87F0
FFFFFF87F0
FFFFFF87F0
FFFFFF87F0
FFFFFF87F0
FFFFFF87F0
00000007F0
00000007F0
00000007F0
00000007F0
0000000FF0
0000007FF0
0000007FF0
0000007FE0
0000007FE0
0000007FC0
ENDCHAR
STARTCHAR 01C9
ENCODING 457
SWIDTH 560 0
DWIDTH 28 0
BBX 22 46 3 -10
BITMAP
FE01FC
FE01FC
FE01FC
FE01FC
FE01FC
FE01FC
FE0000
FE0000
FE0000
FE01FC
FE01FC
FE01FC
FE01FC
FE01FC
FE01FC
FE01FC
FE01FC
FE01FC
FE01FC
FE01FC
FE01FC
FE01FC
FE01FC
FE01FC
FE01FC
FE01FC
FE01FC
FE01FC
FE01FC
FE01FC
FE01FC
FE01FC
FE01FC
FE01FC
FE01FC
FE01FC
0001FC
0001FC
0001FC
0001FC
0003FC
001FFC
001FFC
001FF8
001FF8
001FF0
ENDCHAR
STARTCHAR 01CA
ENCODING 458
SWIDTH 1300 0
DWIDTH 65 0
BBX 57 37 4 -1
BITMAP
FF0003FC00007F80
FF8003FC00007F80
FF8003FC00007F80
FFC003FC00007F80
FFC003FC00007F80
FFE003FC00007F80
FFF003FC00007F80
FFF003FC00007F80
FFF803FC00007F80
FFF803FC00007F80
FFFC03FC00007F80
FFFC03FC00007F80
FFFE03FC00007F80
FF7F03FC00007F80
FF3F03FC00007F80
FF3F83FC00007F80
FF1F83FC00007F80
FF1FC3FC00007F80
FF0FE3FC00007F80
FF0FE3FC00007F80
FF07F3FC00007F80
FF03F3FC00007F80
FF03FBFC00007F80
FF01FBFC3FC07F80
FF01FFFC3FC07F80
FF00FFFC3FC07F80
FF00FFFC3FC07F80
FF007FFC3FC07F80
FF003FFC3FC07F80
FF003FFC3FC0FF00
FF001FFC1FF3FF00
FF001FFC1FFFFF00
FF000FFC0FFFFE00
FF0007FC0FFFFC00
FF0007FC07FFF800
FF0003FC01FFF000
00000000007F8000
ENDCHAR
STARTCHAR 01CB
ENCODING 459
SWIDTH 1000 0
DWIDTH 50 0
BBX 43 46 4 -10
BITMAP
FF0003FC0FE0
FF8003FC0FE0
FF8003FC0FE0
FFC003FC0FE0
FFC003FC0FE0
FFE003FC0FE0
FFF003FC0000
FFF003FC0000
FFF803FC0000
FFF803FC0FE0
FFFC03FC0FE0
FFFC03FC0FE0
FFFE03FC0FE0
FF7F03FC0FE0
FF3F03FC0FE0
FF3F83FC0FE0
FF1F83FC0FE0
FF1FC3FC0FE0
FF0FE3FC0FE0
FF0FE3FC0FE0
FF07F3FC0FE0
FF03F3FC0FE0
FF03FBFC0FE0
FF01FBFC0FE0
FF01FFFC0FE0
FF00FFFC0FE0
FF00FFFC0FE0
FF007FFC0FE0
FF003FFC0FE0
FF003FFC0FE0
FF001FFC0FE0
FF001FFC0FE0
FF000FFC0FE0
FF0007FC0FE0
FF0007FC0FE0
FF0003FC0FE0
000000000FE0
000000000FE0
000000000FE0
000000000FE0
000000001FE0
000000007FE0
000000007FE0
000000007FE0
000000007FC0
000000007F80
ENDCHAR
STARTCHAR 01CC
ENCODING 460
SWIDTH 880 0
DWIDTH 44 0
BBX 39 46 3 -10
BITMAP
00000001FE
00000001FE
00000001FE
00000001FE
00000001FE
00000001FE
0000000000
0000000000
0000000000
FE1FF001FE
FE7FF801FE
FEFFFC01FE
FFFFFE01FE
FFFFFE01FE
FFF7FF01FE
FF80FF01FE
FF00FF01FE
FE007F01FE
FE007F01FE
FE007F01FE
FE007F01FE
FE007F01FE
FE007F01FE
FE007F01FE
FE007F01FE
FE007F01FE
FE007F01FE
FE007F01FE
FE007F01FE
FE007F01FE
FE007F01FE
FE007F01FE
FE007F01FE
FE007F01FE
FE007F01FE
FE007F01FE
00000001FE
00000001FE
00000001FE
00000001FE
00000003FE
0000000FFC
0000000FFC
0000000FFC
0000000FF8
0000000FF0
ENDCHAR
STARTCHAR 01CD
ENCODING 461
SWIDTH 700 0
DWIDTH 35 0
BBX 33 45 1 0
BITMAP
007C0F8000
003E1F0000
001F3E0000
000FFC0000
0007F80000
0003F00000
0000000000
0000000000
0000000000
000FF80000
000FF80000
000FFC0000
001FFC0000
001FFC0000
003FFE0000
003FFE0000
003FFE0000
007FFF0000
007F7F0000
007F7F0000
00FF7F8000
00FE3F8000
00FE3F8000
01FE3FC000
01FC1FC000
01FC1FE000
03FC1FE000
03F80FE000
07F80FF000
07F80FF000
07F007F000
0FF007F800
0FFFFFF800
0FFFFFF800
1FFFFFFC00
1FFFFFFC00
1FFFFFFC00
3FFFFFFE00
3FC001FE00
7F8000FE00
7F8000FF00
7F0000FF00
FF00007F00
FF00007F80
FE00007F80
ENDCHAR
STARTCHAR 01CE
ENCODING 462
SWIDTH 560 0
DWIDTH 28 0
BBX 25 39 2 -1
BITMAP
0F00F000
0F01E000
0783C000
03C78000
03EF8000
01FF0000
00FE0000
007C0000
00000000
00000000
00000000
03FFC000
0FFFF000
1FFFF800
3FFFFC00
7FFFFC00
7FC3FE00
7F00FE00
7F00FE00
0000FE00
0001FE00
0007FE00
00FFFE00
0FFFFE00
1FFFFE00
3FFEFE00
7FE0FE00
7F00FE00
FE00FE00
FE00FE00
FE01FE00
FE01FE00
FF03FE00
FFFFFE00
7FFFFE00
7FFFFE00
3FFEFF00
1FF87F80
07E00000
ENDCHAR
STARTCHAR 01CF
ENCODING 463
SWIDTH 320 0
DWIDTH 16 0
BBX 16 45 0 0
BITMAP
F81F
7C3E
3E7C
1FF8
0FF0
07E0
0000
0000
0000
0FF0
0FF0
0FF0
0FF0
0FF0
0FF0
0FF0
0FF0
0FF0
0FF0
0FF0
0FF0
0FF0
0FF0
0FF0
0FF0
0FF0
0FF0
0FF0
0FF0
0FF0
0FF0
0FF0
0FF0
0FF0
0FF0
0FF0
0FF0
0FF0
0FF0
0FF0
0FF0
0FF0
0FF0
0FF0
0FF0
ENDCHAR
STARTCHAR 01D0
ENCODING 464
SWIDTH 300 0
DWIDTH 15 0
BBX 16 38 -1 0
BITMAP
F00F
781E
3C3E
3E3C
1F78
0FF0
0FF0
07E0
0000
0000
0000
03F8
03F8
03F8
03F8
03F8
03F8
03F8
03F8
03F8
03F8
03F8
03F8
03F8
03F8
03F8
03F8
03F8
03F8
03F8
03F8
03F8
03F8
03F8
03F8
03F8
03F8
03F8
ENDCHAR
STARTCHAR 01D1
ENCODING 465
SWIDTH 780 0
DWIDTH 39 0
BBX 36 46 2 -1
BITMAP
007C0F8000
003E1F0000
001F3E0000
000FFC0000
0007F80000
0003F00000
0000000000
0000000000
0000000000
001FFF0000
007FFFC000
01FFFFF000
03FFFFF800
07FFFFFC00
0FFFFFFE00
1FFC07FF00
1FF001FF80
3FE000FF80
3FC0007FC0
7F80003FC0
7F80001FE0
7F00001FE0
FF00001FE0
FF00000FE0
FF00000FE0
FF00000FE0
FF00000FF0
FF00000FF0
FF00000FF0
FF00000FE0
FF00000FE0
FF00000FE0
7F00001FE0
7F80001FE0
7F80003FC0
7FC0003FC0
3FE0007FC0
3FF000FF80
1FF801FF00
0FFF1FFF00
07FFFFFE00
03FFFFFC00
01FFFFF800
00FFFFE000
003FFF8000
0007FC0000
ENDCHAR
STARTCHAR 01D2
ENCODING 466
SWIDTH 620 0
DWIDTH 31 0
BBX 27 39 2 -1
BITMAP
07807800
0780F000
03C1E000
01E3C000
01F7C000
00FF8000
007F0000
003E0000
00000000
00000000
00000000
00FFE000
03FFF800
0FFFFE00
1FFFFF00
1FFFFF00
3FF1FF80
7FC07FC0
7F803FC0
7F001FC0
FF001FE0
FE000FE0
FE000FE0
FE000FE0
FE000FE0
FE000FE0
FE000FE0
FE000FE0
FF001FE0
7F001FE0
7F803FC0
7F803FC0
3FE0FF80
3FFFFF80
1FFFFF00
0FFFFE00
07FFFC00
01FFF000
007FC000
ENDCHAR
STARTCHAR 01D3
ENCODING 467
SWIDTH 740 0
DWIDTH 37 0
BBX 29 46 4 -1
BITMAP
03E07C00
01F0F800
00F9F000
007FE000
003FC000
001F8000
00000000
00000000
00000000
FF0007F8
FF0007F8
FF0007F8
FF0007F8
FF0007F8
FF0007F8
FF0007F8
FF0007F8
FF0007F8
FF0007F8
FF0007F8
FF0007F8
FF0007F8
FF0007F8
FF0007F8
FF0007F8
FF0007F8
FF0007F8
FF0007F8
FF0007F8
FF0007F8
FF0007F8
FF0007F8
FF0007F8
FF0007F8
FF0007F8
FF0007F0
FF000FF0
7F800FF0
7FC01FF0
7FF9FFE0
3FFFFFE0
1FFFFFC0
0FFFFF80
07FFFF00
01FFFC00
003FE000
ENDCHAR
STARTCHAR 01D4
ENCODING 468
SWIDTH 620 0
DWIDTH 31 0
BBX 24 39 3 -1
BITMAP
0F00E0
0F01E0
0783C0
03C780
03EF80
01FF00
00FE00
00FC00
000000
000000
000000
FE007F
FE007F
FE007F
FE007F
FE007F
FE007F
FE007F
FE007F
FE007F
FE007F
FE007F
FE007F
FE007F
FE007F
FE007F
FE007F
FE007F
FE007F
FE007F
FE00FF
FF00FF
FF83FF
7FFFFF
7FFFFF
7FFF7F
3FFF7F
1FFC7F
03F000
ENDCHAR
STARTCHAR 01D5
ENCODING 469
SWIDTH 740 0
DWIDTH 37 0
BBX 29 50 4 -1
BITMAP
01FFFC00
01FFFC00
01FFFC00
01FFFC00
00000000
01F87E00
01F87E00
01F87E00
01F87E00
01F87E00
01F87E00
01F87E00
00000000
FF0007F8
FF0007F8
FF0007F8
FF0007F8
FF0007F8
FF0007F8
FF0007F8
FF0007F8
FF0007F8
FF0007F8
FF0007F8
FF0007F8
FF0007F8
FF0007F8
FF0007F8
FF0007F8
FF0007F8
FF0007F8
FF0007F8
FF0007F8
FF0007F8
FF0007F8
FF0007F8
FF0007F8
FF0007F8
FF0007F8
FF0007F0
FF000FF0
7F800FF0
7FC01FF0
7FF9FFE0
3FFFFFE0
1FFFFFC0
0FFFFF80
07FFFF00
01FFFC00
003FE000
ENDCHAR
STARTCHAR 01D6
ENCODING 470
SWIDTH 620 0
DWIDTH 31 0
BBX 24 44 3 -1
BITMAP
07FFF0
07FFF0
07FFF0
07FFF0
000000
000000
07C1F0
07C1F0
07C1F0
07C1F0
07C1F0
07C1F0
07C1F0
000000
000000
000000
FE007F
FE007F
FE007F
FE007F
FE007F
FE007F
FE007F
FE007F
FE007F
FE007F
FE007F
FE007F
FE007F
FE007F
FE007F
FE007F
FE007F
FE007F
FE007F
FE00FF
FF00FF
FF83FF
7FFFFF
7FFFFF
7FFF7F
3FFF7F
1FFC7F
03F000
ENDCHAR
STARTCHAR 01D7
ENCODING 471
SWIDTH 740 0
DWIDTH 37 0
BBX 29 53 4 -1
BITMAP
0001F800
0003F000
0007E000
000F8000
001F0000
003E0000
00000000
00000000
01F07C00
01F07C00
01F07C00
01F07C00
01F07C00
01F07C00
00000000
00000000
FF0007F8
FF0007F8
FF0007F8
FF0007F8
FF0007F8
FF0007F8
FF0007F8
FF0007F8
FF0007F8
FF0007F8
FF0007F8
FF0007F8
FF0007F8
FF0007F8
FF0007F8
FF0007F8
FF0007F8
FF0007F8
FF0007F8
FF0007F8
FF0007F8
FF0007F8
FF0007F8
FF0007F8
FF0007F8
FF0007F8
FF0007F0
FF000FF0
7F800FF0
7FC01FF0
7FF9FFE0
3FFFFFE0
1FFFFFC0
0FFFFF80
07FFFF00
01FFFC00
003FE000
ENDCHAR
STARTCHAR 01D8
ENCODING 472
SWIDTH 620 0
DWIDTH 31 0
BBX 24 46 3 -1
BITMAP
0007E0
000FC0
001F80
003E00
007C00
00F800
000000
000000
07C1F0
07C1F0
07C1F0
07C1F0
07C1F0
07C1F0
07C1F0
000000
000000
000000
FE007F
FE007F
FE007F
FE007F
FE007F
FE007F
FE007F
FE007F
FE007F
FE007F
FE007F
FE007F
FE007F
FE007F
FE007F
FE007F
FE007F
FE007F
FE007F
FE00FF
FF00FF
FF83FF
7FFFFF
7FFFFF
7FFF7F
3FFF7F
1FFC7F
03F000
ENDCHAR
STARTCHAR 01D9
ENCODING 473
SWIDTH 740 0
DWIDTH 37 0
BBX 29 53 4 -1
BITMAP
03E07C00
01F0F800
00F9F000
007FE000
003FC000
001F8000
00000000
00000000
01F07C00
01F07C00
01F07C00
01F07C00
01F07C00
01F07C00
00000000
00000000
FF0007F8
FF0007F8
FF0007F8
FF0007F8
FF0007F8
FF0007F8
FF0007F8
FF0007F8
FF0007F8
FF0007F8
FF0007F8
FF0007F8
FF0007F8
FF0007F8
FF0007F8
FF0007F8
FF0007F8
FF0007F8
FF0007F8
FF0007F8
FF0007F8
FF0007F8
FF0007F8
FF0007F8
FF0007F8
FF0007F8
FF0007F0
FF000FF0
7F800FF0
7FC01FF0
7FF9FFE0
3FFFFFE0
1FFFFFC0
0FFFFF80
07FFFF00
01FFFC00
003FE000
ENDCHAR
STARTCHAR 01DA
ENCODING 474
SWIDTH 620 0
DWIDTH 31 0
BBX 24 46 3 -1
BITMAP
0F81F0
07C3E0
03E7C0
01FF80
00FF00
007E00
000000
000000
07C1F0
07C1F0
07C1F0
07C1F0
07C1F0
07C1F0
07C1F0
000000
000000
000000
FE007F
FE007F
FE007F
FE007F
FE007F
FE007F
FE007F
FE007F
FE007F
FE007F
FE007F
FE007F
FE007F
FE007F
FE007F
FE007F
FE007F
FE007F
FE007F
FE00FF
FF00FF
FF83FF
7FFFFF
7FFFFF
7FFF7F
3FFF7F
1FFC7F
03F000
ENDCHAR
STARTCHAR 01DB
ENCODING 475
SWIDTH 740 0
DWIDTH 37 0
BBX 29 53 4 -1
BITMAP
01F80000
00FC0000
007E0000
001F0000
000F8000
00078000
00000000
00000000
01F07C00
01F07C00
01F07C00
01F07C00
01F07C00
01F07C00
00000000
00000000
FF0007F8
FF0007F8
FF0007F8
FF0007F8
FF0007F8
FF0007F8
FF0007F8
FF0007F8
FF0007F8
FF0007F8
FF0007F8
FF0007F8
FF0007F8
FF0007F8
FF0007F8
FF0007F8
FF0007F8
FF0007F8
FF0007F8
FF0007F8
FF0007F8
FF0007F8
FF0007F8
FF0007F8
FF0007F8
FF0007F8
FF0007F0
FF000FF0
7F800FF0
7FC01FF0
7FF9FFE0
3FFFFFE0
1FFFFFC0
0FFFFF80
07FFFF00
01FFFC00
003FE000
ENDCHAR
STARTCHAR 01DC
ENCODING 476
SWIDTH 620 0
DWIDTH 31 0
BBX 24 46 3 -1
BITMAP
07E000
03F000
01F800
007C00
003E00
001E00
000000
000000
07C1F0
07C1F0
07C1F0
07C1F0
07C1F0
07C1F0
07C1F0
000000
000000
000000
FE007F
FE007F
FE007F
FE007F
FE007F
FE007F
FE007F
FE007F
FE007F
FE007F
FE007F
FE007F
FE007F
FE007F
FE007F
FE007F
FE007F
FE007F
FE007F
FE00FF
FF00FF
FF83FF
7FFFFF
7FFFFF
7FFF7F
3FFF7F
1FFC7F
03F000
ENDCHAR
STARTCHAR 01DD
ENCODING 477
SWIDTH 580 0
DWIDTH 29 0
BBX 25 28 2 -1
BITMAP
00FFC000
03FFF000
0FFFF800
1FFFFC00
3FFFFE00
7FC1FE00
7F007F00
FE007F00
00003F80
00003F80
00003F80
00003F80
FFFFFF80
FFFFFF80
FFFFFF80
FFFFFF80
FE003F80
7E003F80
7F003F80
7F007F00
7F007F00
3F80FF00
3FE1FE00
1FFFFC00
0FFFFC00
07FFF800
03FFE000
00FF8000
ENDCHAR
STARTCHAR 01DE
ENCODING 478
SWIDTH 700 0
DWIDTH 35 0
BBX 33 49 1 0
BITMAP
007FFF0000
007FFF0000
007FFF0000
007FFF0000
0000000000
007E1F8000
007E1F8000
007E1F8000
007E1F8000
007E1F8000
007E1F8000
007E1F8000
0000000000
000FF80000
000FF80000
000FFC0000
001FFC0000
001FFC0000
003FFE0000
003FFE0000
003FFE0000
007FFF0000
007F7F0000
007F7F0000
00FF7F8000
00FE3F8000
00FE3F8000
01FE3FC000
01FC1FC000
01FC1FE000
03FC1FE000
03F80FE000
07F80FF000
07F80FF000
07F007F000
0FF007F800
0FFFFFF800
0FFFFFF800
1FFFFFFC00
1FFFFFFC00
1FFFFFFC00
3FFFFFFE00
3FC001FE00
7F8000FE00
7F8000FF00
7F0000FF00
FF00007F00
FF00007F80
FE00007F80
ENDCHAR
STARTCHAR 01DF
ENCODING 479
SWIDTH 560 0
DWIDTH 28 0
BBX 25 44 2 -1
BITMAP
0FFFE000
0FFFE000
0FFFE000
0FFFE000
00000000
00000000
0FC3F000
0FC3F000
0FC3F000
0FC3F000
0FC3F000
0FC3F000
0FC3F000
00000000
00000000
00000000
03FFC000
0FFFF000
1FFFF800
3FFFFC00
7FFFFC00
7FC3FE00
7F00FE00
7F00FE00
0000FE00
0001FE00
0007FE00
00FFFE00
0FFFFE00
1FFFFE00
3FFEFE00
7FE0FE00
7F00FE00
FE00FE00
FE00FE00
FE01FE00
FE01FE00
FF03FE00
FFFFFE00
7FFFFE00
7FFFFE00
3FFEFF00
1FF87F80
07E00000
ENDCHAR
STARTCHAR 01E0
ENCODING 480
SWIDTH 700 0
DWIDTH 35 0
BBX 33 49 1 0
BITMAP
003FFF8000
003FFF8000
003FFF8000
003FFF8000
0000000000
0001F00000
0001F00000
0001F00000
0001F00000
0001F00000
0001F00000
0000000000
0000000000
000FF80000
000FF80000
000FFC0000
001FFC0000
001FFC0000
003FFE0000
003FFE0000
003FFE0000
007FFF0000
007F7F0000
007F7F0000
00FF7F8000
00FE3F8000
00FE3F8000
01FE3FC000
01FC1FC000
01FC1FE000
03FC1FE000
03F80FE000
07F80FF000
07F80FF000
07F007F000
0FF007F800
0FFFFFF800
0FFFFFF800
1FFFFFFC00
1FFFFFFC00
1FFFFFFC00
3FFFFFFE00
3FC001FE00
7F8000FE00
7F8000FF00
7F0000FF00
FF00007F00
FF00007F80
FE00007F80
ENDCHAR
STARTCHAR 01E1
ENCODING 481
SWIDTH 560 0
DWIDTH 28 0
BBX 25 44 2 -1
BITMAP
0FFFE000
0FFFE000
0FFFE000
0FFFE000
00000000
00000000
00000000
003E0000
003E0000
003E0000
003E0000
003E0000
003E0000
00000000
00000000
00000000
03FFC000
0FFFF000
1FFFF800
3FFFFC00
7FFFFC00
7FC3FE00
7F00FE00
7F00FE00
0000FE00
0001FE00
0007FE00
00FFFE00
0FFFFE00
1FFFFE00
3FFEFE00
7FE0FE00
7F00FE00
FE00FE00
FE00FE00
FE01FE00
FE01FE00
FF03FE00
FFFFFE00
7FFFFE00
7FFFFE00
3FFEFF00
1FF87F80
07E00000
ENDCHAR
STARTCHAR 01E2
ENCODING 482
SWIDTH 1000 0
DWIDTH 50 0
BBX 48 44 1 0
BITMAP
000003FFF800
000003FFF800
000003FFF800
000003FFF800
000000000000
000000000000
000000000000
000000000000
0007FFFFFFFE
000FFFFFFFFE
000FFFFFFFFE
001FFFFFFFFE
001FFFFFFFFE
001FFFFFFFFE
003FC7F80000
003F87F80000
003F87F80000
007F07F80000
007F07F80000
00FF07F80000
00FE07F80000
00FE07F80000
01FE07FFFFF8
01FC07FFFFF8
01FC07FFFFF8
03FC07FFFFF8
03F807FFFFF8
03F807FFFFF8
07F807F80000
07F007F80000
0FFFFFF80000
0FFFFFF80000
0FFFFFF80000
1FFFFFF80000
1FFFFFF80000
1FFFFFF80000
3FC007F80000
3F8007F80000
3F8007FFFFFF
7F8007FFFFFF
7F0007FFFFFF
FF0007FFFFFF
FF0007FFFFFF
FE0007FFFFFF
ENDCHAR
STARTCHAR 01E3
ENCODING 483
SWIDTH 880 0
DWIDTH 44 0
BBX 42 36 1 -1
BITMAP
0007FFF00000
0007FFF00000
0007FFF00000
0007FFF00000
000000000000
000000000000
000000000000
000000000000
03FFE0FFC000
0FFFFBFFF000
1FFFFFFFFC00
3FFFFFFFFE00
3FFFFFFFFE00
7FC1FFE0FF00
7F007FC07F80
7F007F803F80
00007F803F80
0000FF001F80
0003FF001FC0
00FFFFFFFFC0
07FFFFFFFFC0
1FFFFFFFFFC0
3FFFFFFFFFC0
7FF87FFFFFC0
7F807F000000
FF007F000000
FE007F000000
FE00FF801FC0
FE00FF803F80
FF01FFC07F80
FFFFFFFBFF00
7FFFEFFFFF00
7FFFC7FFFE00
3FFF03FFFC00
1FFE01FFF000
07F0003F8000
ENDCHAR
STARTCHAR 01E4
ENCODING 484
SWIDTH 800 0
DWIDTH 40 0
BBX 38 37 2 0
BITMAP
001FFF0000
007FFFE000
00FFFFF000
03FFFFFC00
07FFFFFE00
0FFFFFFE00
0FFC03FF00
1FF000FF80
3FE0007F80
3FC0003F80
7F80003F80
7F80000000
7F00000000
7F00000000
FF00000000
FF00000000
FF00000000
FF001FFFC0
FF001FFFC0
FF001FFFC0
FF001FFFC0
FF001FFFC0
FF001FFFC0
FF00001FC0
7F80001FC0
7F801FFFFC
7FC01FFFFC
3FE01FFFFC
3FF01FFFFC
1FF801FFC0
0FFF1FFFC0
07FFFFFFC0
07FFFFEFC0
01FFFFC7C0
00FFFF87C0
003FFF07C0
0007F80000
ENDCHAR
STARTCHAR 01E5
ENCODING 485
SWIDTH 660 0
DWIDTH 33 0
BBX 29 37 2 -9
BITMAP
01FE3F80
07FF3F80
0FFFBF80
1FFFFF80
1FFFFF80
3FF7FF80
7FC1FF80
7F80FF80
7F007F80
FF007F80
FE003F80
FE003F80
FE003F80
FE003F80
FE003F80
FE003F80
FE003F80
FE003F80
FF007F80
7F007F80
7F80FF80
7FC1FF80
3FFFFF80
3FFFFF80
1FFFFF80
0FFFBF80
07FF3F80
01FC3F80
00003F80
0007FFF8
7F07FFF8
7F87FFF8
7FC1FF00
3FFFFE00
3FFFFC00
0FFFF800
03FFE000
ENDCHAR
STARTCHAR 01E6
ENCODING 486
SWIDTH 760 0
DWIDTH 38 0
BBX 34 46 2 -1
BITMAP
003E07C000
001F0F8000
000F9F0000
0007FE0000
0003FC0000
0001F80000
0000000000
0000000000
0000000000
001FFF0000
007FFFE000
00FFFFF000
03FFFFFC00
07FFFFFE00
0FFFFFFE00
0FFC03FF00
1FF000FF80
3FE0007F80
3FC0003F80
7F80003F80
7F80000000
7F00000000
7F00000000
FF00000000
FF00000000
FF00000000
FF001FFFC0
FF001FFFC0
FF001FFFC0
FF001FFFC0
FF001FFFC0
FF001FFFC0
FF00001FC0
7F80001FC0
7F80001FC0
7FC0003FC0
3FE0007FC0
3FF000FFC0
1FF801FFC0
0FFF0FFFC0
07FFFFFFC0
07FFFFEFC0
01FFFFC7C0
00FFFF87C0
003FFF07C0
0007F80000
ENDCHAR
STARTCHAR 01E7
ENCODING 487
SWIDTH 620 0
DWIDTH 31 0
BBX 26 48 2 -10
BITMAP
03C03C00
01E07800
01F0F000
00F9F000
0079E000
007FC000
003FC000
001F8000
00000000
00000000
00000000
01FE1FC0
07FF9FC0
0FFFDFC0
1FFFFFC0
1FFFFFC0
3FF3FFC0
7FC0FFC0
7F807FC0
7F003FC0
FF003FC0
FE001FC0
FE001FC0
FE001FC0
FE001FC0
FE001FC0
FE001FC0
FE001FC0
FF001FC0
FF003FC0
7F003FC0
7F807FC0
7FC1FFC0
3FFFFFC0
1FFFFFC0
1FFFFFC0
0FFFDFC0
03FF1FC0
00FC1FC0
00001FC0
00001FC0
7F003FC0
7F807F80
7FC0FF80
3FFFFF00
1FFFFE00
0FFFFC00
03FFE000
ENDCHAR
STARTCHAR 01E8
ENCODING 488
SWIDTH 720 0
DWIDTH 36 0
BBX 32 45 4 0
BITMAP
01F03E00
00F87C00
007CF800
003FF000
001FE000
000FC000
00000000
00000000
00000000
FF0007FC
FF000FF8
FF000FF0
FF001FE0
FF003FC0
FF007F80
FF00FF80
FF01FF00
FF03FE00
FF07FC00
FF0FF800
FF1FF000
FF1FE000
FF3FC000
FF7F8000
FFFF0000
FFFF8000
FFFFC000
FFFFC000
FFFFE000
FFEFF000
FFCFF800
FF87FC00
FF03FC00
FF01FE00
FF01FF00
FF00FF80
FF007FC0
FF003FC0
FF003FE0
FF001FF0
FF000FF8
FF0007F8
FF0007FC
FF0003FE
FF0001FF
ENDCHAR
STARTCHAR 01E9
ENCODING 489
SWIDTH 560 0
DWIDTH 28 0
BBX 24 44 3 0
BITMAP
0780F0
0781E0
03C3C0
01E780
01FF80
00FF00
007E00
000000
FE0000
FE0000
FE0000
FE0000
FE0000
FE0000
FE0000
FE0000
FE0000
FE01FE
FE01FE
FE03FC
FE07F8
FE0FF0
FE1FE0
FE3FC0
FE3F80
FE7F00
FEFE00
FFFE00
FFFE00
FFFF00
FFFF80
FFFF80
FFBFC0
FF9FC0
FF1FE0
FE0FF0
FE0FF0
FE07F8
FE07F8
FE03FC
FE03FC
FE01FE
FE01FF
FE00FF
ENDCHAR
STARTCHAR 01EA
ENCODING 490
SWIDTH 780 0
DWIDTH 39 0
BBX 36 48 2 -11
BITMAP
001FFF0000
007FFFC000
01FFFFF000
03FFFFF800
07FFFFFC00
0FFFFFFE00
1FFC07FF00
1FF001FF80
3FE000FF80
3FC0007FC0
7F80003FC0
7F80001FE0
7F00001FE0
FF00001FE0
FF00000FE0
FF00000FE0
FF00000FE0
FF00000FF0
FF00000FF0
FF00000FF0
FF00000FE0
FF00000FE0
FF00001FE0
7F00001FE0
7F80001FE0
7F80003FC0
7FC0003FC0
3FC0007FC0
3FE000FF80
1FF803FF00
0FFF1FFF00
0FFFFFFE00
07FFFFFC00
01FFFFF000
00FFFFE000
003FFF8000
0007FC0000
0007C00000
000F000000
001E000000
003C000000
007C000000
007C000000
007C000000
007C000000
003FF80000
001FF80000
0007F80000
ENDCHAR
STARTCHAR 01EB
ENCODING 491
SWIDTH 620 0
DWIDTH 31 0
BBX 26 39 2 -11
BITMAP
01FFE000
03FFF000
0FFFFC00
1FFFFE00
3FFFFE00
3FE1FF00
7FC0FF80
7F807F80
7F003F80
FF003FC0
FE001FC0
FE001FC0
FE001FC0
FE001FC0
FE001FC0
FE001FC0
FE001FC0
FF003FC0
7F003F80
7F003F80
7F807F80
3FC0FF00
3FFFFF00
1FFFFE00
0FFFFC00
07FFF800
01FFE000
003F0000
00780000
01F00000
03E00000
03C00000
07C00000
07C00000
07C00000
07C00000
03FF0000
01FF0000
007F0000
ENDCHAR
STARTCHAR 01EC
ENCODING 492
SWIDTH 780 0
DWIDTH 39 0
BBX 36 55 2 -12
BITMAP
003FFF8000
003FFF8000
003FFF8000
003FFF8000
0000000000
0000000000
0000000000
001FFF0000
007FFFC000
01FFFFF000
03FFFFF800
07FFFFFC00
0FFFFFFE00
1FFC07FF00
1FF001FF80
3FE000FF80
3FC0007FC0
7F80003FC0
7F80001FE0
7F00001FE0
FF00001FE0
FF00000FE0
FF00000FE0
FF00000FE0
FF00000FF0
FF00000FF0
FF00000FF0
FF00000FE0
FF00000FE0
FF00001FE0
7F00001FE0
7F80001FE0
7F80003FC0
7FC0003FC0
3FC0007FC0
3FE000FF80
1FF803FF00
0FFF1FFF00
0FFFFFFE00
07FFFFFC00
01FFFFF000
00FFFFE000
003FFF8000
0007FC0000
0007C00000
000F000000
001E000000
003C000000
007C000000
007C000000
007C000000
007C000000
003FF80000
001FF80000
0007F80000
ENDCHAR
STARTCHAR 01ED
ENCODING 493
SWIDTH 620 0
DWIDTH 31 0
BBX 26 45 2 -12
BITMAP
03FFF800
03FFF800
03FFF800
03FFF800
00000000
00000000
01FFE000
03FFF000
0FFFFC00
1FFFFE00
3FFFFE00
3FE1FF00
7FC0FF80
7F807F80
7F003F80
FF003FC0
FE001FC0
FE001FC0
FE001FC0
FE001FC0
FE001FC0
FE001FC0
FE001FC0
FF003FC0
7F003F80
7F003F80
7F807F80
3FC0FF00
3FFFFF00
1FFFFE00
0FFFFC00
07FFF800
01FFE000
003F0000
00780000
01F00000
03E00000
03C00000
07C00000
07C00000
07C00000
07C00000
03FF0000
01FF0000
007F0000
ENDCHAR
STARTCHAR 01EE
ENCODING 494
SWIDTH 560 0
DWIDTH 28 0
BBX 24 46 2 -1
BITMAP
1F03E0
0F87C0
07CF80
03FF00
01FE00
00FC00
000000
000000
000000
3FFFFC
3FFFFC
3FFFFC
3FFFFC
3FFFFC
3FFFFC
0003FC
0003F8
0007F8
0007F0
0007E0
000FE0
000FC0
001FC0
001F80
003F80
003F00
003FE0
003FF0
003FF8
000FFC
0001FE
0000FE
00007F
00007F
00007F
FE007F
FE007F
FF00FF
FF00FF
7F83FE
7FFFFE
3FFFFC
1FFFF8
0FFFF0
07FFE0
00FF00
ENDCHAR
STARTCHAR 01EF
ENCODING 495
SWIDTH 560 0
DWIDTH 28 0
BBX 24 45 2 -7
BITMAP
0F00F0
0781E0
03C1E0
03E3C0
01F780
00FF80
00FF00
007E00
000000
000000
000000
1FFFFE
1FFFFE
1FFFFE
1FFFFE
1FFFFE
1FFFFE
0003FE
0007FC
0007F8
000FF0
001FE0
003FC0
007FC0
007F80
007FE0
007FF8
007FFC
0007FE
0001FE
0000FF
00007F
00007F
00007F
FE007F
FE007F
FF00FF
FF00FF
7FC3FE
7FFFFE
3FFFFC
1FFFF8
0FFFF0
07FFE0
00FF00
ENDCHAR
STARTCHAR 01F0
ENCODING 496
SWIDTH 300 0
DWIDTH 15 0
BBX 15 47 0 -10
BITMAP
F01E
F03C
7878
3CF0
3FF0
1FE0
0FC0
0000
0000
0000
07F0
07F0
07F0
07F0
07F0
07F0
07F0
07F0
07F0
07F0
07F0
07F0
07F0
07F0
07F0
07F0
07F0
07F0
07F0
07F0
07F0
07F0
07F0
07F0
07F0
07F0
07F0
07F0
07F0
07F0
07F0
0FF0
3FF0
3FF0
3FF0
3FE0
3FC0
ENDCHAR
STARTCHAR 01F1
ENCODING 497
SWIDTH 1340 0
DWIDTH 67 0
BBX 61 36 4 0
BITMAP
FFFFF0003FFFFFF8
FFFFFE003FFFFFF8
FFFFFF003FFFFFF8
FFFFFF803FFFFFF8
FFFFFFC03FFFFFF8
FFFFFFE03FFFFFF8
FF007FF000000FF8
FF001FF000001FF0
FF000FF800003FE0
FF0007F800003FC0
FF0003F800007FC0
FF0003FC0000FF80
FF0003FC0001FF00
FF0001FC0003FE00
FF0001FC0003FC00
FF0001FC0007FC00
FF0001FC000FF800
FF0001FE001FF000
FF0001FE001FE000
FF0001FC003FE000
FF0001FC007FC000
FF0001FC00FF8000
FF0001FC01FF0000
FF0003FC01FE0000
FF0003FC03FE0000
FF0003FC07FC0000
FF0007F80FF80000
FF000FF81FF00000
FF001FF01FE00000
FF007FF03FE00000
FFFFFFE03FFFFFF8
FFFFFFC03FFFFFF8
FFFFFF803FFFFFF8
FFFFFF003FFFFFF8
FFFFFC003FFFFFF8
FFFFE0003FFFFFF8
ENDCHAR
STARTCHAR 01F2
ENCODING 498
SWIDTH 1220 0
DWIDTH 61 0
BBX 56 36 4 0
BITMAP
FFFFF000000000
FFFFFE00000000
FFFFFF00000000
FFFFFF80000000
FFFFFFC0000000
FFFFFFE0000000
FF007FF0000000
FF001FF0000000
FF000FF8000000
FF0007F83FFFFF
FF0003F83FFFFF
FF0003FC3FFFFF
FF0003FC3FFFFF
FF0001FC3FFFFF
FF0001FC3FFFFF
FF0001FC0003FE
FF0001FC0007FC
FF0001FE0007F8
FF0001FE000FF0
FF0001FC001FE0
FF0001FC003FE0
FF0001FC007FC0
FF0001FC00FF80
FF0003FC01FF00
FF0003FC01FE00
FF0003FC03FC00
FF0007F807F800
FF000FF80FF800
FF001FF01FF000
FF007FF03FE000
FFFFFFE03FFFFF
FFFFFFC03FFFFF
FFFFFF803FFFFF
FFFFFF003FFFFF
FFFFFC003FFFFF
FFFFE0003FFFFF
ENDCHAR
STARTCHAR 01F3
ENCODING 499
SWIDTH 1120 0
DWIDTH 56 0
BBX 52 37 2 -1
BITMAP
00001FC0000000
00001FC0000000
00001FC0000000
00001FC0000000
00001FC0000000
00001FC0000000
00001FC0000000
00001FC0000000
00001FC0000000
01FF1FC1FFFFF0
07FF9FC1FFFFF0
0FFFDFC1FFFFF0
1FFFFFC1FFFFF0
1FFFFFC1FFFFF0
3FF3FFC1FFFFF0
7FC0FFC0001FE0
7F807FC0003FC0
7F003FC0007FC0
FF003FC000FF80
FE001FC001FF00
FE001FC003FE00
FE001FC003FC00
FE001FC007F800
FE001FC00FF000
FE001FC01FF000
FE001FC03FE000
FF003FC07FC000
7F003FC0FF8000
7F803FC0FF0000
7F807FC1FE0000
3FE1FFC3FFFFF0
3FFFFFC3FFFFF0
1FFFFFC3FFFFF0
0FFFFFC3FFFFF0
07FFDFC3FFFFF0
03FF9FC3FFFFF0
00FE0000000000
ENDCHAR
STARTCHAR 01F4
ENCODING 500
SWIDTH 760 0
DWIDTH 38 0
BBX 34 46 2 -1
BITMAP
00003F0000
00007E0000
0000FC0000
0001F00000
0003E00000
0007C00000
0000000000
0000000000
0000000000
001FFF0000
007FFFE000
00FFFFF000
03FFFFFC00
07FFFFFE00
0FFFFFFE00
0FFC03FF00
1FF000FF80
3FE0007F80
3FC0003F80
7F80003F80
7F80000000
7F00000000
7F00000000
FF00000000
FF00000000
FF00000000
FF001FFFC0
FF001FFFC0
FF001FFFC0
FF001FFFC0
FF001FFFC0
FF001FFFC0
FF00001FC0
7F80001FC0
7F80001FC0
7FC0003FC0
3FE0007FC0
3FF000FFC0
1FF801FFC0
0FFF0FFFC0
07FFFFFFC0
07FFFFEFC0
01FFFFC7C0
00FFFF87C0
003FFF07C0
0007F80000
ENDCHAR
STARTCHAR 01F5
ENCODING 501
SWIDTH 620 0
DWIDTH 31 0
BBX 26 48 2 -10
BITMAP
0003F800
0003F000
0007E000
0007C000
000F8000
000F0000
001E0000
001E0000
00000000
00000000
00000000
01FE1FC0
07FF9FC0
0FFFDFC0
1FFFFFC0
1FFFFFC0
3FF3FFC0
7FC0FFC0
7F807FC0
7F003FC0
FF003FC0
FE001FC0
FE001FC0
FE001FC0
FE001FC0
FE001FC0
FE001FC0
FE001FC0
FF001FC0
FF003FC0
7F003FC0
7F807FC0
7FC1FFC0
3FFFFFC0
1FFFFFC0
1FFFFFC0
0FFFDFC0
03FF1FC0
00FC1FC0
00001FC0
00001FC0
7F003FC0
7F807F80
7FC0FF80
3FFFFF00
1FFFFE00
0FFFFC00
03FFE000
ENDCHAR
STARTCHAR 01F7
ENCODING 503
SWIDTH 660 0
DWIDTH 33 0
BBX 28 36 4 1
BITMAP
FE1FFC00
FE7FFF00
FFFFFF80
FFFFFFC0
FFFFFFE0
FFFFFFE0
FFF81FE0
FFE00FE0
FF800FF0
FF000FF0
FE000FE0
FE001FE0
FE001FE0
FE003FE0
FE003FC0
FE007FC0
FE00FF80
FE01FF80
FE03FF00
FE07FE00
FE0FFC00
FE3FF800
FE7FF000
FFFFE000
FFFFC000
FFFF8000
FFFE0000
FFFC0000
FFF00000
FFC00000
FF800000
FE000000
FE000000
FE000000
FE000000
FE000000
ENDCHAR
STARTCHAR 01F8
ENCODING 504
SWIDTH 760 0
DWIDTH 38 0
BBX 30 45 4 0
BITMAP
01F80000
00FC0000
007E0000
001F0000
000F8000
00078000
00000000
00000000
00000000
FF0003FC
FF8003FC
FF8003FC
FFC003FC
FFC003FC
FFE003FC
FFF003FC
FFF003FC
FFF803FC
FFF803FC
FFFC03FC
FFFC03FC
FFFE03FC
FF7F03FC
FF3F03FC
FF3F83FC
FF1F83FC
FF1FC3FC
FF0FE3FC
FF0FE3FC
FF07F3FC
FF03F3FC
FF03FBFC
FF01FBFC
FF01FFFC
FF00FFFC
FF00FFFC
FF007FFC
FF003FFC
FF003FFC
FF001FFC
FF001FFC
FF000FFC
FF0007FC
FF0007FC
FF0003FC
ENDCHAR
STARTCHAR 01F9
ENCODING 505
SWIDTH 620 0
DWIDTH 31 0
BBX 24 38 3 0
BITMAP
01F800
00FC00
007C00
007E00
003E00
001E00
000F00
000700
000000
000000
000000
FE1FF0
FE7FF8
FEFFFC
FFFFFE
FFFFFE
FFF7FF
FF80FF
FF00FF
FE007F
FE007F
FE007F
FE007F
FE007F
FE007F
FE007F
FE007F
FE007F
FE007F
FE007F
FE007F
FE007F
FE007F
FE007F
FE007F
FE007F
FE007F
FE007F
ENDCHAR
STARTCHAR 01FA
ENCODING 506
SWIDTH 700 0
DWIDTH 35 0
BBX 33 45 1 0
BITMAP
00001F8000
00003F0000
00007E0000
0000F80000
0001F00000
0003E00000
0000000000
0001E00000
0003F00000
0007F80000
0006180000
0006180000
0006180000
0007F80000
0003F00000
0001E00000
0000000000
0000000000
000FF80000
000FF80000
001FFC0000
001FFC0000
003FFE0000
003FFE0000
007FFF0000
007F7F0000
00FF7F8000
00FE3F8000
01FE3FC000
01FC1FC000
03FC1FE000
03F80FE000
07F80FF000
07F00FF000
07F007F000
0FFFFFF800
0FFFFFF800
1FFFFFFC00
1FFFFFFC00
3FFFFFFE00
3F8000FE00
7F8000FF00
7F0000FF00
FF00007F80
FE00007F80
ENDCHAR
STARTCHAR 01FB
ENCODING 507
SWIDTH 560 0
DWIDTH 28 0
BBX 25 46 2 -1
BITMAP
000FC000
001F8000
003F0000
007C0000
00F80000
01F00000
00000000
007C0000
00FE0000
00EE0000
01C70000
01C70000
01C70000
00FE0000
007C0000
00380000
00000000
00000000
03FFC000
0FFFF000
1FFFF800
3FFFFC00
7FFFFC00
7FC3FE00
7F00FE00
7F00FE00
0000FE00
0001FE00
0007FE00
00FFFE00
0FFFFE00
1FFFFE00
3FFEFE00
7FE0FE00
7F00FE00
FE00FE00
FE00FE00
FE01FE00
FE01FE00
FF03FE00
FFFFFE00
7FFFFE00
7FFFFE00
3FFEFF00
1FF87F80
07E00000
ENDCHAR
STARTCHAR 01FC
ENCODING 508
SWIDTH 1020 0
DWIDTH 51 0
BBX 48 45 1 0
BITMAP
0000001F8000
0000003F0000
0000007E0000
000000F80000
000001F00000
000003E00000
000000000000
000000000000
000000000000
0007FFFFFFFE
000FFFFFFFFE
000FFFFFFFFE
001FFFFFFFFE
001FFFFFFFFE
001FFFFFFFFE
003FC7F80000
003F87F80000
003F87F80000
007F07F80000
007F07F80000
00FF07F80000
00FE07F80000
00FE07F80000
01FE07FFFFF8
01FC07FFFFF8
01FC07FFFFF8
03FC07FFFFF8
03F807FFFFF8
03F807FFFFF8
07F807F80000
07F007F80000
0FFFFFF80000
0FFFFFF80000
0FFFFFF80000
1FFFFFF80000
1FFFFFF80000
1FFFFFF80000
3FC007F80000
3F8007F80000
3F8007FFFFFF
7F8007FFFFFF
7F0007FFFFFF
FF0007FFFFFF
FF0007FFFFFF
FE0007FFFFFF
ENDCHAR
STARTCHAR 01FD
ENCODING 509
SWIDTH 880 0
DWIDTH 44 0
BBX 42 39 1 -1
BITMAP
000003F80000
000003F00000
000003E00000
000007C00000
000007800000
00000F800000
00000F000000
00001E000000
000000000000
000000000000
000000000000
03FFE0FFC000
0FFFFBFFF000
1FFFFFFFFC00
3FFFFFFFFE00
3FFFFFFFFE00
7FC1FFE0FF00
7F007FC07F80
7F007F803F80
00007F803F80
0000FF001F80
0003FF001FC0
00FFFFFFFFC0
07FFFFFFFFC0
1FFFFFFFFFC0
3FFFFFFFFFC0
7FF87FFFFFC0
7F807F000000
FF007F000000
FE007F000000
FE00FF801FC0
FE00FF803F80
FF01FFC07F80
FFFFFFFBFF00
7FFFEFFFFF00
7FFFC7FFFE00
3FFF03FFFC00
1FFE01FFF000
07F0003F8000
ENDCHAR
STARTCHAR 01FE
ENCODING 510
SWIDTH 780 0
DWIDTH 39 0
BBX 36 47 2 -2
BITMAP
00001F8000
00003F0000
00007E0000
0000F80000
0001F00000
0003E00000
0000000000
0000000000
0000000040
001FFF00E0
007FFFC1F0
01FFFFF1E0
03FFFFFBC0
07FFFFFF80
0FFFFFFF80
1FFC03FF00
1FF001FF80
3FE0007F80
3FC000FFC0
7F8001FFC0
7F8003FFE0
7F0007DFE0
FF000F9FE0
FF001F0FE0
FF003E0FE0
FF003C0FE0
FF00780FF0
FF00F00FF0
FF01E00FF0
FF03C00FE0
FF07C00FE0
FF0F801FE0
7F1F001FE0
7FBE001FE0
7FFC003FC0
3FF8003FC0
3FF0007FC0
1FE000FF80
1FF801FF00
0FFF1FFF00
1FFFFFFE00
1FFFFFFC00
3DFFFFF800
78FFFFE000
F83FFF8000
7007FC0000
2000000000
ENDCHAR
STARTCHAR 01FF
ENCODING 511
SWIDTH 620 0
DWIDTH 31 0
BBX 29 40 1 -2
BITMAP
0000FC00
0001F800
0001F000
0003E000
0003E000
0007C000
00078000
000F0000
00000000
00000000
00000010
007FF038
01FFFC78
07FFFFF0
0FFFFFE0
0FFFFFC0
1FF8FFC0
3FE03FE0
3FC01FE0
3F803FE0
7F807FF0
7F00FFF0
7F01E7F0
7F03C7F0
7F0787F0
7F0F07F0
7F1E07F0
7F3C07F0
7FF80FF0
3FF00FF0
3FE01FE0
3FC01FE0
1FF07FC0
1FFFFFC0
1FFFFF80
3FFFFF00
7BFFFE00
F0FFF800
E03FE000
40000000
ENDCHAR
STARTCHAR 0200
ENCODING 512
SWIDTH 700 0
DWIDTH 35 0
BBX 33 45 1 0
BITMAP
0FC3F00000
07E1F80000
03F0FC0000
00F83E0000
007C1F0000
003C0F0000
0000000000
0000000000
0000000000
000FF80000
000FF80000
000FFC0000
001FFC0000
001FFC0000
003FFE0000
003FFE0000
003FFE0000
007FFF0000
007F7F0000
007F7F0000
00FF7F8000
00FE3F8000
00FE3F8000
01FE3FC000
01FC1FC000
01FC1FE000
03FC1FE000
03F80FE000
07F80FF000
07F80FF000
07F007F000
0FF007F800
0FFFFFF800
0FFFFFF800
1FFFFFFC00
1FFFFFFC00
1FFFFFFC00
3FFFFFFE00
3FC001FE00
7F8000FE00
7F8000FF00
7F0000FF00
FF00007F00
FF00007F80
FE00007F80
ENDCHAR
STARTCHAR 0201
ENCODING 513
SWIDTH 560 0
DWIDTH 28 0
BBX 25 39 2 -1
BITMAP
FC7E0000
7C3F0000
3E1F0000
1E0F8000
1F078000
0F03C000
0781C000
00000000
00000000
00000000
00000000
03FFC000
0FFFF000
1FFFF800
3FFFFC00
7FFFFC00
7FC3FE00
7F00FE00
7F00FE00
0000FE00
0001FE00
0007FE00
00FFFE00
0FFFFE00
1FFFFE00
3FFEFE00
7FE0FE00
7F00FE00
FE00FE00
FE00FE00
FE01FE00
FE01FE00
FF03FE00
FFFFFE00
7FFFFE00
7FFFFE00
3FFEFF00
1FF87F80
07E00000
ENDCHAR
STARTCHAR 0202
ENCODING 514
SWIDTH 700 0
DWIDTH 35 0
BBX 33 45 1 0
BITMAP
0003F00000
000FF80000
000FFC0000
001FFE0000
001C1E0000
003C0E0000
00380E0000
0000000000
0000000000
000FF80000
000FF80000
000FFC0000
001FFC0000
001FFC0000
003FFE0000
003FFE0000
003FFE0000
007FFF0000
007F7F0000
007F7F0000
00FF7F8000
00FE3F8000
00FE3F8000
01FE3FC000
01FC1FC000
01FC1FE000
03FC1FE000
03F80FE000
07F80FF000
07F80FF000
07F007F000
0FF007F800
0FFFFFF800
0FFFFFF800
1FFFFFFC00
1FFFFFFC00
1FFFFFFC00
3FFFFFFE00
3FC001FE00
7F8000FE00
7F8000FF00
7F0000FF00
FF00007F00
FF00007F80
FE00007F80
ENDCHAR
STARTCHAR 0203
ENCODING 515
SWIDTH 560 0
DWIDTH 28 0
BBX 25 39 2 -1
BITMAP
003C0000
00FF0000
01FF8000
03FFC000
03C3C000
0381C000
0381C000
00000000
00000000
00000000
00000000
03FFC000
0FFFF000
1FFFF800
3FFFFC00
7FFFFC00
7FC3FE00
7F00FE00
7F00FE00
0000FE00
0001FE00
0007FE00
00FFFE00
0FFFFE00
1FFFFE00
3FFEFE00
7FE0FE00
7F00FE00
FE00FE00
FE00FE00
FE01FE00
FE01FE00
FF03FE00
FFFFFE00
7FFFFE00
7FFFFE00
3FFEFF00
1FF87F80
07E00000
ENDCHAR
STARTCHAR 0204
ENCODING 516
SWIDTH 660 0
DWIDTH 33 0
BBX 27 45 4 0
BITMAP
7E1F8000
3F0FC000
1F87E000
07C1F000
03E0F800
01E07800
00000000
00000000
00000000
FFFFFFC0
FFFFFFC0
FFFFFFC0
FFFFFFC0
FFFFFFC0
FFFFFFC0
FF000000
FF000000
FF000000
FF000000
FF000000
FF000000
FF000000
FF000000
FFFFFF80
FFFFFF80
FFFFFF80
FFFFFF80
FFFFFF80
FFFFFF80
FF000000
FF000000
FF000000
FF000000
FF000000
FF000000
FF000000
FF000000
FF000000
FF000000
FFFFFFE0
FFFFFFE0
FFFFFFE0
FFFFFFE0
FFFFFFE0
FFFFFFE0
ENDCHAR
STARTCHAR 0205
ENCODING 517
SWIDTH 580 0
DWIDTH 29 0
BBX 26 39 1 -1
BITMAP
FE3F0000
7E1F0000
3E0F8000
1F078000
0F07C000
0783C000
0381E000
00000000
00000000
00000000
00000000
00FFE000
03FFF000
07FFFC00
0FFFFE00
0FFFFE00
1FE0FF00
3FC07F00
3F803F80
3F803F80
7F001F80
7F001FC0
7FFFFFC0
7FFFFFC0
7FFFFFC0
7FFFFFC0
7FFFFFC0
7F000000
7F000000
7F000000
3F800000
3F801FC0
3FC03F80
1FF0FF80
0FFFFF00
0FFFFE00
07FFFC00
01FFF000
007F8000
ENDCHAR
STARTCHAR 0206
ENCODING 518
SWIDTH 660 0
DWIDTH 33 0
BBX 27 45 4 0
BITMAP
003F0000
007F8000
00FFC000
01FFE000
01C0E000
01C0E000
01806000
00000000
00000000
FFFFFFC0
FFFFFFC0
FFFFFFC0
FFFFFFC0
FFFFFFC0
FFFFFFC0
FF000000
FF000000
FF000000
FF000000
FF000000
FF000000
FF000000
FF000000
FFFFFF80
FFFFFF80
FFFFFF80
FFFFFF80
FFFFFF80
FFFFFF80
FF000000
FF000000
FF000000
FF000000
FF000000
FF000000
FF000000
FF000000
FF000000
FF000000
FFFFFFE0
FFFFFFE0
FFFFFFE0
FFFFFFE0
FFFFFFE0
FFFFFFE0
ENDCHAR
STARTCHAR 0207
ENCODING 519
SWIDTH 580 0
DWIDTH 29 0
BBX 25 39 2 -1
BITMAP
003C0000
00FF0000
01FF8000
03FFC000
03C3C000
0381C000
0380C000
00000000
00000000
00000000
00000000
01FFC000
07FFE000
0FFFF800
1FFFFC00
1FFFFC00
3FC1FE00
7F80FE00
7F007F00
7F007F00
7E003F00
FE003F80
FFFFFF80
FFFFFF80
FFFFFF80
FFFFFF80
FFFFFF80
FE000000
FE000000
FE000000
7F000000
7F003F80
7F807F00
3FE1FF00
1FFFFE00
1FFFFC00
0FFFF800
03FFE000
00FF0000
ENDCHAR
STARTCHAR 0208
ENCODING 520
SWIDTH 300 0
DWIDTH 15 0
BBX 20 45 -5 0
BITMAP
FC3F00
7E1F80
3F0FC0
0F83E0
07C1F0
03C0F0
000000
000000
000000
007F80
007F80
007F80
007F80
007F80
007F80
007F80
007F80
007F80
007F80
007F80
007F80
007F80
007F80
007F80
007F80
007F80
007F80
007F80
007F80
007F80
007F80
007F80
007F80
007F80
007F80
007F80
007F80
007F80
007F80
007F80
007F80
007F80
007F80
007F80
007F80
ENDCHAR
STARTCHAR 0209
ENCODING 521
SWIDTH 300 0
DWIDTH 15 0
BBX 18 38 -3 0
BITMAP
FC7E00
7C3F00
3E1F00
3E0F80
1F0780
0F07C0
0783C0
000000
000000
000000
000000
00FE00
00FE00
00FE00
00FE00
00FE00
00FE00
00FE00
00FE00
00FE00
00FE00
00FE00
00FE00
00FE00
00FE00
00FE00
00FE00
00FE00
00FE00
00FE00
00FE00
00FE00
00FE00
00FE00
00FE00
00FE00
00FE00
00FE00
ENDCHAR
STARTCHAR 020A
ENCODING 522
SWIDTH 300 0
DWIDTH 15 0
BBX 13 45 1 0
BITMAP
0FC0
3FE0
7FF0
7FF8
F078
E038
E038
0000
0000
1FE0
1FE0
1FE0
1FE0
1FE0
1FE0
1FE0
1FE0
1FE0
1FE0
1FE0
1FE0
1FE0
1FE0
1FE0
1FE0
1FE0
1FE0
1FE0
1FE0
1FE0
1FE0
1FE0
1FE0
1FE0
1FE0
1FE0
1FE0
1FE0
1FE0
1FE0
1FE0
1FE0
1FE0
1FE0
1FE0
ENDCHAR
STARTCHAR 020B
ENCODING 523
SWIDTH 280 0
DWIDTH 14 0
BBX 13 38 0 0
BITMAP
0780
1FE0
3FF0
7FF0
7878
F038
E038
0000
0000
0000
0000
0FE0
0FE0
0FE0
0FE0
0FE0
0FE0
0FE0
0FE0
0FE0
0FE0
0FE0
0FE0
0FE0
0FE0
0FE0
0FE0
0FE0
0FE0
0FE0
0FE0
0FE0
0FE0
0FE0
0FE0
0FE0
0FE0
0FE0
ENDCHAR
STARTCHAR 020C
ENCODING 524
SWIDTH 780 0
DWIDTH 39 0
BBX 36 46 2 -1
BITMAP
0FC3F00000
07E1F80000
03F0FC0000
00F83E0000
007C1F0000
003C0F0000
0000000000
0000000000
0000000000
001FFF0000
007FFFC000
01FFFFF000
03FFFFF800
07FFFFFC00
0FFFFFFE00
1FFC07FF00
1FF001FF80
3FE000FF80
3FC0007FC0
7F80003FC0
7F80001FE0
7F00001FE0
FF00001FE0
FF00000FE0
FF00000FE0
FF00000FE0
FF00000FF0
FF00000FF0
FF00000FF0
FF00000FE0
FF00000FE0
FF00000FE0
7F00001FE0
7F80001FE0
7F80003FC0
7FC0003FC0
3FE0007FC0
3FF000FF80
1FF801FF00
0FFF1FFF00
07FFFFFE00
03FFFFFC00
01FFFFF800
00FFFFE000
003FFF8000
0007FC0000
ENDCHAR
STARTCHAR 020D
ENCODING 525
SWIDTH 620 0
DWIDTH 31 0
BBX 27 39 2 -1
BITMAP
7E3F0000
3E1F8000
1F0F8000
0F07C000
0F83C000
0781E000
03C0E000
00000000
00000000
00000000
00000000
00FFE000
03FFF800
0FFFFE00
1FFFFF00
1FFFFF00
3FF1FF80
7FC07FC0
7F803FC0
7F001FC0
FF001FE0
FE000FE0
FE000FE0
FE000FE0
FE000FE0
FE000FE0
FE000FE0
FE000FE0
FF001FE0
7F001FE0
7F803FC0
7F803FC0
3FE0FF80
3FFFFF80
1FFFFF00
0FFFFE00
07FFFC00
01FFF000
007FC000
ENDCHAR
STARTCHAR 020E
ENCODING 526
SWIDTH 780 0
DWIDTH 39 0
BBX 36 46 2 -1
BITMAP
0003F00000
0007FC0000
000FFE0000
000FFE0000
001E0F0000
001C070000
001C070000
0000000000
0000000000
001FFF0000
007FFFC000
01FFFFF000
03FFFFF800
07FFFFFC00
0FFFFFFE00
1FFC07FF00
1FF001FF80
3FE000FF80
3FC0007FC0
7F80003FC0
7F80001FE0
7F00001FE0
FF00001FE0
FF00000FE0
FF00000FE0
FF00000FE0
FF00000FF0
FF00000FF0
FF00000FF0
FF00000FE0
FF00000FE0
FF00000FE0
7F00001FE0
7F80001FE0
7F80003FC0
7FC0003FC0
3FE0007FC0
3FF000FF80
1FF801FF00
0FFF1FFF00
07FFFFFE00
03FFFFFC00
01FFFFF800
00FFFFE000
003FFF8000
0007FC0000
ENDCHAR
STARTCHAR 020F
ENCODING 527
SWIDTH 620 0
DWIDTH 31 0
BBX 27 39 2 -1
BITMAP
001E0000
007F8000
00FFC000
01FFE000
01E1E000
01C0E000
01C07000
00000000
00000000
00000000
00000000
00FFE000
03FFF800
0FFFFE00
1FFFFF00
1FFFFF00
3FF1FF80
7FC07FC0
7F803FC0
7F001FC0
FF001FE0
FE000FE0
FE000FE0
FE000FE0
FE000FE0
FE000FE0
FE000FE0
FE000FE0
FF001FE0
7F001FE0
7F803FC0
7F803FC0
3FE0FF80
3FFFFF80
1FFFFF00
0FFFFE00
07FFFC00
01FFF000
007FC000
ENDCHAR
STARTCHAR 0210
ENCODING 528
SWIDTH 720 0
DWIDTH 36 0
BBX 31 45 4 0
BITMAP
7E1F8000
3F0FC000
1F87E000
07C1F000
03E0F800
01E07800
00000000
00000000
00000000
FFFFFE00
FFFFFF80
FFFFFFE0
FFFFFFF0
FFFFFFF0
FFFFFFF8
FF001FF8
FF0007F8
FF0003F8
FF0003FC
FF0003FC
FF0003F8
FF0003F8
FF0003F8
FF0007F8
FF000FF0
FFFFFFE0
FFFFFFC0
FFFFFF80
FFFFFF00
FFFFFFC0
FFFFFFE0
FF003FF0
FF000FF0
FF0007F0
FF0007F0
FF0007F0
FF0007F0
FF0007F0
FF0007F0
FF0007F8
FF0007F8
FF0007F8
FF0007F8
FF0007FC
FF0003FE
ENDCHAR
STARTCHAR 0211
ENCODING 529
SWIDTH 400 0
DWIDTH 20 0
BBX 18 38 0 0
BITMAP
FC7E00
7C3F00
7E1F00
3E0F80
1F0780
0F07C0
0783C0
000000
000000
000000
000000
1FC3C0
1FCFC0
1FDFC0
1FDFC0
1FFFC0
1FFFC0
1FF800
1FF000
1FE000
1FC000
1FC000
1FC000
1FC000
1FC000
1FC000
1FC000
1FC000
1FC000
1FC000
1FC000
1FC000
1FC000
1FC000
1FC000
1FC000
1FC000
1FC000
ENDCHAR
STARTCHAR 0212
ENCODING 530
SWIDTH 720 0
DWIDTH 36 0
BBX 31 45 4 0
BITMAP
001F8000
007FC000
007FE000
00FFF000
00E0F000
01E07000
01C07000
00000000
00000000
FFFFFE00
FFFFFF80
FFFFFFE0
FFFFFFF0
FFFFFFF0
FFFFFFF8
FF001FF8
FF0007F8
FF0003F8
FF0003FC
FF0003FC
FF0003F8
FF0003F8
FF0003F8
FF0007F8
FF000FF0
FFFFFFE0
FFFFFFC0
FFFFFF80
FFFFFF00
FFFFFFC0
FFFFFFE0
FF003FF0
FF000FF0
FF0007F0
FF0007F0
FF0007F0
FF0007F0
FF0007F0
FF0007F0
FF0007F8
FF0007F8
FF0007F8
FF0007F8
FF0007FC
FF0003FE
ENDCHAR
STARTCHAR 0213
ENCODING 531
SWIDTH 400 0
DWIDTH 20 0
BBX 15 38 3 0
BITMAP
0380
0FF0
1FF8
3FF8
783C
701C
701C
0000
0000
0000
0000
FE1E
FE7E
FEFE
FEFE
FFFE
FFFE
FFC0
FF80
FF00
FE00
FE00
FE00
FE00
FE00
FE00
FE00
FE00
FE00
FE00
FE00
FE00
FE00
FE00
FE00
FE00
FE00
FE00
ENDCHAR
STARTCHAR 0214
ENCODING 532
SWIDTH 740 0
DWIDTH 37 0
BBX 29 46 4 -1
BITMAP
3F0FC000
1F87E000
0FC3F000
03E0F800
01F07C00
00F03C00
00000000
00000000
00000000
FF0007F8
FF0007F8
FF0007F8
FF0007F8
FF0007F8
FF0007F8
FF0007F8
FF0007F8
FF0007F8
FF0007F8
FF0007F8
FF0007F8
FF0007F8
FF0007F8
FF0007F8
FF0007F8
FF0007F8
FF0007F8
FF0007F8
FF0007F8
FF0007F8
FF0007F8
FF0007F8
FF0007F8
FF0007F8
FF0007F8
FF0007F0
FF000FF0
7F800FF0
7FC01FF0
7FF9FFE0
3FFFFFE0
1FFFFFC0
0FFFFF80
07FFFF00
01FFFC00
003FE000
ENDCHAR
STARTCHAR 0215
ENCODING 533
SWIDTH 620 0
DWIDTH 31 0
BBX 24 39 3 -1
BITMAP
7E3F00
3E1F80
1F0F80
0F07C0
0F83C0
0781E0
03C1E0
000000
000000
000000
000000
FE007F
FE007F
FE007F
FE007F
FE007F
FE007F
FE007F
FE007F
FE007F
FE007F
FE007F
FE007F
FE007F
FE007F
FE007F
FE007F
FE007F
FE007F
FE007F
FE00FF
FF00FF
FF83FF
7FFFFF
7FFFFF
7FFF7F
3FFF7F
1FFC7F
03F000
ENDCHAR
STARTCHAR 0216
ENCODING 534
SWIDTH 740 0
DWIDTH 37 0
BBX 29 46 4 -1
BITMAP
001FC000
003FE000
007FF000
007FF000
00F07800
00E03800
00E03800
00000000
00000000
FF0007F8
FF0007F8
FF0007F8
FF0007F8
FF0007F8
FF0007F8
FF0007F8
FF0007F8
FF0007F8
FF0007F8
FF0007F8
FF0007F8
FF0007F8
FF0007F8
FF0007F8
FF0007F8
FF0007F8
FF0007F8
FF0007F8
FF0007F8
FF0007F8
FF0007F8
FF0007F8
FF0007F8
FF0007F8
FF0007F8
FF0007F0
FF000FF0
7F800FF0
7FC01FF0
7FF9FFE0
3FFFFFE0
1FFFFFC0
0FFFFF80
07FFFF00
01FFFC00
003FE000
ENDCHAR
STARTCHAR 0217
ENCODING 535
SWIDTH 620 0
DWIDTH 31 0
BBX 24 39 3 -1
BITMAP
003C00
00FF00
01FF80
03FFC0
03C3C0
0381C0
0701C0
000000
000000
000000
000000
FE007F
FE007F
FE007F
FE007F
FE007F
FE007F
FE007F
FE007F
FE007F
FE007F
FE007F
FE007F
FE007F
FE007F
FE007F
FE007F
FE007F
FE007F
FE007F
FE00FF
FF00FF
FF83FF
7FFFFF
7FFFFF
7FFF7F
3FFF7F
1FFC7F
03F000
ENDCHAR
STARTCHAR 0218
ENCODING 536
SWIDTH 680 0
DWIDTH 34 0
BBX 30 51 2 -14
BITMAP
00FFFC00
03FFFF00
0FFFFFC0
1FFFFFE0
1FFFFFE0
3FFDFFF0
3FC00FF0
7F8007F8
7F0007F8
7F0003F8
7F000000
7F000000
7F800000
7FF00000
3FFF0000
3FFFF800
1FFFFF00
0FFFFFC0
03FFFFF0
007FFFF0
0003FFF8
00003FF8
000007FC
000003FC
000001FC
FF0001FC
FF0001FC
7F0001FC
7F8003FC
7FC007F8
3FF00FF8
3FFFFFF0
1FFFFFF0
0FFFFFE0
07FFFF80
01FFFF00
003FF000
00000000
00000000
00000000
001F8000
001F8000
001F8000
001F8000
001F8000
00038000
00038000
00078000
000F0000
001E0000
00180000
ENDCHAR
STARTCHAR 0219
ENCODING 537
SWIDTH 560 0
DWIDTH 28 0
BBX 25 42 1 -14
BITMAP
03FFE000
07FFF800
1FFFFC00
3FFFFE00
3FFFFE00
7F80FF00
7F007F00
7F007F00
7F800000
7FE00000
7FFC0000
3FFFC000
3FFFF800
1FFFFE00
07FFFF00
00FFFF00
001FFF80
0001FF80
00007F80
00003F80
FE003F80
FF007F80
7FC1FF00
7FFFFF00
3FFFFE00
1FFFFC00
0FFFF000
00FFC000
00000000
00000000
00000000
003F0000
003F0000
003F0000
003F0000
003F0000
00070000
00070000
000F0000
001E0000
003C0000
00300000
ENDCHAR
STARTCHAR 021A
ENCODING 538
SWIDTH 640 0
DWIDTH 32 0
BBX 29 51 2 -15
BITMAP
FFFFFFF8
FFFFFFF8
FFFFFFF8
FFFFFFF8
FFFFFFF8
FFFFFFF8
001FE000
001FE000
001FE000
001FE000
001FE000
001FE000
001FE000
001FE000
001FE000
001FE000
001FE000
001FE000
001FE000
001FE000
001FE000
001FE000
001FE000
001FE000
001FE000
001FE000
001FE000
001FE000
001FE000
001FE000
001FE000
001FE000
001FE000
001FE000
001FE000
001FE000
00000000
00000000
00000000
00000000
000FC000
000FC000
000FC000
000FC000
000FC000
0001C000
0001C000
0003C000
00078000
000F0000
000C0000
ENDCHAR
STARTCHAR 021B
ENCODING 539
SWIDTH 340 0
DWIDTH 17 0
BBX 13 49 2 -15
BITMAP
1FC0
1FC0
1FC0
1FC0
1FC0
1FC0
1FC0
FFF8
FFF8
FFF8
FFF8
FFF8
1FC0
1FC0
1FC0
1FC0
1FC0
1FC0
1FC0
1FC0
1FC0
1FC0
1FC0
1FC0
1FC0
1FC0
1FC0
1FC0
1FC0
1FE0
1FF8
1FF8
0FF8
07F8
01F8
0000
0000
0000
0FC0
0FC0
0FC0
0FC0
0FC0
01C0
01C0
03C0
0780
0F00
0C00
ENDCHAR
STARTCHAR 021C
ENCODING 540
SWIDTH 580 0
DWIDTH 29 0
BBX 25 43 2 -7
BITMAP
01FFC000
07FFF000
0FFFF800
1FFFFC00
3FFFFE00
7FFFFE00
7F81FE00
7F00FF00
FF007F00
FE007F00
FE007F00
FE007F00
FE00FF00
0000FF00
0001FE00
0007FE00
001FFC00
007FF800
01FFFC00
03FFFE00
03FFFF00
03FFFF00
03FC7F80
01F07F80
01803F80
00003F80
00003F80
00003F80
00007F80
0000FF80
0001FF00
0007FF00
001FFE00
007FFC00
01FFF800
0FFFF000
FFFFE000
FFFF8000
7FFE0000
7FF80000
7FE00000
7F000000
38000000
ENDCHAR
STARTCHAR 021D
ENCODING 541
SWIDTH 480 0
DWIDTH 24 0
BBX 21 33 2 -6
BITMAP
07FE00
0FFF80
1FFFC0
3FFFE0
7FFFE0
7FFFF0
FF0FF0
FF07F0
FE07F0
FE07F0
FE0FF0
001FF0
007FE0
01FFC0
07FFE0
07FFF0
07FFF0
07FFF8
03E7F8
0383F8
0003F8
0003F8
0007F8
001FF0
007FF0
01FFE0
0FFFC0
7FFF80
7FFF00
7FFC00
7FE000
3F8000
3C0000
ENDCHAR
STARTCHAR 021E
ENCODING 542
SWIDTH 740 0
DWIDTH 37 0
BBX 30 45 4 0
BITMAP
03E07C00
01F0F800
00F9F000
007FE000
003FC000
001F8000
00000000
00000000
00000000
FF0003FC
FF0003FC
FF0003FC
FF0003FC
FF0003FC
FF0003FC
FF0003FC
FF0003FC
FF0003FC
FF0003FC
FF0003FC
FF0003FC
FF0003FC
FF0003FC
FFFFFFFC
FFFFFFFC
FFFFFFFC
FFFFFFFC
FFFFFFFC
FFFFFFFC
FF0003FC
FF0003FC
FF0003FC
FF0003FC
FF0003FC
FF0003FC
FF0003FC
FF0003FC
FF0003FC
FF0003FC
FF0003FC
FF0003FC
FF0003FC
FF0003FC
FF0003FC
FF0003FC
ENDCHAR
STARTCHAR 021F
ENCODING 543
SWIDTH 600 0
DWIDTH 30 0
BBX 24 44 3 0
BITMAP
078078
03C0F0
01E1E0
01F3E0
00FFC0
007F80
007F00
003F00
FE0000
FE0000
FE0000
FE0000
FE0000
FE0000
FE0000
FE0000
FE0000
FE1FF0
FE7FF8
FEFFFC
FFFFFE
FFFFFE
FFF7FF
FF80FF
FF00FF
FF007F
FE007F
FE007F
FE007F
FE007F
FE007F
FE007F
FE007F
FE007F
FE007F
FE007F
FE007F
FE007F
FE007F
FE007F
FE007F
FE007F
FE007F
FE007F
ENDCHAR
STARTCHAR 0224
ENCODING 548
SWIDTH 620 0
DWIDTH 31 0
BBX 27 46 2 -10
BITMAP
FFFFFFE0
FFFFFFE0
FFFFFFE0
FFFFFFE0
FFFFFFE0
FFFFFFE0
00003FE0
00003FC0
00007F80
0000FF00
0001FF00
0003FE00
0003FC00
0007F800
000FF800
001FF000
001FE000
003FC000
007F8000
00FF8000
01FF0000
01FE0000
03FC0000
07F80000
0FF80000
1FF00000
1FE00000
3FC00000
7F800000
FF800000
FFFFFFE0
FFFFFFE0
FFFFFFE0
FFFFFFE0
FFFFFFE0
FFFFFFE0
00000FE0
00000FE0
00000FE0
00000FE0
0000FFE0
0000FFE0
0000FFE0
0000FFC0
0000FF80
0000FF00
ENDCHAR
STARTCHAR 0225
ENCODING 549
SWIDTH 500 0
DWIDTH 25 0
BBX 22 37 2 -10
BITMAP
7FFFFC
7FFFFC
7FFFFC
7FFFFC
7FFFFC
7FFFFC
000FF8
000FF0
001FE0
003FC0
007FC0
00FF80
01FF00
01FE00
03FC00
07F800
0FF000
1FF000
3FE000
7FC000
7F8000
FFFFFC
FFFFFC
FFFFFC
FFFFFC
FFFFFC
FFFFFC
0001FC
0001FC
0001FC
0001FC
001FFC
001FFC
001FFC
001FF8
001FF0
001FE0
ENDCHAR
STARTCHAR 0226
ENCODING 550
SWIDTH 700 0
DWIDTH 35 0
BBX 33 44 1 0
BITMAP
0001F80000
0001F80000
0001F80000
0001F80000
0001F80000
0001F80000
0000000000
0000000000
000FF80000
000FF80000
000FFC0000
001FFC0000
001FFC0000
003FFE0000
003FFE0000
003FFE0000
007FFF0000
007F7F0000
007F7F0000
00FF7F8000
00FE3F8000
00FE3F8000
01FE3FC000
01FC1FC000
01FC1FE000
03FC1FE000
03F80FE000
07F80FF000
07F80FF000
07F007F000
0FF007F800
0FFFFFF800
0FFFFFF800
1FFFFFFC00
1FFFFFFC00
1FFFFFFC00
3FFFFFFE00
3FC001FE00
7F8000FE00
7F8000FF00
7F0000FF00
FF00007F00
FF00007F80
FE00007F80
ENDCHAR
STARTCHAR 0227
ENCODING 551
SWIDTH 560 0
DWIDTH 28 0
BBX 25 37 2 -1
BITMAP
003E0000
003E0000
003E0000
003E0000
003E0000
003E0000
00000000
00000000
00000000
03FFC000
0FFFF000
1FFFF800
3FFFFC00
7FFFFC00
7FC3FE00
7F00FE00
7F00FE00
0000FE00
0001FE00
0007FE00
00FFFE00
0FFFFE00
1FFFFE00
3FFEFE00
7FE0FE00
7F00FE00
FE00FE00
FE00FE00
FE01FE00
FE01FE00
FF03FE00
FFFFFE00
7FFFFE00
7FFFFE00
3FFEFF00
1FF87F80
07E00000
ENDCHAR
STARTCHAR 0228
ENCODING 552
SWIDTH 660 0
DWIDTH 33 0
BBX 27 46 4 -10
BITMAP
FFFFFFC0
FFFFFFC0
FFFFFFC0
FFFFFFC0
FFFFFFC0
FFFFFFC0
FF000000
FF000000
FF000000
FF000000
FF000000
FF000000
FF000000
FF000000
FFFFFF80
FFFFFF80
FFFFFF80
FFFFFF80
FFFFFF80
FFFFFF80
FF000000
FF000000
FF000000
FF000000
FF000000
FF000000
FF000000
FF000000
FF000000
FF000000
FFFFFFE0
FFFFFFE0
FFFFFFE0
FFFFFFE0
FFFFFFE0
FFFFFFE0
000C0000
000C0000
001D0000
001FC000
0027E000
0001E000
0001E000
0383E000
03FFC000
01FF8000
ENDCHAR
ENDFONT
